Gidolinya-Regular.sfdir
StartChar: numbersign
Encoding: 35 35 99
GlifName: numbersign
Width: 610
VWidth: 0
Flags: W
HStem: 0 21G<96 164.211 310 378.211> 190 57<55 136 212 350 426 520> 421 57<90 184 260 398 474 555> 646 20G<231.745 300 445.745 514>
LayerCount: 4
Back
Fore
SplineSet
236 666 m 1
 300 666 l 1
 260 478 l 5
 410 478 l 5
 450 666 l 1
 514 666 l 1
 474 478 l 5
 555 478 l 5
 555 421 l 5
 462 421 l 5
 426 247 l 1
 520 247 l 1
 520 190 l 1
 414 190 l 1
 374 0 l 1
 310 0 l 1
 350 190 l 1
 200 190 l 1
 160 0 l 1
 96 0 l 1
 136 190 l 1
 55 190 l 1
 55 247 l 1
 148 247 l 1
 184 421 l 5
 90 421 l 5
 90 478 l 5
 196 478 l 5
 236 666 l 1
398 421 m 5
 248 421 l 5
 212 247 l 1
 362 247 l 1
 398 421 l 5
EndSplineSet
Validated: 1
Layer: 2
Layer: 3
EndChar
StartChar: dollar
Encoding: 36 36 97
GlifName: dollar
Width: 531
Flags: W
HStem: -5 70<146.245 234 288 354.74> 601 70<163.009 234 288 375.736>
VStem: 50 74<444.842 564.341> 234 54<-70 -3.11996 65 306 393 601 671 736> 407 74<115.302 245.56>
LayerCount: 4
Back
Fore
SplineSet
234 736 m 5
 288 736 l 5
 288 671 l 1
 345 667 403 650 453 619 c 1
 413 561 l 1
 376 583 333 596 288 601 c 1
 288 379 l 1
 348 363 390 343 423 312 c 0
 471 266 481 212 481 180 c 0
 481 125 455 73 413 40 c 0
 376 11 331 -2 288 -5 c 1
 288 -70 l 1
 234 -70 l 1
 234 -5 l 1
 166 0 99 23 44 63 c 1
 88 119 l 1
 130 88 182 70 234 65 c 1
 234 320 l 1
 195 330 150 344 113 375 c 0
 75 407 50 452 50 507 c 0
 50 555 73 599 108 628 c 0
 150 661 205 670 234 671 c 1
 234 736 l 5
234 601 m 1
 201 600 172 588 155 574 c 0
 129 551 124 520 124 507 c 0
 124 474 137 449 162 428 c 0
 181 412 206 401 234 393 c 1
 234 601 l 1
288 306 m 1
 288 65 l 1
 320 69 349 78 372 100 c 0
 393 120 407 146 407 180 c 0
 407 197 401 233 372 261 c 0
 347 285 326 293 288 306 c 1
EndSplineSet
Validated: 1
Layer: 2
Layer: 3
EndChar
StartChar: ampersand
Encoding: 38 38 104
GlifName: ampersand
Width: 645
Flags: W
HStem: -6 70<186.407 366.095 479.001 587.556> 308 70<191.639 395 469 577> 602 70<190.996 363.375>
VStem: 60 74<114.948 254.739> 72 74<423.459 557.845> 395 74<107.007 308 378 478>
LayerCount: 4
Back
Fore
SplineSet
392 110 m 5xf4
 392 308 l 5
 323 308 l 6
 260 308 223 308 189 288 c 4
 155 268 134 231 134 186 c 4
 134 125 175 64 266 64 c 4
 318 64 362 83 392 110 c 5xf4
515 -6 m 4
 471 -6 437 13 417 45 c 5
 376 11 322 -6 266 -6 c 4
 147 -6 60 74 60 186 c 4xf4
 60 259 97 314 150 345 c 5
 103 374 72 423 72 490 c 4
 72 590 146 672 266 672 c 4
 321 672 380 654 426 618 c 5
 385 561 l 5
 352 587 308 602 266 602 c 4
 190 602 146 552 146 490 c 4xec
 146 451 163 416 195 397 c 4
 227 378 262 378 323 378 c 6
 392 378 l 5
 392 478 l 5
 466 478 l 5
 466 378 l 5
 569 378 l 5
 569 308 l 5
 466 308 l 5
 466 131 l 6
 466 112 466 97 475 83 c 4
 484 69 499 64 515 64 c 4
 532 64 552 70 574 82 c 5
 605 19 l 5
 577 4 546 -6 515 -6 c 4
EndSplineSet
Layer: 2
Layer: 3
EndChar
StartChar: quotesingle
Encoding: 39 39 95
GlifName: quotesingle
Width: 202
Flags: W
HStem: 455 217<82.7301 98>
VStem: 50 102<577.964 664.037>
LayerCount: 4
Back
Fore
SplineSet
50 621 m 4
 50 652 71 672 101 672 c 4
 131 672 152 652 152 621 c 4
 152 608 148 595 138 567 c 6
 98 455 l 5
 53 455 l 5
 82 573 l 4
 63 579 50 598 50 621 c 4
EndSplineSet
Validated: 1
Layer: 2
Layer: 3
EndChar
StartChar: parenleft
Encoding: 40 40 80
GlifName: parenleft
Width: 320
Flags: W
VStem: 80 60<73.6031 521.897>
LayerCount: 4
Back
Fore
SplineSet
140 298 m 5
 140 108 140 20 180 -56 c 4
 201 -97 235 -130 278 -149 c 5
 254 -200 l 5
 198 -176 153 -132 126 -80 c 4
 80 7 80 103 80 298 c 5
 80 493 80 588 126 675 c 4
 153 727 198 771 254 795 c 5
 278 744 l 5
 235 725 201 692 180 651 c 4
 140 575 140 488 140 298 c 5
EndSplineSet
Validated: 1
Layer: 2
Layer: 3
EndChar
StartChar: parenright
Encoding: 41 41 78
GlifName: parenright
Width: 320
Flags: W
VStem: 180 60<73.6031 521.897>
LayerCount: 4
Back
Fore
SplineSet
180 298 m 5
 180 488 180 575 140 651 c 4
 119 692 85 725 42 744 c 5
 66 795 l 5
 122 771 167 727 194 675 c 4
 240 588 240 493 240 298 c 5
 240 103 240 7 194 -80 c 4
 167 -132 122 -176 66 -200 c 5
 42 -149 l 5
 85 -130 119 -97 140 -56 c 4
 180 20 180 108 180 298 c 5
EndSplineSet
Validated: 1
Layer: 2
Layer: 3
EndChar
StartChar: asterisk
Encoding: 42 42 96
GlifName: asterisk
Width: 352
VWidth: 0
Flags: W
HStem: 429 238
VStem: 153 46<576 667>
LayerCount: 4
Back
Fore
SplineSet
150 667 m 1
 202 667 l 1
 199 576 l 1
 286 607 l 1
 302 557 l 1
 214 532 l 1
 270 460 l 1
 228 429 l 1
 176 504 l 1
 124 429 l 1
 83 459 l 1
 138 532 l 1
 50 558 l 1
 66 608 l 1
 153 576 l 1
 150 667 l 1
EndSplineSet
Validated: 1
Layer: 2
Layer: 3
EndChar
StartChar: plus
Encoding: 43 43 84
GlifName: plus
Width: 520
Flags: W
HStem: 221 58<80 230 290 440>
VStem: 230 60<70 221 279 430>
LayerCount: 4
Back
Fore
SplineSet
80 279 m 5
 230 279 l 5
 230 430 l 5
 290 430 l 5
 290 279 l 5
 440 279 l 5
 440 221 l 5
 290 221 l 5
 290 70 l 5
 230 70 l 5
 230 221 l 5
 80 221 l 5
 80 279 l 5
EndSplineSet
Validated: 1
Layer: 2
Layer: 3
EndChar
StartChar: comma
Encoding: 44 44 39
GlifName: comma
Width: 202
Flags: W
HStem: -121 217<82.7301 98>
VStem: 50 102<1.96432 88.0371>
LayerCount: 4
Back
Fore
SplineSet
50 45 m 4
 50 76 71 96 101 96 c 4
 131 96 152 76 152 45 c 4
 152 32 148 19 138 -9 c 6
 98 -121 l 5
 53 -121 l 5
 82 -3 l 4
 63 3 50 22 50 45 c 4
EndSplineSet
Validated: 1
Layer: 2
Layer: 3
EndChar
StartChar: period
Encoding: 46 46 1
GlifName: period
Width: 202
VWidth: 0
Flags: W
HStem: -6 102<58.2266 143.773>
VStem: 50 102<2.22656 87.7734>
LayerCount: 4
Back
Fore
SplineSet
101 96 m 0
 131 96 152 75 152 45 c 0
 152 15 131 -6 101 -6 c 0
 71 -6 50 15 50 45 c 0
 50 75 71 96 101 96 c 0
EndSplineSet
Validated: 1
Layer: 2
Layer: 3
EndChar
StartChar: slash
Encoding: 47 47 73
GlifName: slash
Width: 342
VWidth: 0
Flags: W
VStem: 20 302
LayerCount: 4
Back
Fore
SplineSet
260 740 m 1
 322 740 l 1
 82 -144 l 1
 20 -144 l 1
 260 740 l 1
EndSplineSet
Validated: 1
Layer: 2
Layer: 3
EndChar
StartChar: zero
Encoding: 48 48 2
GlifName: zero
Width: 534
Flags: W
HStem: -6 70<191.523 342.477> 602 70<191.523 342.477>
VStem: 65 74<118.15 547.85> 395 74<118.15 547.85>
LayerCount: 4
Back
Fore
SplineSet
267 602 m 0
 237 602 195 593 169 561 c 0
 139 524 139 478 139 405 c 2
 139 261 l 2
 139 188 139 142 169 105 c 0
 195 73 237 64 267 64 c 4
 297 64 339 73 365 105 c 4
 395 142 395 188 395 261 c 6
 395 405 l 2
 395 478 395 524 365 561 c 0
 339 593 297 602 267 602 c 0
  Spiro
    267 602 o
    234.072 598.489 o
    199.263 585.834 o
    169 561 o
    147.902 520.378 o
    140.108 469.61 o
    139 405 [
    139 261 ]
    140.108 196.39 o
    147.902 145.622 o
    169 105 o
    199.263 80.1664 o
    234.072 67.511 o
    267 64 o
    299.928 67.511 o
    334.737 80.1664 o
    365 105 o
    386.098 145.622 o
    393.892 196.39 o
    395 261 [
    395 405 ]
    393.892 469.61 o
    386.098 520.378 o
    365 561 o
    334.737 585.834 o
    299.928 598.489 o
    0 0 z
  EndSpiro
267 672 m 0
 324 672 385 652 425 602 c 0
 469 547 469 484 469 405 c 2
 469 261 l 6
 469 182 469 119 425 64 c 4
 385 14 324 -6 267 -6 c 4
 210 -6 149 14 109 64 c 0
 65 119 65 182 65 261 c 2
 65 405 l 2
 65 484 65 547 109 602 c 0
 149 652 210 672 267 672 c 0
  Spiro
    267 672 o
    324.351 664.977 o
    378.977 642.339 o
    425 602 o
    455.943 544.098 o
    467.375 478.894 o
    469 405 [
    469 261 ]
    467.375 187.106 o
    455.943 121.902 o
    425 64 o
    378.977 23.6607 o
    324.351 1.0226 o
    267 -6 o
    209.649 1.0226 o
    155.023 23.6607 o
    109 64 o
    78.0566 121.902 o
    66.6247 187.106 o
    65 261 [
    65 405 ]
    66.6247 478.894 o
    78.0566 544.098 o
    109 602 o
    155.023 642.339 o
    209.649 664.977 o
    0 0 z
  EndSpiro
EndSplineSet
Validated: 1
Layer: 2
Layer: 3
EndChar
StartChar: one
Encoding: 49 49 3
GlifName: one
Width: 361
Flags: W
HStem: 0 21G<187 261> 597 70<90 179.303>
VStem: 187 74<0 590.273>
LayerCount: 4
Back
Fore
SplineSet
261 512 m 2
 261 0 l 1
 187 0 l 1
 187 512 l 2
 187 553 187 575 170 588 c 0
 158 597 141 597 104 597 c 2
 90 597 l 1
 90 667 l 1
 104 667 l 2
 148 667 188 667 221 639 c 0
 261 604 261 560 261 512 c 2
EndSplineSet
Validated: 1
Layer: 2
Layer: 3
EndChar
StartChar: two
Encoding: 50 50 4
GlifName: two
Width: 515
Flags: W
HStem: 0 70<149.33 455> 602 70<145.394 317.459>
VStem: 64 74<72.9244 131.026> 362 74<422.283 557.534>
LayerCount: 4
Back
Fore
SplineSet
236 672 m 0
 293 672 335 657 369 631 c 0
 408 601 436 548 436 490 c 0
 436 415 399 372 343 316 c 2
 191 163 l 2
 153 125 138 112 138 92 c 0
 138 83 143 77 149 74 c 0
 156 70 166 70 209 70 c 2
 455 70 l 1
 455 0 l 1
 199 0 l 2
 160 0 138 0 114 12 c 0
 86 26 64 54 64 92 c 0
 64 137 93 167 137 211 c 2
 289 364 l 2
 339 415 362 441 362 490 c 0
 362 521 349 555 323 576 c 0
 301 594 272 602 236 602 c 0
 195 602 152 590 121 565 c 1
 77 621 l 1
 126 659 187 672 236 672 c 0
EndSplineSet
Validated: 1
Layer: 2
Layer: 3
EndChar
StartChar: three
Encoding: 51 51 5
GlifName: three
Width: 486
Flags: W
HStem: -6 70<125.59 304.579> 596 70<75 326.719>
VStem: 334 74<536.534 592.788> 357 74<116.738 279.755>
LayerCount: 4
Back
Fore
SplineSet
75 666 m 1xe0
 277 666 l 2
 322 666 359 666 388 632 c 0
 400 618 408 601 408 577 c 0xe0
 408 537 385 511 352 471 c 2
 286 392 l 1
 317 386 346 372 370 350 c 0
 408 315 431 262 431 197 c 0
 431 132 407 80 370 46 c 0
 334 13 282 -6 219 -6 c 0
 153 -6 93 14 50 50 c 1
 96 105 l 1
 124 80 170 64 219 64 c 0
 257 64 294 74 318 96 c 0
 342 118 357 154 357 197 c 0xd0
 357 228 349 272 318 300 c 0
 287 328 250 328 186 328 c 9
 186 385 l 1
 296 517 l 2
 323 549 334 562 334 577 c 0
 334 584 331 588 327 591 c 0
 321 595 315 596 267 596 c 2
 75 596 l 1
 75 666 l 1xe0
EndSplineSet
Validated: 1
Layer: 2
Layer: 3
EndChar
StartChar: four
Encoding: 52 52 6
GlifName: four
Width: 525
Flags: W
HStem: 0 21G<343 413> 165 70<126.791 343 413 470> 646 20G<238.226 332>
VStem: 51 74<237.377 320.812> 343 70<0 165 235 403>
LayerCount: 4
Back
Fore
SplineSet
332 666 m 1
 159 344 l 2
 132.846654143 295.321518116 125 282 125 264 c 0
 125 258 126 253 130 247 c 0
 138 235 152 235 190 235 c 2
 343 235 l 1
 343 403 l 1
 413 403 l 1
 413 235 l 1
 470 235 l 1
 470 165 l 1
 413 165 l 1
 413 0 l 1
 343 0 l 1
 343 165 l 1
 200 165 l 2
 152 165 129 165 105 177 c 0
 75 192 51 221 51 264 c 0
 51 300 69.8549411734 333.461984553 89 369 c 2
 249 666 l 1
 332 666 l 1
EndSplineSet
Validated: 1
Layer: 2
Layer: 3
EndChar
StartChar: five
Encoding: 53 53 7
GlifName: five
Width: 492
Flags: W
HStem: -6 70<133.38 315.504> 330 70<159.844 317.74> 596 70<158.697 401>
VStem: 77 74<409.614 589.273> 368 74<117.044 278.889>
LayerCount: 4
Back
Fore
SplineSet
77 483 m 2
 77 511 l 6
 77 559 77 603 117 638 c 4
 150 666 190 666 234 666 c 6
 401 666 l 5
 401 596 l 5
 234 596 l 6
 197 596 180 596 168 587 c 4
 151 574 151 552 151 511 c 6
 151 483 l 2
 151 439 153 425 165 414 c 0
 176 404 196 400 217 400 c 0
 289 400 341 387 381 350 c 0
 418 316 442 263 442 198 c 0
 442 132 418 80 381 46 c 0
 345 13 294 -6 230 -6 c 0
 165 -6 103 13 60 49 c 1
 106 104 l 1
 136 78 180 64 230 64 c 0
 273 64 306 75 329 96 c 0
 354 119 368 154 368 198 c 0
 368 241 353 278 329 300 c 0
 300 326 263 330 213 330 c 0
 178 330 142 340 118 360 c 0
 77 394 77 438 77 483 c 2
EndSplineSet
Validated: 1
Layer: 2
Layer: 3
EndChar
StartChar: seven
Encoding: 55 55 9
GlifName: seven
Width: 500
Flags: W
HStem: 0 21G<103 193.736> 596 70<55 359.622>
VStem: 370 74<505.895 591.656>
LayerCount: 4
Back
Fore
SplineSet
103 0 m 1
 338 484 l 2
 361 531 370 550 370 567 c 0
 370 578 366 585 360 590 c 0
 352 596 340 596 297 596 c 2
 55 596 l 1
 55 666 l 1
 307 666 l 2
 347 666 386 666 415 637 c 0
 432 620 444 598 444 567 c 0
 444 533 427 499 405 454 c 2
 184 0 l 1
 103 0 l 1
EndSplineSet
Validated: 1
Layer: 2
Layer: 3
EndChar
StartChar: colon
Encoding: 58 58 12
GlifName: colon
Width: 202
VWidth: 0
Flags: W
HStem: -6 102<58.2266 143.773> 283 102<58.2266 143.773>
VStem: 50 102<2.22656 87.7734 291.227 376.773>
LayerCount: 4
Back
Fore
SplineSet
101 96 m 0
 131 96 152 75 152 45 c 0
 152 15 131 -6 101 -6 c 0
 71 -6 50 15 50 45 c 0
 50 75 71 96 101 96 c 0
101 385 m 0
 131 385 152 364 152 334 c 0
 152 304 131 283 101 283 c 0
 71 283 50 304 50 334 c 0
 50 364 71 385 101 385 c 0
EndSplineSet
Validated: 1
Layer: 2
Layer: 3
EndChar
StartChar: less
Encoding: 60 60 106
GlifName: less
Width: 520
Flags: W
LayerCount: 4
Back
Fore
SplineSet
449 394 m 1
 157 250 l 1
 449 106 l 1
 421 54 l 1
 80 224 l 1
 80 276 l 1
 421 446 l 1
 449 394 l 1
EndSplineSet
Validated: 1
Layer: 2
Layer: 3
EndChar
StartChar: question
Encoding: 63 63 43
GlifName: question
Width: 469
Flags: W
HStem: -6 102<171.227 256.773> 602 70<118.394 290.459>
VStem: 163 102<2.22656 87.7734> 185 58<169.027 288.324> 335 74<423.497 557.819>
LayerCount: 4
Back
Fore
SplineSet
214 96 m 4xe8
 244 96 265 75 265 45 c 4
 265 15 244 -6 214 -6 c 4
 184 -6 163 15 163 45 c 4
 163 75 184 96 214 96 c 4xe8
209 672 m 4
 266 672 308 657 342 631 c 4
 381 601 409 549 409 490 c 4
 409 427 379 381 343 351 c 4
 307 321 265 306 250 262 c 4
 247 253 244 240 243 216 c 6
 241 169 l 5
 241 169 187 169 187 169 c 5
 187 169 185 206 185 224 c 4xd8
 185 245 186 257 190 276 c 4
 204 344 263 375 294 402 c 4
 319 424 335 451 335 490 c 4
 335 522 322 555 296 576 c 4
 274 594 245 602 209 602 c 4
 168 602 125 590 94 565 c 5
 50 621 l 5
 99 659 160 672 209 672 c 4
EndSplineSet
Validated: 1
Layer: 2
Layer: 3
EndChar
StartChar: at
Encoding: 64 64 116
Width: 860
Flags: W
HStem: -183 62<210.861 649.139> -6 66<342.607 506.43> 229 62<344.661 534> 419 62<210.282 492.829> 604 62<277 551.738>
VStem: 75 66<-50.9117 348.912> 241 70<89.6848 197.121> 534 70<88.2812 229 291 377.112> 719 66<-50.9117 437.06>
LayerCount: 4
Back
Fore
SplineSet
604 205 m 0
 604 137 604 98 577 58 c 0
 547 14 494 -6 428 -6 c 0
 381 -6 337 3 302 27 c 0
 268 50 241 92 241 142 c 0
 241 188 263 228 299 255 c 0
 347 291 407 291 469 291 c 2
 534 291 l 1
 534 318 534 365 495 396 c 0
 466 419 428 419 359 419 c 0
 281 419 218 419 177 371 c 0
 141 329 141 275 141 200 c 2
 141 98 l 2
 141 23 141 -31 177 -73 c 0
 218 -121 280 -121 358 -121 c 2
 502 -121 l 2
 580 -121 642 -121 683 -73 c 0
 719 -31 719 23 719 98 c 2
 719 235 l 2
 719 349 719 451 642 528 c 0
 566 604 462 604 352 604 c 2
 277 604 l 1
 277 666 l 1
 352 666 l 2
 473 666 594 666 690 570 c 0
 785 475 785 351 785 235 c 2
 785 98 l 2
 785 15 785 -57 730 -117 c 0
 669 -183 584 -183 502 -183 c 2
 358 -183 l 2
 276 -183 191 -183 130 -117 c 0
 75 -57 75 15 75 98 c 2
 75 200 l 2
 75 283 75 355 130 415 c 0
 191 481 277 481 359 481 c 0
 436 481 490 481 542 442 c 0
 604 395 604 322 604 266 c 0
 604 205 l 0
469 229 m 2
 410 229 372 229 342 206 c 0
 325 193 311 171 311 142 c 0
 311 117 323 96 340 83 c 0
 364 65 395 60 428 60 c 0
 471 60 501 70 519 95 c 0
 534 116 534 148 534 205 c 2
 534 229 l 1
 469 229 l 2
EndSplineSet
Validated: 1
Layer: 2
Layer: 3
EndChar
StartChar: A
Encoding: 65 65 13
GlifName: A_
Width: 594
InSpiro: 1
Flags: W
HStem: 0 21G<35 116.333 477.667 559> 195 70<182 412> 602 70<272.595 321.405>
AnchorPoint: "DoubleTop" -20 0 basechar 0
AnchorPoint: "Apos" -20 0 basechar 0
AnchorPoint: "Center" -20 0 basechar 0
AnchorPoint: "Bottom" 463 0 basechar 0
AnchorPoint: "Top" 285 667 basechar 0
LayerCount: 4
Back
Fore
SplineSet
297 672 m 4
 323 672 350 663 370 644 c 0
 387 628 395 614 416 534 c 2
 559 0 l 1
 483 0 l 1
 431 195 l 5
 163 195 l 5
 111 0 l 5
 35 0 l 5
 178 534 l 6
 199 614 207 628 224 644 c 4
 244 663 271 672 297 672 c 4
182 265 m 5
 412 265 l 5
 344 518 l 2
 330 572 325 587 318 594 c 0
 313 599 305 602 297 602 c 4
 289 602 281 599 276 594 c 4
 269 587 264 572 250 518 c 6
 182 265 l 5
EndSplineSet
Validated: 1
Layer: 2
Layer: 3
EndChar
StartChar: B
Encoding: 66 66 14
Width: 550
Flags: W
HStem: 0 70<156.697 375.348> 308 70<149 363.092> 596 70<156.697 361.529>
VStem: 75 74<76.7269 308 378 589.273> 401 74<417.143 556.242> 421 74<114.888 263.237>
LayerCount: 4
Back
Fore
SplineSet
253 308 m 2xf4
 149 308 l 5
 149 155 l 6
 149 114 149 92 166 79 c 4
 178 70 195 70 232 70 c 6
 253 70 l 2
 324 70 355 71 385 98 c 0
 412 124 421 158 421 189 c 0
 421 220 412 254 385 280 c 0
 355 307 324 308 253 308 c 2xf4
244 596 m 2
 232 596 l 6
 195 596 178 596 166 587 c 4
 149 574 149 552 149 511 c 6
 149 378 l 5
 244 378 l 2
 314 378 342 380 368 404 c 0
 391 426 401 456 401 487 c 0xf8
 401 518 391 548 368 570 c 0
 342 594 314 596 244 596 c 2
254 0 m 2
 232 0 l 6
 188 0 148 0 115 28 c 4
 75 63 75 107 75 155 c 6
 75 511 l 6
 75 559 75 603 115 638 c 4
 148 666 188 666 232 666 c 6
 244 666 l 2
 324 666 369 663 414 625 c 0
 450 595 475 546 475 487 c 0xf8
 475 426 449 378 408 348 c 1
 461 317 495 262 495 189 c 0xf4
 495 129 470 75 431 43 c 0
 382 2 337 0 254 0 c 2
EndSplineSet
Validated: 1
Layer: 2
Layer: 3
EndChar
StartChar: C
Encoding: 67 67 15
GlifName: C_
Width: 536
Flags: W
HStem: -6 70<206.393 384.003> 602 70<206.393 382.743>
VStem: 65 74<136 530>
AnchorPoint: "DoubleTop" 0 0 basechar 0
AnchorPoint: "Apos" 0 0 basechar 0
AnchorPoint: "Center" 0 0 basechar 0
AnchorPoint: "Bottom" 290 0 basechar 0
AnchorPoint: "Top" 290 666 basechar 0
LayerCount: 4
Back
Fore
SplineSet
290 672 m 0
 352 672 416 651 465 611 c 1
 422 555 l 1
 386 585 338 602 290 602 c 0
 238.556640625 602 198.372070312 582.874023438 174 552 c 0
 139 506 139 458 139 333 c 0
 139 208 139 160 174 114 c 0
 198.372219015 83.1261880779 238.556521739 64 290 64 c 0
 342 64 394 83 431 117 c 1
 476 62 l 1
 426 18 359 -6 290 -6 c 0
 206.528409091 -6 148.198863636 29 113 74 c 0
 65 137 65 204 65 333 c 0
 65 462 65 529 113 592 c 0
 148.19921875 637 206.528320312 672 290 672 c 0
EndSplineSet
Validated: 1
Layer: 2
Layer: 3
EndChar
StartChar: D
Encoding: 68 68 17
Width: 580
Flags: W
HStem: 0 70<156.215 364.355> 596 70<156.215 364.355>
VStem: 75 74<76.7269 589.273> 441 74<152.375 513.625>
AnchorPoint: "DoubleTop" 0 0 basechar 0
AnchorPoint: "Apos" 0 0 basechar 0
AnchorPoint: "Center" -5 0 basechar 0
AnchorPoint: "Bottom" 277 0 basechar 0
AnchorPoint: "Top" 280 667 basechar 0
LayerCount: 4
Back
Fore
SplineSet
232 666 m 4
 304 666 405 666 469 574 c 4
 515 508 515 435 515 333 c 4
 515 231 515 158 469 92 c 4
 405 0 304 0 232 0 c 4
 188 0 148 0 115 28 c 4
 75 63 75 107 75 155 c 6
 75 511 l 6
 75 559 75 603 115 638 c 4
 148 666 188 666 232 666 c 4
232 596 m 4
 195 596 178 596 166 587 c 4
 149 574 149 552 149 511 c 6
 149 155 l 6
 149 114 149 92 166 79 c 4
 178 70 195 70 232 70 c 4
 294 70 366 70 407 130 c 4
 441 179 441 242 441 333 c 4
 441 424 441 487 407 536 c 4
 366 596 294 596 232 596 c 4
EndSplineSet
Validated: 1
Layer: 2
Layer: 3
EndChar
StartChar: E
Encoding: 69 69 18
Width: 500
Flags: W
HStem: 0 70<156.697 435> 308 70<149 385> 596 70<156.697 435>
VStem: 75 74<76.7269 308 378 589.273>
AnchorPoint: "DoubleTop" 0 0 basechar 0
AnchorPoint: "Apos" 0 0 basechar 0
AnchorPoint: "Center" 0 0 basechar 0
AnchorPoint: "Bottom" 255 0 basechar 0
AnchorPoint: "Top" 255 667 basechar 0
LayerCount: 4
Back
Fore
SplineSet
149 378 m 5
 385 379 l 5
 385 309 l 5
 149 308 l 5
 149 155 l 6
 149 114 149 92 166 79 c 4
 178 70 195 70 232 70 c 6
 435 70 l 5
 435 0 l 5
 232 0 l 6
 188 0 148 0 115 28 c 4
 75 63 75 107 75 155 c 6
 75 511 l 6
 75 559 75 603 115 638 c 4
 148 666 188 666 232 666 c 6
 435 666 l 5
 435 596 l 5
 232 596 l 6
 195 596 178 596 166 587 c 4
 149 574 149 552 149 511 c 6
 149 378 l 5
EndSplineSet
Validated: 1
Layer: 2
Layer: 3
EndChar
StartChar: F
Encoding: 70 70 19
Width: 500
Flags: W
HStem: 0 21G<75 149> 309 70<149 395> 596 70<156.697 445>
VStem: 75 74<0 309 379 589.273>
LayerCount: 4
Back
Fore
SplineSet
232 666 m 6
 445 666 l 1
 445 596 l 1
 232 596 l 2
 195 596 178 596 166 587 c 0
 149 574 149 552 149 511 c 2
 149 379 l 1
 395 379 l 1
 395 309 l 1
 149 309 l 1
 149 0 l 1
 75 0 l 1
 75 511 l 2
 75 559 75 603 115 638 c 0
 148 666 188 666 232 666 c 6
EndSplineSet
Validated: 1
Layer: 2
Layer: 3
EndChar
StartChar: G
Encoding: 71 71 28
GlifName: G_
Width: 580
Flags: W
HStem: -6 70<206.393 373.607> 287 70<303 440.917> 602 70<206.393 382.743>
VStem: 65 74<136 530> 440.917 74.0825<136.004 287>
AnchorPoint: "DoubleTop" 0 0 basechar 0
AnchorPoint: "Apos" 0 0 basechar 0
AnchorPoint: "Center" 0 0 basechar 0
AnchorPoint: "Bottom" 290 0 basechar 0
AnchorPoint: "Top" 290 666 basechar 0
LayerCount: 4
Back
Fore
SplineSet
290 672 m 4
 352 672 416 651 465 611 c 1
 422 555 l 1
 386 585 338 602 290 602 c 4
 238.556640625 602 198.372070312 582.874023438 174 552 c 4
 139 506 139 458 139 333 c 4
 139 208 139 160 174 114 c 4
 198.372219015 83.1261880779 238.556521739 64 290 64 c 4
 341.443359375 64 381.627929688 83.1259765625 406 114 c 0
 436.341173711 153.876971163 440.379866789 195.256941219 440.917454488 287 c 1
 303 287 l 1
 303 357 l 1
 515 357 l 1
 515 333 l 2
 515 204 515 137 467 74 c 0
 431.80078125 29 373.471679688 -6 290 -6 c 4
 206.528409091 -6 148.198863636 29 113 74 c 4
 65 137 65 204 65 333 c 4
 65 462 65 529 113 592 c 4
 148.19921875 637 206.528320312 672 290 672 c 4
EndSplineSet
Validated: 1
Layer: 2
Layer: 3
EndChar
StartChar: H
Encoding: 72 72 20
GlifName: H_
Width: 590
VWidth: 0
Flags: W
HStem: 0 21G<75 149 441 515> 308 70<149 441> 646 20G<75 149 441 515>
VStem: 75 74<0 308 378 666> 441 74<0 308 378 666>
AnchorPoint: "DoubleTop" 0 0 basechar 0
AnchorPoint: "Apos" 0 0 basechar 0
AnchorPoint: "Center" -5 0 basechar 0
AnchorPoint: "Bottom" 295 0 basechar 0
AnchorPoint: "Top" 295 666 basechar 0
LayerCount: 4
Back
Fore
SplineSet
75 666 m 1
 149 666 l 1
 149 378 l 1
 441 378 l 1
 441 666 l 5
 515 666 l 5
 515 0 l 1
 441 0 l 1
 441 308 l 1
 149 308 l 1
 149 0 l 1
 75 0 l 1
 75 666 l 1
EndSplineSet
Validated: 1
Layer: 2
Layer: 3
EndChar
StartChar: J
Encoding: 74 74 22
GlifName: J_
Width: 446
Flags: W
HStem: -6 70<99.5915 254.206> 646 20G<302 376>
VStem: 302 74<113.871 666>
AnchorPoint: "DoubleTop" -5 0 basechar 0
AnchorPoint: "Apos" -5 0 basechar 0
AnchorPoint: "Center" -5 0 basechar 0
AnchorPoint: "Bottom" 191 0 basechar 0
AnchorPoint: "Top" 339 666 basechar 0
LayerCount: 4
Back
Fore
SplineSet
302 666 m 1
 376 666 l 1
 376 261 l 2
 376 179 376 117 335 64 c 0
 297 15 240 -6 181 -6 c 0
 129 -6 78 10 35 43 c 1
 80 99 l 1
 107 76 145 64 181 64 c 0
 221 64 250 78 269 98 c 0
 302 133 302 184 302 261 c 2
 302 666 l 1
EndSplineSet
Validated: 1
Layer: 2
Layer: 3
EndChar
StartChar: K
Encoding: 75 75 34
GlifName: K_
Width: 561
Flags: W
HStem: 0 21G<75 149 416.235 521> 288 70<149 184.438> 646 20G<75 149 401.259 506>
VStem: 75 74<0 288 358 666>
AnchorPoint: "DoubleTop" 0 0 basechar 0
AnchorPoint: "Apos" 0 0 basechar 0
AnchorPoint: "Top" -5 0 basechar 0
AnchorPoint: "Center" -5 0 basechar 0
AnchorPoint: "Bottom" 285 0 basechar 0
LayerCount: 4
Back
Fore
SplineSet
75 666 m 5
 149 666 l 5
 149 358 l 1
 161 358 173 358 185 364 c 0
 199 371 210 386 231 415 c 2
 416 666 l 5
 506 666 l 5
 301 388 l 2
 292 375 279 356 268 343 c 1
 521 0 l 1
 431 0 l 1
 211 298 l 1
 186 288 162 288 149 288 c 1
 149 0 l 1
 75 0 l 1
 75 666 l 5
EndSplineSet
Validated: 1
Layer: 2
SplineSet
149 344 m 1
 385 344 l 1025
  Spiro
    2.2281e-312 2.35542e-312 l
    1.78248e-312 2.10078e-312 h
    2.14322e-312 2.48274e-312 l
    0 0 z
  EndSpiro
EndSplineSet
Layer: 3
EndChar
StartChar: L
Encoding: 76 76 23
Width: 510
Flags: W
HStem: 0 70<156.697 455> 646 20G<75 149>
VStem: 75 74<76.7269 666>
AnchorPoint: "DoubleTop" 0 0 basechar 0
AnchorPoint: "Apos" 212 667 basechar 0
AnchorPoint: "Bottom" 265 0 basechar 0
AnchorPoint: "Center" 265 334 basechar 0
AnchorPoint: "Top" 113 667 basechar 0
LayerCount: 4
Back
Fore
SplineSet
75 666 m 5
 149 666 l 5
 149 155 l 6
 149 114 149 92 166 79 c 4
 178 70 195 70 232 70 c 6
 455 70 l 5
 455 0 l 5
 232 0 l 6
 188 0 148 0 115 28 c 4
 75 63 75 107 75 155 c 6
 75 666 l 5
EndSplineSet
Validated: 1
Layer: 2
Layer: 3
EndChar
StartChar: M
Encoding: 77 77 27
Width: 806
VWidth: 0
Flags: W
HStem: 0 21G<70 144 366 440 662 736> 602 70<187.997 321.964 484.036 618.003>
VStem: 70 74<0 554.034> 366 74<0 554.704> 662 74<0 554.034>
CounterMasks: 1 38
LayerCount: 4
Back
Fore
SplineSet
255 602 m 4
 211 602 178 580 162 549 c 4
 144 514 144 477 144 407 c 6
 144 0 l 5
 70 0 l 5
 70 407 l 6
 70 482 70 531 95 579 c 4
 123 633 181 672 255 672 c 4
 319.665039062 672 372.11328125 642.21875 403 593.670898438 c 5
 433.88671875 642.21875 486.334960938 672 551 672 c 4
 625 672 683 633 711 579 c 4
 736 531 736 482 736 407 c 6
 736 0 l 5
 662 0 l 5
 662 407 l 6
 662 477 662 514 644 549 c 4
 628 580 595 602 551 602 c 4
 507 602 474 580 458 549 c 4
 440 514 440 477 440 407 c 6
 440 0 l 5
 366 0 l 5
 366 407 l 6
 366 477 366 514 348 549 c 4
 332 580 299 602 255 602 c 4
EndSplineSet
Validated: 1
Layer: 2
Layer: 3
EndChar
StartChar: N
Encoding: 78 78 33
Width: 570
Flags: W
HStem: 0 21G<70 144 426 500> 602 70<205.732 364.268>
VStem: 70 74<0 536.501> 426 74<0 536.501>
AnchorPoint: "DoubleTop" -16 0 basechar 0
AnchorPoint: "Apos" -16 0 basechar 0
AnchorPoint: "Center" -19 0 basechar 0
AnchorPoint: "Bottom" 282 0 basechar 0
AnchorPoint: "Top" 282 667 basechar 0
LayerCount: 4
Back
Fore
SplineSet
285 672 m 4
 353 672 407 646 443 608 c 0
 500 548 500 463 500 377 c 2
 500 0 l 1
 426 0 l 1
 426 377 l 2
 426 465 426 519 387 562 c 0
 365 586 329 602 285 602 c 0
 241 602 205 586 183 562 c 0
 144 519 144 465 144 377 c 2
 144 0 l 1
 70 0 l 1
 70 377 l 2
 70 463 70 548 127 608 c 0
 163 646 217 672 285 672 c 4
EndSplineSet
Validated: 1
Layer: 2
Layer: 3
EndChar
StartChar: P
Encoding: 80 80 31
Width: 525
Flags: W
HStem: 0 21G<75 149> 236 70<149 345.114> 596 70<156.697 343.889>
VStem: 75 74<0 236 306 589.273> 401 74<363.343 538.657>
LayerCount: 4
Back
Fore
SplineSet
75 511 m 6
 75 559 75 603 115 638 c 4
 148 666 188 666 232 666 c 6
 238 666 l 2
 290 666 357 666 413 612 c 0
 475 552 475 466 475 451 c 0
 475 436 475 350 413 290 c 0
 357 236 290 236 228 236 c 2
 149 236 l 1
 149 0 l 1
 75 0 l 1
 75 511 l 6
149 511 m 6
 149 306 l 1
 228 306 l 2
 283 306 326 306 360 339 c 0
 401 379 401 441 401 451 c 0
 401 461 401 523 360 563 c 0
 326 596 283 596 238 596 c 2
 232 596 l 6
 195 596 178 596 166 587 c 4
 149 574 149 552 149 511 c 6
EndSplineSet
Validated: 1
Layer: 2
Layer: 3
EndChar
StartChar: R
Encoding: 82 82 32
Width: 560
Flags: W
HStem: 0 21G<75 149 406.705 495> 256 70<149 307.157> 596 70<156.697 356.952>
VStem: 75 74<0 256 326 589.273> 411 74<381.316 541.502>
AnchorPoint: "DoubleTop" 0 0 basechar 0
AnchorPoint: "Apos" 0 0 basechar 0
AnchorPoint: "Center" -5 0 basechar 0
AnchorPoint: "Bottom" 277 0 basechar 0
AnchorPoint: "Top" 255 667 basechar 0
LayerCount: 4
Back
Fore
SplineSet
75 511 m 2
 75 559 75 603 115 638 c 0
 148 666 188 666 232 666 c 2
 238 666 l 2
 299 666 358 666 412 623 c 0
 453 591 485 534 485 461 c 0
 485 373 440 308 377 277 c 1
 495 0 l 1
 415 0 l 1
 308 258 l 1
 290 256 273 256 238 256 c 2
 149 256 l 1
 149 0 l 1
 75 0 l 1
 75 511 l 2
149 511 m 2
 149 326 l 1
 238 326 l 2
 293 326 331 326 365 353 c 0
 391 374 411 412 411 461 c 0
 411 510 391 548 365 569 c 0
 331 596 293 596 238 596 c 2
 232 596 l 2
 195 596 178 596 166 587 c 0
 149 574 149 552 149 511 c 2
EndSplineSet
Validated: 1
Layer: 2
Layer: 3
EndChar
StartChar: S
Encoding: 83 83 35
GlifName: S_
Width: 510
Flags: W
HStem: -6 70<144.299 331.498> 602 70<163.872 348.375>
VStem: 49 74<443.227 561.61> 386 74<115.775 244.17>
AnchorPoint: "DoubleTop" -6 0 basechar 0
AnchorPoint: "Apos" -6 0 basechar 0
AnchorPoint: "Center" -6 0 basechar 0
AnchorPoint: "Bottom" 247 0 basechar 0
AnchorPoint: "Top" 247 666 basechar 0
LayerCount: 4
Back
Fore
SplineSet
247 672 m 4
 318 672 385 649 433 612 c 5
 389 556 l 5
 355 583 303 602 247 602 c 4
 158 602 123 551 123 503 c 4
 123 473 138 444 163 424 c 4
 187 404 226 392 259 382 c 4
 303 369 352 355 394 319 c 4
 429 289 460 238 460 180 c 4
 460 89 391 -6 247 -6 c 4
 173 -6 99 18 43 66 c 5
 90 120 l 5
 133 82 191 64 247 64 c 4
 347 64 386 126 386 180 c 4
 386 211 370 246 342 269 c 4
 315 292 274 304 228 318 c 4
 191 329 152 340 111 374 c 4
 77 402 49 450 49 501 c 4
 49 596 123 672 247 672 c 4
EndSplineSet
Validated: 1
Layer: 2
Layer: 3
EndChar
StartChar: T
Encoding: 84 84 29
GlifName: T_
Width: 530
VWidth: 0
Flags: W
HStem: 0 21G<228 302> 596 70<40 228 302 490>
VStem: 228 74<0 596>
AnchorPoint: "DoubleTop" -15 0 basechar 0
AnchorPoint: "Apos" -15 0 basechar 0
AnchorPoint: "Center" 20 0 basechar 0
AnchorPoint: "Bottom" 265 0 basechar 0
AnchorPoint: "Top" 265 666 basechar 0
LayerCount: 4
Back
Fore
SplineSet
40 666 m 1
 490 666 l 1
 490 596 l 1
 302 596 l 1
 302 0 l 1
 228 0 l 1
 228 596 l 1
 40 596 l 1
 40 666 l 1
EndSplineSet
Validated: 1
Layer: 2
Layer: 3
EndChar
StartChar: U
Encoding: 85 85 24
GlifName: U_
Width: 554
Flags: W
HStem: -6 70<205.732 364.268> 646 20G<70 144 426 500>
VStem: 70 74<129.499 666> 426 74<129.499 666>
LayerCount: 4
Back
Fore
SplineSet
70 666 m 5
 144 666 l 5
 144 279 l 6
 144 198 144 142 178 104 c 4
 202 77 238 64 277 64 c 4
 316 64 352 77 376 104 c 4
 410 142 410 198 410 279 c 6
 410 666 l 5
 484 666 l 5
 484 279 l 6
 484 189 484 117 432 58 c 4
 396 17 339 -6 277 -6 c 4
 215 -6 158 17 122 58 c 4
 70 117 70 189 70 279 c 6
 70 666 l 5
EndSplineSet
Validated: 1
Layer: 2
Layer: 3
EndChar
StartChar: V
Encoding: 86 86 25
Width: 594
Flags: W
HStem: -6 70<271.993 322.007> 646 20G<35 116.373 477.627 559>
VStem: 35 76<639.944 666>
LayerCount: 4
Back
Fore
SplineSet
297 64 m 0
 305 64 313 67 318 72 c 0
 325 79 329 91 339 130 c 2
 483 666 l 1
 559 666 l 1
 411 113 l 2
 396 57 387 38 370 22 c 0
 350 3 323 -6 297 -6 c 0
 271 -6 244 3 224 22 c 0
 207 38 198 57 183 113 c 2
 35 666 l 1
 111 666 l 1
 255 130 l 2
 265 91 269 79 276 72 c 0
 281 67 289 64 297 64 c 0
EndSplineSet
Validated: 1
Layer: 2
Layer: 3
EndChar
StartChar: W
Encoding: 87 87 26
Width: 806
VWidth: 0
Flags: W
HStem: -6 70<187.997 321.964 484.036 618.003> 646 20G<70 144 366 440 662 736>
VStem: 70 74<111.966 666> 366 74<111.296 666> 662 74<111.966 666>
CounterMasks: 1 38
AnchorPoint: "DoubleTop" 23 0 basechar 0
AnchorPoint: "Apos" 23 0 basechar 0
AnchorPoint: "Bottom" 33 0 basechar 0
AnchorPoint: "Center" 33 0 basechar 0
AnchorPoint: "Top" 423 667 basechar 0
LayerCount: 4
Back
Fore
SplineSet
255 64 m 4
 299 64 332 86 348 117 c 4
 366 152 366 189 366 259 c 6
 366 666 l 5
 440 666 l 5
 440 259 l 6
 440 189 440 152 458 117 c 4
 474 86 507 64 551 64 c 4
 595 64 628 86 644 117 c 4
 662 152 662 189 662 259 c 6
 662 666 l 5
 736 666 l 5
 736 259 l 6
 736 184 736 135 711 87 c 4
 683 33 625 -6 551 -6 c 4
 486.334584542 -6 433.88671875 23.78125 403 72.3291015625 c 5
 372.11328125 23.78125 319.665415458 -6 255 -6 c 4
 181 -6 123 33 95 87 c 4
 70 135 70 184 70 259 c 6
 70 666 l 5
 144 666 l 5
 144 259 l 6
 144 189 144 152 162 117 c 4
 178 86 211 64 255 64 c 4
EndSplineSet
Validated: 1
Layer: 2
Layer: 3
EndChar
StartChar: X
Encoding: 88 88 36
Width: 570
Flags: W
HStem: 0 21G<45 138.286 431.714 525> 646 20G<50 143.333 426.667 520>
LayerCount: 4
Back
Fore
SplineSet
50 666 m 5
 132 666 l 5
 285 396 l 1
 438 666 l 5
 520 666 l 5
 332 338 l 1
 525 0 l 1
 443 0 l 1
 285 280 l 1
 127 0 l 1
 45 0 l 1
 238 338 l 1
 50 666 l 5
EndSplineSet
Validated: 1
Layer: 2
Layer: 3
EndChar
StartChar: Y
Encoding: 89 89 37
Width: 556
VWidth: 0
Flags: W
HStem: 0 21G<241 315> 646 20G<35 125.907 430.093 521>
VStem: 241 74<0 321.713>
AnchorPoint: "DoubleTop" 8.28027 0 basechar 0
AnchorPoint: "Apos" 8.28027 0 basechar 0
AnchorPoint: "Bottom" 18.2803 0 basechar 0
AnchorPoint: "Center" 18.2803 0 basechar 0
AnchorPoint: "Top" 278.28 667 basechar 0
LayerCount: 4
Back
Fore
SplineSet
278 374 m 0
 283 374 288 375 294 381 c 0
 301 388 308 399 334 452 c 2
 440 666 l 5
 521 666 l 5
 400 423 l 2
 364 351 351 326 315 309 c 1
 315 0 l 1
 241 0 l 1
 241 309 l 1
 205 326 192 351 156 423 c 2
 35 666 l 5
 116 666 l 5
 222 452 l 2
 248 399 255 388 262 381 c 0
 268 375 273 374 278 374 c 0
EndSplineSet
Validated: 1
Layer: 2
Layer: 3
EndChar
StartChar: Z
Encoding: 90 90 38
Width: 540
VWidth: 0
Flags: W
HStem: 0 70<135.52 480> 596 70<70 402.694>
VStem: 51 74<76.8536 141.847> 405 74<523.251 592.367>
AnchorPoint: "DoubleTop" 0 0 basechar 0
AnchorPoint: "Apos" 0 0 basechar 0
AnchorPoint: "Center" 5 0 basechar 0
AnchorPoint: "Bottom" 270 0 basechar 0
AnchorPoint: "Top" 270 667 basechar 0
LayerCount: 4
Back
Fore
SplineSet
70 666 m 1
 320 666 l 2
 376 666 419 666 452 632 c 0
 467 617 479 595 479 565 c 0
 479 523 455 494 409 442 c 2
 181 182 l 2
 140 136 125 118 125 101 c 0
 125 91 128 85 135 79 c 0
 146 70 163 70 210 70 c 2
 480 70 l 1
 480 0 l 1
 210 0 l 2
 158 0 119 0 88 25 c 0
 67 42 51 67 51 101 c 0
 51 144 76 172 123 226 c 2
 346 480 l 2
 389 529 405 546 405 565 c 0
 405 576 401 581 396 586 c 0
 386 596 365 596 320 596 c 2
 70 596 l 1
 70 666 l 1
EndSplineSet
Validated: 1
Layer: 2
Layer: 3
EndChar
StartChar: bracketleft
Encoding: 91 91 72
GlifName: bracketleft
Width: 289
VWidth: 0
Flags: W
HStem: -185 56<145 239> 724 56<145 239>
VStem: 85 154<-185 -129 724 780> 85 60<-129 724>
LayerCount: 4
Back
Fore
SplineSet
85 780 m 1xe0
 239 780 l 1
 239 724 l 1xe0
 145 724 l 1
 145 -129 l 1xd0
 239 -129 l 1
 239 -185 l 1
 85 -185 l 1
 85 780 l 1xe0
EndSplineSet
Validated: 1
Layer: 2
Layer: 3
EndChar
StartChar: backslash
Encoding: 92 92 67
GlifName: backslash
Width: 342
VWidth: 0
Flags: W
VStem: 20 302
LayerCount: 4
Back
Fore
SplineSet
20 740 m 1
 82 740 l 1
 322 -144 l 1
 260 -144 l 1
 20 740 l 1
EndSplineSet
Validated: 1
Layer: 2
Layer: 3
EndChar
StartChar: asciicircum
Encoding: 94 94 113
GlifName: asciicircum
Width: 368
Flags: W
HStem: 546 120
VStem: 50 268
AnchorPoint: "Top" 184 477 mark 0
LayerCount: 4
Back
Fore
SplineSet
145 666 m 5
 223 666 l 5
 318 546 l 1
 252 546 l 1
 184 622 l 5
 116 546 l 1
 50 546 l 1
 145 666 l 5
EndSplineSet
Validated: 1
Layer: 2
Layer: 3
EndChar
StartChar: underscore
Encoding: 95 95 130
GlifName: underscore
Width: 440
Flags: W
HStem: -58 58<35 405>
LayerCount: 4
Back
Fore
SplineSet
35 0 m 1
 405 0 l 1
 405 -58 l 1
 35 -58 l 1
 35 0 l 1
EndSplineSet
Validated: 1
Layer: 2
Layer: 3
EndChar
StartChar: grave
Encoding: 96 96 111
GlifName: grave
Width: 253
Flags: W
HStem: 546 120
VStem: 50 153
AnchorPoint: "Top" 157 477 mark 0
LayerCount: 4
Back
Fore
SplineSet
50 666 m 29
 128 666 l 29
 203 546 l 1
 137 546 l 1
 50 666 l 29
EndSplineSet
Validated: 1
Layer: 2
Layer: 3
EndChar
StartChar: a
Encoding: 97 97 47
Width: 459
Flags: W
HStem: -6 66<141.607 305.43> 229 62<143.661 333> 418 66<113.67 291.251>
VStem: 40 70<89.6848 197.121> 333 70<88.2812 229 291 375.355>
AnchorPoint: "DoubleTop" -5 0 basechar 0
AnchorPoint: "Apos" -5 0 basechar 0
AnchorPoint: "Center" -5 0 basechar 0
AnchorPoint: "Bottom" 213 0 basechar 0
AnchorPoint: "Top" 218 477 basechar 0
LayerCount: 4
Back
Fore
SplineSet
218 484 m 4
 280 484 333 462 368 415 c 4
 403 368 403 311 403 240 c 6
 403 205 l 6
 403 137 403 98 376 58 c 4
 346 14 293 -6 227 -6 c 4
 180 -6 136 3 101 27 c 4
 67 50 40 92 40 142 c 4
 40 188 62 228 98 255 c 4
 146 291 206 291 268 291 c 6
 333 291 l 5
 333 310 332 348 311 377 c 4
 291 404 260 418 218 418 c 4
 176 418 133 405 89 387 c 5
 64 448 l 5
 111 468 161 484 218 484 c 4
268 229 m 6
 209 229 171 229 141 206 c 4
 124 193 110 171 110 142 c 4
 110 117 122 96 139 83 c 4
 163 65 194 60 227 60 c 4
 270 60 300 70 318 95 c 4
 333 116 333 148 333 205 c 6
 333 229 l 5
 268 229 l 6
EndSplineSet
Validated: 1
Layer: 2
Layer: 3
EndChar
StartChar: b
Encoding: 98 98 55
Width: 485
VWidth: 0
Flags: W
HStem: -6 66<166.952 308.836> 418 66<174.319 315.56> 646 20G<60 130>
VStem: 60 70<98.5005 370.799 428 666> 360 70<114.625 370.994>
LayerCount: 4
Back
Fore
SplineSet
245 418 m 0
 207 418 178 404 160 383 c 0
 130 348 130 293 130 219 c 0
 130 166 130 123 154 94 c 0
 174 70 204 60 235 60 c 0
 269 60 303 72 325 96 c 0
 360 134 360 186 360 237 c 0
 360 293 360 348 330 383 c 0
 312 404 283 418 245 418 c 0
250 484 m 0
 309 484 356 460 385 425 c 0
 430 371 430 305 430 237 c 0
 430 176 430 106 374 49 c 0
 343 18 295 -6 235 -6 c 0
 172 -6 122 21 94 60 c 0
 60 107 60 157 60 232 c 2
 60 666 l 1
 130 666 l 1
 130 428 l 1
 157 463 201 484 250 484 c 0
EndSplineSet
Validated: 1
Layer: 2
Layer: 3
EndChar
StartChar: d
Encoding: 100 100 49
Width: 485
VWidth: 0
Flags: W
HStem: -6 66<176.164 318.048> 418 66<169.44 310.681> 646 20G<355 425>
VStem: 55 70<114.625 370.994> 355 70<98.5005 370.799 428 666>
AnchorPoint: "DoubleTop" 0 0 basechar 0
AnchorPoint: "Center" 0 0 basechar 0
AnchorPoint: "Top" 0 0 basechar 0
AnchorPoint: "Apos" 488 667 basechar 0
AnchorPoint: "Bottom" 240 0 basechar 0
LayerCount: 4
Back
Fore
SplineSet
235 484 m 4
 284 484 328 463 355 428 c 5
 355 666 l 5
 425 666 l 5
 425 521.333333333 425 376.666666667 425 232 c 4
 425 157 425 107 391 60 c 4
 363 21 313 -6 250 -6 c 4
 190 -6 142 18 111 49 c 4
 55 106 55 176 55 237 c 4
 55 305 55 371 100 425 c 4
 129 460 176 484 235 484 c 4
355 219 m 4
 355 293 355 348 325 383 c 4
 307 404 278 418 240 418 c 4
 202 418 173 404 155 383 c 4
 125 348 125 293 125 237 c 4
 125 186 125 134 160 96 c 4
 182 72 216 60 250 60 c 4
 281 60 311 70 331 94 c 4
 355 123 355 166 355 219 c 4
EndSplineSet
Validated: 524289
Layer: 2
Layer: 3
EndChar
StartChar: e
Encoding: 101 101 57
Width: 469
Flags: W
HStem: -6 66<170.374 352.843> 218 62<120 335.743> 418 66<168.621 329.671>
VStem: 50 70<111.199 218 280 368.463> 354 70<298.314 393.74>
AnchorPoint: "DoubleTop" -1.00195 0 basechar 0
AnchorPoint: "Apos" -1.00195 0 basechar 0
AnchorPoint: "Center" 3.99805 0 basechar 0
AnchorPoint: "Bottom" 249 0 basechar 0
AnchorPoint: "Top" 249 477 basechar 0
LayerCount: 4
Back
Fore
SplineSet
354 346 m 0
 354 364 346 382 333 394 c 0
 311 414 280 418 254 418 c 0
 214 418 174 408 149 380 c 0
 124 352 121 308 120 280 c 1
 248 280 l 2
 282 280 308 280 331 297 c 0
 344 307 354 327 354 346 c 0
134 124 m 0
 153 83 192 60 250 60 c 4
 296 60 338 72 376 93 c 1
 406 34 l 5
 360 9 305 -6 250 -6 c 4
 160 -6 97 36 69 100 c 0
 51 141 50 185 50 239 c 0
 50 306 50 365 90 416 c 0
 126 462 187 484 254 484 c 0
 303 484 348 472 381 442 c 0
 408 417 424 382 424 346 c 0
 424 312 410 277 379 252 c 0
 337 218 287 218 248 218 c 2
 120 218 l 1
 120 184 122 150 134 124 c 0
EndSplineSet
Validated: 1
Layer: 2
Layer: 3
EndChar
StartChar: f
Encoding: 102 102 60
Width: 309
Flags: W
HStem: 0 21G<65 135> 416 62<135 245> 606 66<153.557 256.564>
VStem: 65 70<0 416 478 586.788>
LayerCount: 4
Back
Fore
SplineSet
-919 333 m 1048,0,-1
206 672 m 0,1,-1
 231 672 252 667 271 662 c 1,4,-1
 253 598 l 1,5,-1
 234 603 218 606 206 606 c 0,8,-1
 185 606 165 599 152 583 c 0,11,-1
 135 562 135 536 135 482 c 2,14,-1
 135 478 l 1,15,-1
 245 478 l 1,16,-1
 245 416 l 1,17,-1
 135 416 l 1,18,-1
 135 0 l 1,19,-1
 65 0 l 1,20,-1
 65 462 l 2,21,-1
 65 543 65 582 94 620 c 0,24,-1
 120 654 161 672 206 672 c 0,1,-1
EndSplineSet
Validated: 1
Layer: 2
Layer: 3
EndChar
StartChar: g
Encoding: 103 103 59
Width: 485
Flags: W
HStem: -189 66<130.264 310.216> -6 66<169.44 310.681> 418 66<169.986 314.552>
VStem: 55 70<107.006 370.169> 355 70<-77.2182 50 107.201 378.9>
AnchorPoint: "DoubleTop" 0 0 basechar 0
AnchorPoint: "Apos" 0 0 basechar 0
AnchorPoint: "Center" 0 0 basechar 0
AnchorPoint: "Bottom" 240 -185 basechar 0
AnchorPoint: "Top" 240 477 basechar 0
LayerCount: 4
Back
Fore
SplineSet
242 418 m 0
 205 418 175 405 157 385 c 0
 125 349 125 298 125 241 c 0
 125 185 125 130 155 95 c 0
 173 74 202 60 240 60 c 0
 278 60 307 74 325 95 c 0
 355 130 355 185 355 259 c 0
 355 312 355 354 331 382 c 0
 312 405 278 418 242 418 c 0
242 484 m 4
 288 484 346 470 385 424 c 0
 425 377 425 330 425 249 c 2
 425 45 l 2
 425 -26 425 -81 379 -131 c 0
 347 -166 296 -189 230 -189 c 0
 181 -189 128 -177 84 -153 c 1
 113 -93 l 1
 146 -111 188 -123 230 -123 c 0
 279 -123 312 -106 331 -82 c 0
 355 -52 355 -16 355 45 c 2
 355 50 l 1
 328 15 284 -6 235 -6 c 0
 176 -6 129 18 100 53 c 0
 55 107 55 173 55 241 c 0
 55 303 55 373 103 427 c 0
 134 461 182 484 242 484 c 4
EndSplineSet
Validated: 1
Layer: 2
Layer: 3
EndChar
StartChar: i
Encoding: 105 105 52
Width: 210
VWidth: 0
Flags: W
HStem: 0 21G<70 140> 550 94<64.5618 145.438>
VStem: 58 94<556.897 637.103> 70 70<0 478>
AnchorPoint: "Top" 18 23 basechar 0
AnchorPoint: "Bottom" 102 0 basechar 0
AnchorPoint: "Center" -1 0 basechar 0
AnchorPoint: "Apos" -1 0 basechar 0
AnchorPoint: "DoubleTop" -1 0 basechar 0
LayerCount: 4
Back
Fore
SplineSet
105 644 m 4xe0
 132 644 152 625 152 597 c 4
 152 569 132 550 105 550 c 4
 78 550 58 569 58 597 c 4
 58 625 78 644 105 644 c 4xe0
70 0 m 5xd0
 70 478 l 5
 140 478 l 5
 140 0 l 5
 70 0 l 5xd0
EndSplineSet
Validated: 1
Layer: 2
Layer: 3
EndChar
StartChar: k
Encoding: 107 107 68
GlifName: k
Width: 458
Flags: W
HStem: 0 21G<65 135 323.83 423> 218 66<135 179.344> 647 20G<65 135>
VStem: 65 70<0 218 284 667>
AnchorPoint: "DoubleTop" 0 0 basechar 0
AnchorPoint: "Apos" 0 0 basechar 0
AnchorPoint: "Top" -8 0 basechar 0
AnchorPoint: "Center" -8 0 basechar 0
AnchorPoint: "Bottom" 229 0 basechar 0
LayerCount: 4
Back
Fore
SplineSet
65 667 m 1
 135 667 l 1
 135 284 l 1
 149 284 162 284 175 294 c 0
 185 302 193 312 208 331 c 2
 322 477 l 1
 408 477 l 1
 266 294 l 2
 253 277 248 270 238 260 c 1
 423 0 l 1
 338 0 l 1
 180 223 l 1
 166 219 152 218 135 218 c 1
 135 0 l 1
 65 0 l 1
 65 667 l 1
EndSplineSet
Validated: 1
Layer: 2
Layer: 3
EndChar
StartChar: l
Encoding: 108 108 51
GlifName: l
Width: 200
VWidth: 0
Flags: W
HStem: 0 21G<65 135> 647 20G<65 135>
VStem: 65 70<0 667>
AnchorPoint: "DoubleTop" 0 0 basechar 0
AnchorPoint: "Center" 136 334 basechar 0
AnchorPoint: "Apos" 199 667 basechar 0
AnchorPoint: "Bottom" 100 0 basechar 0
AnchorPoint: "Top" 100 667 basechar 0
LayerCount: 4
Back
Fore
SplineSet
65 667 m 1
 135 667 l 1
 135 0 l 1
 65 0 l 1
 65 667 l 1
EndSplineSet
Validated: 1
Layer: 2
Layer: 3
EndChar
StartChar: m
Encoding: 109 109 46
Width: 730
Flags: W
HStem: 0 21G<60 130 330 400 600 670> 418 66<165.355 294.711 435.375 565.089>
VStem: 60 70<0 382.639> 330 70<0 382.639> 600 70<0 382.639>
CounterMasks: 1 38
LayerCount: 4
Back
Fore
SplineSet
235 484 m 0
 282.905454132 484 335.056469987 466.13671875 369.466796875 411.796875 c 5
 402.873442552 466.271484375 456.831802604 484 505 484 c 0
 550 484 599 468 633 425 c 0
 670 378 670 333 670 251 c 2
 670 0 l 1
 600 0 l 1
 600 251 l 2
 600 324 600 355 577 384 c 0
 558 408 530 418 500 418 c 0
 470 418 442 408 423 384 c 0
 400 355 400 324 400 251 c 2
 400 0 l 1
 330 0 l 1
 330 251 l 2
 330 324 330 355 307 384 c 0
 288 408 260 418 230 418 c 0
 200 418 172 408 153 384 c 0
 130 355 130 324 130 251 c 2
 130 0 l 1
 60 0 l 1
 60 251 l 2
 60 333 60 378 98 425 c 0
 133 468 187 484 235 484 c 0
EndSplineSet
Validated: 524289
Layer: 2
Layer: 3
EndChar
StartChar: n
Encoding: 110 110 58
Width: 480
Flags: W
HStem: 0 21G<60 130 350 420> 418 66<171.016 308.984>
VStem: 60 70<0 375.79> 350 70<0 375.79>
AnchorPoint: "DoubleTop" -5 0 basechar 0
AnchorPoint: "Center" -5 0 basechar 0
AnchorPoint: "Apos" 100 667 basechar 0
AnchorPoint: "Bottom" 237 0 basechar 0
AnchorPoint: "Top" 237 477 basechar 0
LayerCount: 4
Back
Fore
SplineSet
240 484 m 4
 293 484 344 464 377 425 c 0
 420 374 420 320 420 246 c 2
 420 0 l 1
 350 0 l 1
 350 246 l 2
 350 313 350 352 322 384 c 0
 302 407 272 418 240 418 c 0
 208 418 178 407 158 384 c 0
 130 352 130 313 130 246 c 2
 130 0 l 1
 60 0 l 1
 60 246 l 2
 60 320 60 374 103 425 c 0
 136 464 187 484 240 484 c 4
EndSplineSet
Validated: 1
Layer: 2
Layer: 3
EndChar
StartChar: o
Encoding: 111 111 53
Width: 490
Flags: W
HStem: -6 66<172.319 317.681> 418 66<172.319 317.681>
VStem: 55 70<108.461 369.539> 365 70<108.461 369.539>
AnchorPoint: "DoubleTop" 0 0 basechar 0
AnchorPoint: "Apos" 0 0 basechar 0
AnchorPoint: "Center" 0 0 basechar 0
AnchorPoint: "Bottom" 245 0 basechar 0
AnchorPoint: "Top" 245 477 basechar 0
LayerCount: 4
Back
Fore
SplineSet
245 418 m 4
 205 418 170 403 150 375 c 4
 125 340 125 293 125 239 c 4
 125 185 125 138 150 103 c 4
 170 75 205 60 245 60 c 4
 285 60 320 75 340 103 c 4
 365 138 365 185 365 239 c 4
 365 293 365 340 340 375 c 4
 320 403 285 418 245 418 c 4
245 484 m 4
 306 484 365 460 400 409 c 4
 435 358 435 297 435 239 c 4
 435 181 435 120 400 69 c 4
 365 18 306 -6 245 -6 c 4
 184 -6 125 18 90 69 c 4
 55 120 55 181 55 239 c 4
 55 297 55 358 90 409 c 4
 125 460 184 484 245 484 c 4
EndSplineSet
Validated: 1
Layer: 2
Layer: 3
EndChar
StartChar: p
Encoding: 112 112 63
Width: 485
VWidth: 0
Flags: W
HStem: -6 66<174.319 315.56> 418 66<170.448 315.014>
VStem: 60 70<-183 50 107.201 378.9> 360 70<107.006 370.169>
AnchorPoint: "DoubleTop" 0 0 basechar 0
AnchorPoint: "Center" 0 0 basechar 0
AnchorPoint: "Top" 0 0 basechar 0
AnchorPoint: "Apos" 488 667 basechar 0
AnchorPoint: "Bottom" 240 0 basechar 0
LayerCount: 4
Back
Fore
SplineSet
243 418 m 0
 207 418 173 405 154 382 c 0
 130 354 130 312 130 259 c 0
 130 185 130 130 160 95 c 0
 178 74 207 60 245 60 c 0
 283 60 312 74 330 95 c 0
 360 130 360 185 360 241 c 0
 360 298 360 349 328 385 c 0
 310 405 280 418 243 418 c 0
243 484 m 4
 303 484 351 461 382 427 c 0
 430 373 430 303 430 241 c 0
 430 173 430 107 385 53 c 0
 356 18 309 -6 250 -6 c 0
 201 -6 157 15 130 50 c 1
 130 -183 l 1
 60 -183 l 1
 60 249 l 2
 60 330 60 377 100 424 c 0
 139 470 197 484 243 484 c 4
EndSplineSet
Validated: 1
Layer: 2
Layer: 3
EndChar
StartChar: q
Encoding: 113 113 64
Width: 485
VWidth: 0
Flags: W
HStem: -6 66<169.44 310.681> 418 66<169.986 314.552>
VStem: 55 70<107.006 370.169> 355 70<-183 50 107.201 378.9>
AnchorPoint: "DoubleTop" 0 0 basechar 0
AnchorPoint: "Center" 0 0 basechar 0
AnchorPoint: "Top" 0 0 basechar 0
AnchorPoint: "Apos" 488 667 basechar 0
AnchorPoint: "Bottom" 230 0 basechar 0
LayerCount: 4
Back
Fore
SplineSet
242 418 m 4
 205 418 175 405 157 385 c 4
 125 349 125 298 125 241 c 4
 125 185 125 130 155 95 c 4
 173 74 202 60 240 60 c 4
 278 60 307 74 325 95 c 4
 355 130 355 185 355 259 c 4
 355 312 355 354 331 382 c 4
 312 405 278 418 242 418 c 4
242 484 m 4
 288 484 346 470 385 424 c 4
 425 377 425 330 425 249 c 6
 425 -183 l 1
 355 -183 l 1
 355 50 l 5
 328 15 284 -6 235 -6 c 4
 176 -6 129 18 100 53 c 4
 55 107 55 173 55 241 c 4
 55 303 55 373 103 427 c 4
 134 461 182 484 242 484 c 4
EndSplineSet
Validated: 1
Layer: 2
Layer: 3
EndChar
StartChar: r
Encoding: 114 114 62
Width: 339
Flags: W
HStem: 0 21G<60 130> 417 66<174.401 294.277>
VStem: 60 70<0 368.078>
LayerCount: 4
Back
Fore
SplineSet
245 417 m 0
 222 417 186 411 162 384 c 0
 130 348 130 294 130 238 c 6
 130 0 l 1
 60 0 l 1
 60 238 l 6
 60 292.999023438 60 357 95 409 c 0
 128 458 185 483 245 483 c 0
 267 483 288 480 311 473 c 1
 290 410 l 1
 274 415 259 417 245 417 c 0
EndSplineSet
Validated: 1
Layer: 2
Layer: 3
EndChar
StartChar: s
Encoding: 115 115 48
Width: 424
VWidth: 0
Flags: W
HStem: -6 66<94.37 289.377> 418 66<137.781 319.041>
VStem: 46 70<305.99 396.901> 314 70<85.2982 180.465>
AnchorPoint: "DoubleTop" 8 0 basechar 0
AnchorPoint: "Apos" 8 0 basechar 0
AnchorPoint: "Center" 0 0 basechar 0
AnchorPoint: "Bottom" 209 0 basechar 0
AnchorPoint: "Top" 209 477 basechar 0
LayerCount: 4
Back
Fore
SplineSet
210 484 m 4
 259 484 312 473 361 451 c 5
 334 390 l 5
 295 408 252 418 210 418 c 4
 137 418 116 380 116 352 c 4
 116 333 126 312 147 299 c 4
 166 287 189 282 219 277 c 4
 265 269 294 262 326 240 c 4
 364 214 384 172 384 132 c 4
 384 67 333 -6 210 -6 c 4
 156 -6 97 5 45 31 c 5
 74 91 l 5
 114 70 162 60 210 60 c 4
 300 60 314 109 314 132 c 4
 314 149 307 169 288 184 c 4
 271 197 254 204 207 212 c 4
 177 217 145 223 115 240 c 4
 72 265 46 305 46 352 c 4
 46 410 92 484 210 484 c 4
EndSplineSet
Validated: 1
Layer: 2
Layer: 3
EndChar
StartChar: t
Encoding: 116 116 65
Width: 298
Flags: W
HStem: -6 66<140.877 250.284> 416 62<130 240>
VStem: 60 70<71.3266 416 478 591>
AnchorPoint: "DoubleTop" -65 0 basechar 0
AnchorPoint: "Apos" 261 667 basechar 0
AnchorPoint: "Top" -50 0 basechar 0
AnchorPoint: "Center" -50 0 basechar 0
AnchorPoint: "Bottom" 176 0 basechar 0
LayerCount: 4
Back
Fore
SplineSet
130 182 m 2
 130 114 130 96 141 81 c 0
 152 66 171 60 191 60 c 0
 207 60 226 64 244 72 c 1
 270 11 l 1
 243 0 217 -6 191 -6 c 0
 147 -6 114 10 93 32 c 0
 60 67 60 100 60 182 c 2
 60 591 l 1
 130 591 l 1
 130 478 l 1
 240 478 l 1
 240 416 l 1
 130 416 l 1
 130 182 l 2
EndSplineSet
Validated: 1
Layer: 2
Layer: 3
EndChar
StartChar: u
Encoding: 117 117 66
Width: 480
Flags: W
HStem: -6 66<171.763 308.237>
VStem: 60 70<104.934 478> 350 70<104.934 478>
AnchorPoint: "DoubleTop" 0 0 basechar 0
AnchorPoint: "Apos" 0 0 basechar 0
AnchorPoint: "Center" -15 0 basechar 0
AnchorPoint: "Bottom" 237 0 basechar 0
AnchorPoint: "Top" 237 476 basechar 0
LayerCount: 4
Back
Fore
SplineSet
60 478 m 5
 130 478 l 5
 130 239 l 6
 130 178 130 134 153 101 c 4
 174 71 209 60 240 60 c 4
 271 60 306 71 327 101 c 4
 350 134 350 178 350 239 c 6
 350 478 l 5
 420 478 l 5
 420 239 l 6
 420 168 420 114 385 64 c 4
 352 17 298 -6 240 -6 c 4
 182 -6 128 17 95 64 c 4
 60 114 60 168 60 239 c 6
 60 478 l 5
EndSplineSet
Validated: 1
Layer: 2
Layer: 3
EndChar
StartChar: v
Encoding: 118 118 45
Width: 476
Flags: W
HStem: -6 66<214.928 261.072>
VStem: 30 72<452.406 478>
AnchorPoint: "DoubleTop" -1.74805 0 basechar 0
AnchorPoint: "Apos" -1.74805 0 basechar 0
AnchorPoint: "Bottom" -11.748 0 basechar 0
AnchorPoint: "Center" -11.748 0 basechar 0
AnchorPoint: "Top" 238 476 basechar 0
LayerCount: 4
Back
Fore
SplineSet
238 60 m 0
 244 60 252 63 258 70 c 0
 264 77 267 86 278 127 c 2
 374 478 l 1
 446 478 l 1
 346 111 l 2
 330 52 322 38 307 23 c 0
 288 4 265 -6 238 -6 c 0
 211 -6 188 4 169 23 c 0
 154 38 146 52 130 111 c 2
 30 478 l 1
 102 478 l 1
 198 127 l 2
 209 86 212 77 218 70 c 0
 224 63 232 60 238 60 c 0
EndSplineSet
Validated: 1
Layer: 2
Layer: 3
EndChar
StartChar: w
Encoding: 119 119 44
Width: 730
Flags: W
HStem: -6 66<165.252 294.502 435.498 564.748>
VStem: 60 70<97.5456 478> 330 70<96.2239 478> 600 70<97.5456 478>
CounterMasks: 1 70
AnchorPoint: "DoubleTop" 15 0 basechar 0
AnchorPoint: "Apos" 15 0 basechar 0
AnchorPoint: "Bottom" 15 0 basechar 0
AnchorPoint: "Center" 15 0 basechar 0
AnchorPoint: "Top" 375 477 basechar 0
LayerCount: 4
Back
Fore
SplineSet
230 -6 m 4
 183 -6 136 10 103 47 c 4
 60 95 60 152 60 229 c 6
 60 478 l 5
 130 478 l 5
 130 229 l 6
 130 159 130 119 157 89 c 4
 175 69 203 60 230 60 c 4
 257 60 285 69 303 89 c 4
 330 119 330 159 330 229 c 6
 330 478 l 5
 400 478 l 5
 400 229 l 6
 400 159 400 119 427 89 c 4
 445 69 473 60 500 60 c 4
 527 60 555 69 573 89 c 4
 600 119 600 159 600 229 c 6
 600 478 l 5
 670 478 l 5
 670 229 l 6
 670 152 670 95 627 47 c 4
 594 10 547 -6 500 -6 c 4
 439 -6 394 19 365 61 c 5
 336 19 291 -6 230 -6 c 4
EndSplineSet
Validated: 1
Layer: 2
Layer: 3
EndChar
StartChar: x
Encoding: 120 120 69
GlifName: x
Width: 452
VWidth: 0
Flags: W
HStem: 0 21G<40 128.658 321.556 412>
LayerCount: 4
Back
Fore
SplineSet
43 478 m 1
 122 478 l 1
 226 296 l 1
 332 478 l 1
 409 478 l 1
 265 241 l 1
 412 0 l 1
 333 0 l 1
 226 187 l 1
 117 0 l 1
 40 0 l 1
 187 241 l 1
 43 478 l 1
EndSplineSet
Validated: 1
Layer: 2
Layer: 3
EndChar
StartChar: y
Encoding: 121 121 70
GlifName: y
Width: 418
Flags: W
LayerCount: 4
Back
Fore
SplineSet
222 -4 m 1
 194 0 171 13 157 31 c 0
 142 51 138 69 116 141 c 2
 15 478 l 1
 88 478 l 1
 182 156 l 2
 197 104 204 82 210 73 c 0
 216 64 227 62 237 61 c 1
 327 478 l 1
 398 478 l 1
 252 -183 l 1
 181 -183 l 1
 222 -4 l 1
EndSplineSet
Validated: 1
Layer: 2
Layer: 3
EndChar
StartChar: z
Encoding: 122 122 71
Width: 440
VWidth: 0
Flags: W
HStem: 0 66<110.184 380> 411 66<60 299.525>
VStem: 39 70<68.9036 130.476> 311 70<346.242 405.657>
AnchorPoint: "DoubleTop" 0 0 basechar 0
AnchorPoint: "Apos" 0 0 basechar 0
AnchorPoint: "Center" 15 0 basechar 0
AnchorPoint: "Bottom" 220 0 basechar 0
AnchorPoint: "Top" 220 476 basechar 0
LayerCount: 4
Back
Fore
SplineSet
60 411 m 1
 60 477 l 1
 240 477 l 2
 285 477 323 477 354 447 c 0
 378 424 381 395 381 383 c 0
 381 334 350 307 294 262 c 2
 166 160 l 2
 129 130 109 115 109 94 c 0
 109 87 111 82 115 78 c 0
 123 67 136 66 180 66 c 2
 380 66 l 1
 380 0 l 1
 180 0 l 2
 136 0 89 0 58 39 c 0
 46 54 39 74 39 95 c 0
 39 144 75 174 120 210 c 2
 248 312 l 2
 292 347 311 362 311 383 c 0
 311 388 310 397 300 404 c 0
 290 411 271 411 240 411 c 2
 60 411 l 1
EndSplineSet
Validated: 1
Layer: 2
Layer: 3
EndChar
StartChar: braceleft
Encoding: 123 123 76
GlifName: braceleft
Width: 336
Flags: W
VStem: 141 60<-93.0055 222.994 373.006 688.005>
LayerCount: 4
Back
Fore
SplineSet
130 298 m 1
 156 277 172 255 185 226 c 0
 199 194 205 160 205 117 c 0
 205 80 201 43 201 6 c 0
 201 -34 206 -64 224 -96 c 0
 239 -123 263 -141 286 -149 c 1
 266 -201 l 1
 225 -187 192 -158 172 -124 c 0
 150 -86 141 -47 141 6 c 0
 141 43 145 80 145 117 c 0
 145 153 141 183 124 215 c 0
 111 240 89 261 60 271 c 1
 60 325 l 1
 89 335 111 356 124 381 c 0
 141 413 145 443 145 479 c 0
 145 516 141 553 141 589 c 0
 141 642 150 681 172 719 c 0
 192 753 225 782 266 796 c 1
 286 744 l 1
 263 736 239 718 224 691 c 0
 206 659 201 629 201 589 c 0
 201 553 205 516 205 479 c 0
 205 436 199 402 185 370 c 0
 172 341 156 319 130 298 c 1
EndSplineSet
Validated: 1
Layer: 2
Layer: 3
EndChar
StartChar: braceright
Encoding: 125 125 79
GlifName: braceright
Width: 336
Flags: W
VStem: 135 60<-93.0055 222.994 373.006 688.005>
LayerCount: 4
Back
Fore
SplineSet
206 298 m 1
 180 319 164 341 151 370 c 0
 137 402 131 436 131 479 c 0
 131 516 135 553 135 589 c 0
 135 629 130 659 112 691 c 0
 97 718 73 736 50 744 c 1
 70 796 l 1
 111 782 144 753 164 719 c 0
 186 681 195 642 195 589 c 0
 195 553 191 516 191 479 c 0
 191 443 195 413 212 381 c 0
 225 356 247 335 276 325 c 1
 276 271 l 1
 247 261 225 240 212 215 c 0
 195 183 191 153 191 117 c 0
 191 80 195 43 195 6 c 0
 195 -47 186 -86 164 -124 c 0
 144 -158 111 -187 70 -201 c 1
 50 -149 l 1
 73 -141 97 -123 112 -96 c 0
 130 -64 135 -34 135 6 c 0
 135 43 131 80 131 117 c 0
 131 160 137 194 151 226 c 0
 164 255 180 277 206 298 c 1
EndSplineSet
Validated: 1
Layer: 2
Layer: 3
EndChar
StartChar: asciitilde
Encoding: 126 126 180
GlifName: asciitilde
Width: 520
Flags: W
HStem: 188 60<287.008 396.623> 252 60<123.377 232.992>
VStem: 54 60<221.6 241.18> 406 60<258.82 278.4>
LayerCount: 4
Back
Fore
SplineSet
114 211 m 5
 54 223 l 5
 65 273 111 312 169 312 c 4
 216 312 252 289 276 276 c 4
 302 261 325 248 351 248 c 4
 379 248 401 267 406 289 c 5
 466 277 l 5
 455 227 409 188 351 188 c 4
 304 188 268 211 244 224 c 4
 218 239 195 252 169 252 c 4
 141 252 119 233 114 211 c 5
EndSplineSet
Validated: 1
Layer: 2
Layer: 3
EndChar
StartChar: cent
Encoding: 162 162 354
GlifName: cent
Width: 450
VWidth: 0
Flags: W
HStem: -5 66<171.78 230 280 356.875> 416 66<171.78 230 280 356.162>
VStem: 55 70<106.798 368.417> 230 50<-86 -2.53525 61 416 479.756 563>
LayerCount: 4
Back
Fore
SplineSet
230 563 m 1
 280 563 l 1
 280 482 l 1
 322 479 362 467 399 448 c 1
 370 388 l 1
 341 403 311 412 280 416 c 1
 280 61 l 1
 312 65 343 74 372 90 c 1
 405 32 l 1
 366 11 324 -1 280 -5 c 1
 280 -86 l 1
 230 -86 l 1
 230 -5 l 0
 180 -1 134 19 103 52 c 0
 55 103 55 164 55 202 c 2
 55 275 l 2
 55 316 55 374 103 425 c 0
 134 458 180 478 230 482 c 0
 230 563 l 1
151 376 m 0
 125 344 125 308 125 275 c 2
 125 202 l 2
 125 173 125 127 155 96 c 0
 173 77 200 65 230 61 c 1
 230 416 l 1
 195 413 168 396 151 376 c 0
EndSplineSet
Validated: 1
Layer: 2
Layer: 3
EndChar
StartChar: yen
Encoding: 165 165 355
GlifName: yen
Width: 571
VWidth: 0
Flags: W
HStem: 0 21G<248 322> 243 56<105 238 332 465> 368 56<95 173 397 475> 646 20G<50 138.75 434.062 521>
VStem: 248 74<0 243>
LayerCount: 4
Back
Fore
SplineSet
50 666 m 5
 129 666 l 5
 285 346 l 1
 444 666 l 5
 521 666 l 5
 397 424 l 1
 475 424 l 1
 475 368 l 1
 367 368 l 1
 332 299 l 1
 465 299 l 1
 465 243 l 1
 322 243 l 1
 322 0 l 1
 248 0 l 1
 248 243 l 1
 105 243 l 1
 105 299 l 1
 238 299 l 1
 203 368 l 1
 95 368 l 1
 95 424 l 1
 173 424 l 1
 50 666 l 5
EndSplineSet
Validated: 1
Layer: 2
Layer: 3
EndChar
StartChar: ordfeminine
Encoding: 170 170 440
Width: 458
Flags: W
HStem: 254 66<138.934 305.721> 489 62<142.342 333> 678 66<107.702 295.419>
VStem: 40 70<348.89 458.679> 333 70<348.277 489 551 639.767>
LayerCount: 4
Back
Fore
SplineSet
403 478 m 6
 403 408 403 360 374 317 c 4
 346 275 300 254 228 254 c 4
 170 254 126 265 93 292 c 4
 64 315 40 356 40 403 c 4
 40 448 61 489 97 515 c 4
 147 551 197 551 278 551 c 6
 333 551 l 5
 333 577 333 612 311 641 c 4
 292 666 259 678 218 678 c 4
 175 678 131 668 90 649 c 5
 64 710 l 5
 112 731 165 744 218 744 c 4
 277 744 329 726 365 683 c 4
 403 638 403 578 403 534 c 6
 403 478 l 6
333 478 m 6
 333 489 l 5
 278 489 l 6
 204 489 170 489 140 466 c 4
 123 453 110 431 110 403 c 4
 110 378 122 356 137 343 c 4
 158 326 190 320 228 320 c 4
 270 320 299 328 315 353 c 4
 333 380 333 416 333 478 c 6
EndSplineSet
Validated: 1
Layer: 2
Layer: 3
EndChar
StartChar: guillemotleft
Encoding: 171 171 129
GlifName: guillemotleft
Width: 484
Flags: W
LayerCount: 4
Back
Fore
SplineSet
386 449 m 1
 434 413 l 1
 305 250 l 1
 434 87 l 1
 386 51 l 1
 230 250 l 1
 386 449 l 1
206 449 m 1
 254 413 l 1
 125 250 l 1
 254 87 l 1
 206 51 l 1
 50 250 l 1
 206 449 l 1
EndSplineSet
Validated: 1
Layer: 2
Layer: 3
EndChar
StartChar: logicalnot
Encoding: 172 172 419
GlifName: logicalnot
Width: 520
Flags: W
HStem: 221 58<80 380>
VStem: 380 60<70 221>
LayerCount: 4
Back
Fore
SplineSet
80 279 m 5
 440 280 l 5
 440 70 l 5
 380 70 l 5
 380 221 l 5
 80 221 l 5
 80 279 l 5
EndSplineSet
Validated: 1
Layer: 2
Layer: 3
EndChar
StartChar: uni00AD
Encoding: 173 173 455
GlifName: uni00A_D_
Width: 370
Flags: W
HStem: 221 58<80 290>
VStem: 80 210<221 279>
LayerCount: 4
Back
Fore
SplineSet
80 279 m 5
 290 279 l 5
 290 221 l 5
 80 221 l 5
 80 279 l 5
EndSplineSet
Validated: 1
Layer: 2
Layer: 3
EndChar
StartChar: registered
Encoding: 174 174 75
GlifName: registered
Width: 820
VWidth: 0
Flags: W
HStem: -183 62<210.861 609.139> 0 21G<262 332 487.379 571> 173 66<332 420.532> 412 66<332 465.36> 604 62<210.861 609.139>
VStem: 75 66<-50.9117 533.912> 262 70<0 173 239 412> 491 70<263.922 387.661> 679 66<-50.9117 533.912>
LayerCount: 4
Back
Fore
SplineSet
462 -121 m 2
 540 -121 602 -121 643 -73 c 0
 679 -31 679 23 679 98 c 2
 679 385 l 2
 679 460 679 514 643 556 c 0
 602 604 540 604 462 604 c 2
 358 604 l 2
 280 604 218 604 177 556 c 0
 141 514 141 460 141 385 c 2
 141 98 l 2
 141 23 141 -31 177 -73 c 0
 218 -121 280 -121 358 -121 c 2
 462 -121 l 2
462 666 m 2
 544 666 629 666 690 600 c 0
 745 540 745 468 745 385 c 2
 745 98 l 2
 745 15 745 -57 690 -117 c 0
 629 -183 544 -183 462 -183 c 2
 358 -183 l 2
 276 -183 191 -183 130 -117 c 0
 75 -57 75 15 75 98 c 2
 75 385 l 2
 75 468 75 540 130 600 c 0
 191 666 276 666 358 666 c 2
 462 666 l 2
393 239 m 2
 415 239 442 239 464 258 c 0
 480 272 491 296 491 326 c 0
 491 355 480 379 464 393 c 0
 442 412 415 412 393 412 c 2
 332 412 l 1
 332 239 l 1
 393 239 l 2
488 193 m 0
 571 0 l 1
 496 0 l 1
 421 174 l 1
 411 173 402 173 393 173 c 2
 332 173 l 1
 332 0 l 1
 262 0 l 1
 262 478 l 1
 393 478 l 2
 423 478 469 478 512 441 c 0
 542 415 561 372 561 326 c 0
 561 263 530 217 488 193 c 0
EndSplineSet
Validated: 1
Layer: 2
Layer: 3
EndChar
StartChar: degree
Encoding: 176 176 151
GlifName: degree
Width: 324
VWidth: 0
Flags: W
HStem: 449 54<115.999 208.156> 619 54<115.999 208.156>
VStem: 50 54<514.844 607.156> 220 54<514.844 607.156>
LayerCount: 4
Back
Fore
SplineSet
162 673 m 0
 229 673 274 628 274 561 c 0
 274 494 229 449 162 449 c 0
 95 449 50 494 50 561 c 0
 50 628 95 673 162 673 c 0
162 619 m 0
 128 619 104 596 104 561 c 0
 104 526 128 503 162 503 c 0
 197 503 220 526 220 561 c 0
 220 596 197 619 162 619 c 0
EndSplineSet
Validated: 1
Layer: 2
Layer: 3
EndChar
StartChar: plusminus
Encoding: 177 177 105
GlifName: plusminus
Width: 520
Flags: W
HStem: 95 58<80 440> 294 58<80 230 290 440>
VStem: 230 60<203 294 352 443>
LayerCount: 4
Back
Fore
SplineSet
230 443 m 5
 290 443 l 5
 290 352 l 5
 440 352 l 5
 440 294 l 5
 290 294 l 5
 290 203 l 5
 230 203 l 5
 230 294 l 5
 80 294 l 5
 80 352 l 5
 230 352 l 5
 230 443 l 5
80 153 m 5
 440 153 l 5
 440 95 l 5
 80 95 l 5
 80 153 l 5
EndSplineSet
Validated: 1
Layer: 2
Layer: 3
EndChar
StartChar: uni00B2
Encoding: 178 178 453
GlifName: uni00B_2
Width: 377
Flags: W
HStem: 260 66<144 327> 678 66<93.8344 231.202>
VStem: 252 70<550.763 660.896>
LayerCount: 4
Back
Fore
SplineSet
102 655 m 5
 61 708 l 5
 97 735 142 744 174 744 c 4
 216 744 247 733 273 713 c 4
 302 690 322 654 322 609 c 4
 322 566 310 542 269 488 c 6
 144 326 l 5
 327 326 l 5
 327 260 l 5
 50 260 l 5
 50 315 l 5
 211 525 l 6
 244 568 252 579 252 608 c 4
 252 632 242 651 229 662 c 4
 216 673 197 678 174 678 c 4
 147 678 121 670 102 655 c 5
EndSplineSet
Validated: 1
Layer: 2
Layer: 3
EndChar
StartChar: uni00B3
Encoding: 179 179 454
GlifName: uni00B_3
Width: 364
VWidth: 0
Flags: W
HStem: 254 66<88.8048 225.463> 473 66<126 216.25> 678 66<81.0138 219.215>
VStem: 241 70<557.112 659.774> 249 70<341.094 450.316>
LayerCount: 4
Back
Fore
SplineSet
89 655 m 5xf0
 48 708 l 5
 82 733 123 744 162 744 c 4
 196 744 233 736 263 712 c 4
 290 690 311 655 311 610 c 4xf0
 311 572 296 536 260 508 c 5
 300 480 319 438 319 395 c 4
 319 348 297 311 269 289 c 4
 238 263 198 254 162 254 c 4
 114 254 72 268 40 295 c 5
 83 346 l 5
 101 330 129 320 162 320 c 4
 186 320 209 326 224 338 c 4
 238 350 249 370 249 395 c 4xe8
 249 419 239 441 223 455 c 4
 206 470 188 473 135 473 c 6
 126 473 l 5
 126 539 l 5
 135 539 l 6
 185 539 201 542 217 555 c 4
 231 567 241 588 241 610 c 4
 241 633 231 651 217 662 c 4
 204 672 184 678 162 678 c 4
 135 678 108 670 89 655 c 5xf0
EndSplineSet
Validated: 1
Layer: 2
Layer: 3
EndChar
StartChar: mu
Encoding: 181 181 123
GlifName: mu
Width: 485
VWidth: 0
Flags: W
HStem: -6 66<176.508 313.178>
VStem: 65 70<-183 48 101.638 478> 355 70<102.21 478>
AnchorPoint: "DoubleTop" 5 0 basechar 0
AnchorPoint: "Apos" 5 0 basechar 0
AnchorPoint: "Center" -10 0 basechar 0
AnchorPoint: "Bottom" 245 0 basechar 0
AnchorPoint: "Top" 245 476 basechar 0
LayerCount: 4
Back
Fore
SplineSet
250 -6 m 0
 208 -6 164 12 135 48 c 1
 135 -183 l 1
 65 -183 l 1
 65 478 l 1
 135 478 l 1
 135 232 l 2
 135 165 135 126 163 94 c 0
 183.070892057 71.0618376491 213 60 245 60 c 0
 277 60 307 71 327 94 c 0
 354.901101675 126.086266927 355 165 355 232 c 2
 355 478 l 1
 425 478 l 1
 425 232 l 2
 425 158 425 104 383 53 c 0
 350.929844943 14.0576688597 301 -6 250 -6 c 0
EndSplineSet
Validated: 1
Layer: 2
Layer: 3
EndChar
StartChar: paragraph
Encoding: 182 182 417
GlifName: paragraph
Width: 525
VWidth: 0
Flags: W
HStem: 0 21G<198 272 376 450> 596 70<272.172 376>
VStem: 60 212<352.088 549.912> 198 74<0 258.499> 376 74<0 596>
LayerCount: 4
Back
Fore
SplineSet
341 666 m 2xe8
 450 666 l 1
 450 0 l 1
 376 0 l 1
 376 0 376 596 376 596 c 1
 307 596 272 594 272 594 c 1
 272 0 l 1
 198 0 l 1
 198 250 l 1xd8
 173 258 149 271 127 291 c 0
 78 335 60 398 60 451 c 0
 60 504 78 567 127 611 c 0
 188 666 262 666 341 666 c 2xe8
EndSplineSet
Validated: 1
Layer: 2
Layer: 3
EndChar
StartChar: periodcentered
Encoding: 183 183 100
GlifName: periodcentered
Width: 262
VWidth: 0
Flags: W
HStem: 199 102<88.2266 173.773>
VStem: 80 102<207.227 292.773>
AnchorPoint: "Center" 17 250 mark 0
LayerCount: 4
Back
Fore
SplineSet
131 301 m 0
 161 301 182 280 182 250 c 0
 182 220 161 199 131 199 c 0
 101 199 80 220 80 250 c 0
 80 280 101 301 131 301 c 0
EndSplineSet
Validated: 1
Layer: 2
Layer: 3
EndChar
StartChar: cedilla
Encoding: 184 184 190
GlifName: cedilla
Width: 269
Flags: W
HStem: -189 52<61.4617 150.453>
VStem: 163 56<-129.845 -73.0988>
AnchorPoint: "Bottom" 129 0 mark 0
LayerCount: 4
Back
Fore
SplineSet
66 -128 m 0
 80 -134 95 -137 107 -137 c 0
 116 -137 129 -137 143 -130 c 0
 155 -123 163 -113 163 -100 c 0
 163 -90 158 -80 147 -74 c 0
 139 -70 131 -70 122 -70 c 2
 85 -70 l 1
 107 0 l 1
 151 0 l 1
 140 -37 l 1
 161 -37 177 -37 196 -50 c 0
 211 -61 219 -79 219 -99 c 0
 219 -127 204 -149 188 -163 c 0
 170 -178 141 -189 107 -189 c 0
 89 -189 69 -186 50 -178 c 0
 66 -128 l 0
EndSplineSet
Validated: 1
Layer: 2
Layer: 3
EndChar
StartChar: uni00B9
Encoding: 185 185 452
GlifName: uni00B_9
Width: 321
Flags: W
VStem: 161 70<260 656>
LayerCount: 4
Back
Fore
SplineSet
174 738 m 5
 231 738 l 5
 231 260 l 5
 161 260 l 5
 161 656 l 5
 100 625 l 5
 70 685 l 5
 174 738 l 5
EndSplineSet
Validated: 1
Layer: 2
Layer: 3
EndChar
StartChar: ordmasculine
Encoding: 186 186 441
GlifName: ordmasculine
Width: 490
Flags: W
HStem: 254 66<172.319 317.681> 678 66<172.319 317.681>
VStem: 55 70<368.461 629.539> 365 70<368.461 629.539>
LayerCount: 4
Back
Fore
SplineSet
245 678 m 4
 205 678 170 663 150 635 c 4
 125 600 125 553 125 499 c 4
 125 445 125 398 150 363 c 4
 170 335 205 320 245 320 c 4
 285 320 320 335 340 363 c 4
 365 398 365 445 365 499 c 4
 365 553 365 600 340 635 c 4
 320 663 285 678 245 678 c 4
245 744 m 4
 306 744 365 720 400 669 c 4
 435 618 435 557 435 499 c 4
 435 441 435 380 400 329 c 4
 365 278 306 254 245 254 c 4
 184 254 125 278 90 329 c 4
 55 380 55 441 55 499 c 4
 55 557 55 618 90 669 c 4
 125 720 184 744 245 744 c 4
EndSplineSet
Validated: 1
Layer: 2
Layer: 3
EndChar
StartChar: guillemotright
Encoding: 187 187 128
GlifName: guillemotright
Width: 484
Flags: W
LayerCount: 4
Back
Fore
SplineSet
98 449 m 1
 254 250 l 1
 98 51 l 1
 50 87 l 1
 179 250 l 1
 50 413 l 1
 98 449 l 1
278 449 m 1
 434 250 l 1
 278 51 l 1
 230 87 l 1
 359 250 l 1
 230 413 l 1
 278 449 l 1
EndSplineSet
Validated: 1
Layer: 2
Layer: 3
EndChar
StartChar: AE
Encoding: 198 198 41
GlifName: A_E_
Width: 740
Flags: W
HStem: 0 70<446.697 675> 195 70<182 365> 308 70<439 635> 596 70<273.237 365 439 675>
VStem: 365 74<76.7269 195 265 308 378 596>
LayerCount: 4
Back
Fore
SplineSet
365 265 m 1
 365 596 l 1
 314 596 l 2
 286 596 278 593 273 588 c 0
 266 581 261 566 247 512 c 2
 182 265 l 1
 365 265 l 1
439 596 m 1
 439 378 l 1
 635 379 l 1
 635 309 l 1
 439 308 l 1
 439 155 l 2
 439 114 439 92 456 79 c 0
 468 70 485 70 522 70 c 2
 675 70 l 1
 675 0 l 1
 522 0 l 2
 478 0 438 -0 405 28 c 0
 365 63 365 107 365 155 c 2
 365 195 l 1
 163 195 l 1
 111 0 l 1
 35 0 l 1
 175 528 l 2
 196 608 204 622 221 638 c 0
 241 657 268 666 314 666 c 2
 675 666 l 1
 675 596 l 1
 439 596 l 1
EndSplineSet
Validated: 1
Layer: 2
Layer: 3
EndChar
StartChar: Ccedilla
Encoding: 199 199 192
GlifName: C_cedilla
Width: 537
VWidth: 0
UnlinkRmOvrlpSave: 1
Flags: W
HStem: -189 52<222.462 311.453> -5 69<203.563 266 310 386.731> 602 70<202.309 386.761>
VStem: 65 74<130.248 534.819> 324 56<-129.845 -73.0988>
LayerCount: 4
Back
Fore
SplineSet
227 -128 m 5
 241 -134 256 -137 268 -137 c 4
 277 -137 290 -137 304 -130 c 4
 316 -123 324 -113 324 -100 c 4
 324 -90 319 -80 308 -74 c 4
 300 -70 292 -70 283 -70 c 6
 246 -70 l 5
 266 -5 l 5
 219 -1 173 14 137 45 c 4
 65 107 65 191 65 279 c 6
 65 387 l 6
 65 474 65 558 136 620 c 4
 175 654 230 672 290 672 c 4
 351 672 417 654 467 614 c 5
 423 558 l 5
 387 587 339 602 290 602 c 4
 256 602 216 594 188 570 c 4
 139 528 139 468 139 387 c 6
 139 279 l 6
 139 196 139 139 187 97 c 4
 211 76 246 64 290 64 c 4
 348 64 399 85 431 114 c 5
 477 59 l 5
 435 24 377 -1 310 -5 c 5
 301 -37 l 5
 322 -37 338 -37 357 -50 c 4
 372 -61 380 -79 380 -99 c 4
 380 -127 365 -149 349 -163 c 4
 331 -178 302 -189 268 -189 c 4
 250 -189 230 -186 211 -178 c 5
 227 -128 l 5
EndSplineSet
Layer: 2
Layer: 3
EndChar
StartChar: multiply
Encoding: 215 215 361
GlifName: multiply
Width: 520
Flags: W
HStem: 94 312
VStem: 104 312
LayerCount: 4
Back
Fore
SplineSet
146 94 m 1
 104 136 l 1
 219 250 l 1
 104 364 l 1
 146 406 l 1
 260 291 l 1
 374 406 l 1
 416 364 l 1
 301 250 l 1
 416 136 l 1
 374 94 l 1
 260 209 l 1
 146 94 l 1
EndSplineSet
Validated: 1
Layer: 2
Layer: 3
EndChar
StartChar: Oslash
Encoding: 216 216 42
Width: 600
Flags: W
HStem: -6 70<209.103 389.696> 603 70<210.304 391.147>
VStem: 65 74<139.668 534.179> 461 74<132.821 525.741>
AnchorPoint: "DoubleTop" 0 0 basechar 0
AnchorPoint: "Apos" 0 0 basechar 0
AnchorPoint: "Center" 0 0 basechar 0
AnchorPoint: "Bottom" 300 0 basechar 0
AnchorPoint: "Top" 300 667 basechar 0
LayerCount: 4
Back
Fore
SplineSet
146 501 m 0
 140 480 139 455 139 428 c 2
 139 239 l 2
 139 212 140 187 146 166 c 0
 149 156 152 147 156 139 c 1
 407 571 l 1
 380 592 343 603 300 603 c 0
 221 603 163 565 146 501 c 0
74 148 m 0
 65 180 65 211 65 239 c 2
 65 428 l 2
 65 456 65 487 74 519 c 0
 99 611 185 673 300 673 c 0
 356 673 405 658 443 633 c 1
 478 693 l 1
 541 693 l 1
 485 596 l 1
 504 574 518 548 526 519 c 0
 535 487 535 456 535 428 c 2
 535 239 l 2
 535 211 535 180 526 148 c 0
 501 56 415 -6 300 -6 c 0
 245 -6 196 8 158 33 c 1
 123 -27 l 1
 60 -27 l 1
 116 70 l 1
 96 92 82 118 74 148 c 0
194 95 m 1
 221 75 258 64 300 64 c 0
 379 64 437 102 454 166 c 0
 460 187 461 212 461 239 c 2
 461 428 l 2
 461 455 460 480 454 501 c 0
 452 510 448 519 444 527 c 1
 194 95 l 1
EndSplineSet
Validated: 1
Layer: 2
Layer: 3
EndChar
StartChar: Thorn
Encoding: 222 222 362
GlifName: T_horn
Width: 520
VWidth: 0
Flags: W
HStem: 0 21G<75 149> 126 70<149 326.929> 486 70<149 326.929> 646 20G<75 149>
VStem: 75 74<0 126 196 486 556 666> 391 74<259.624 422.376>
LayerCount: 4
Back
Fore
SplineSet
184 556 m 2
 263 556 337 556 398 501 c 0
 447 457 465 394 465 341 c 0
 465 288 447 225 398 181 c 0
 337 126 263 126 184 126 c 2
 149 126 l 1
 149 0 l 1
 75 0 l 1
 75 666 l 1
 149 666 l 1
 149 556 l 1
 184 556 l 2
149 486 m 1
 149 196 l 1
 184 196 l 2
 258 196 307 196 346 231 c 0
 373 255 391 293 391 341 c 0
 391 389 373 427 346 451 c 0
 307 486 258 486 184 486 c 2
 149 486 l 1
EndSplineSet
Validated: 1
Layer: 2
Layer: 3
EndChar
StartChar: germandbls
Encoding: 223 223 363
GlifName: germandbls
Width: 505
VWidth: 0
Flags: W
HStem: -6 66<212.595 342.944> 339 66<224 284.11> 607 66<165.421 295.288>
VStem: 65 70<0 576.477> 327 70<447.094 575.429> 385 70<101.881 299.174>
LayerCount: 4
Back
Fore
SplineSet
230 673 m 0xf8
 259 673 296 667 332 642 c 0
 368 617 397 571 397 514 c 0xf8
 397 465 376 420 347 391 c 1
 377 379 406 361 427 328 c 0
 455 284 455 240 455 200 c 1
 455 158 455 103 414 55 c 0
 383 19 333 -6 269 -6 c 0
 243 -6 220 -2 198 4 c 1
 216 68 l 1
 233 63 251 60 269 60 c 0
 307 60 339 73 358 95 c 0
 385 126 385 160 385 200 c 1xf4
 385 240 385 272 361 302 c 0
 332 339 281 339 224 339 c 9
 224 405 l 1
 282 405 327 455 327 514 c 0
 327 547 312 573 292 588 c 0
 275 600 253 607 230 607 c 0
 209 607 177 601 156 576 c 0
 135 551 135 521 135 465 c 2
 135 0 l 1
 65 0 l 1
 65 465 l 2
 65 522 65 577 104 620 c 0
 132.063857873 650.94220227 176 673 230 673 c 0xf8
EndSplineSet
Validated: 1
Layer: 2
Layer: 3
EndChar
StartChar: ae
Encoding: 230 230 112
GlifName: ae
Width: 668
VWidth: 0
Flags: W
HStem: -6 66<133.249 259.038 397.462 553.81> 224 62<130.812 293 363 524.015> 417 66<102.971 264.151 402.848 532.731>
VStem: 40 70<84.8971 203.077> 293 70<94.997 224 286 379.125> 553 70<304.997 400.466>
LayerCount: 4
Back
Fore
SplineSet
553 355 m 4
 553 367 549 388 530 402 c 4
 510 417 484 417 477 417 c 4
 447 417 416 408 394 389 c 4
 363 362 363 327 363 297 c 6
 363 286 l 5
 457 286 l 6
 482 286 504 286 525 300 c 4
 540 310 553 330 553 355 c 4
222 224 m 2
 191 224 162 224 139 209 c 0
 120 196 110 173 110 144 c 0
 110 120 117 99 129 86 c 0
 143 70 164 60 193 60 c 0
 223 60 253 72 270 92 c 0
 293 119 293 150 293 178 c 0
 293 224 l 1
 222 224 l 2
198 483 m 0
 257 483 304 461 331 419 c 4
 362 458 412 483 477 483 c 4
 506 483 542 477 572 455 c 4
 600 435 623 398 623 355 c 4
 623 308 598 272 568 251 c 4
 529 224 485 224 457 224 c 6
 363 224 l 5
 363 183 l 6
 363 150 363 109 398 81 c 4
 419 64 446 60 467 60 c 4
 501 60 539 72 570 90 c 5
 603 32 l 5
 561 9 515 -6 467 -6 c 4
 400 -6 358 19 329 60 c 5
 300 18 252 -6 193 -6 c 0
 149 -6 113 9 88 31 c 0
 60 55 40 94 40 144 c 0
 40 195 62 233 92 255 c 0
 134 286 183 286 222 286 c 2
 293 286 l 1
 293 307 l 2
 293 333 293 362 274 386 c 0
 258 406 232 417 198 417 c 0
 163 417 127 407 91 390 c 1
 62 450 l 1
 105 470 151 483 198 483 c 0
EndSplineSet
Validated: 1
Layer: 2
Layer: 3
EndChar
StartChar: ccedilla
Encoding: 231 231 191
GlifName: ccedilla
Width: 419
VWidth: 0
UnlinkRmOvrlpSave: 1
Flags: W
HStem: -189 52<167.462 256.453> 418 66<162.186 323.373>
VStem: 45 70<109.501 368.989> 269 56<-129.845 -73.0988>
LayerCount: 4
Back
Fore
SplineSet
172 -128 m 1
 186 -134 201 -137 213 -137 c 0
 222 -137 235 -137 249 -130 c 0
 261 -123 269 -113 269 -100 c 0
 269 -90 264 -80 253 -74 c 0
 245 -70 237 -70 228 -70 c 2
 191 -70 l 1
 211.470642223 -4.86613838095 l 1
 159.34971366 0.276604221988 120.123021884 22.4866003809 93 53 c 0
 45 107 45 184 45 243 c 0
 45 295 45 370 92 424 c 0
 123 460 171 484 235 484 c 0
 283 484 331 471 372 445 c 1
 338 388 l 1
 308 407 271 418 235 418 c 0
 204 418 170 410 146 382 c 0
 115 346 115 287 115 243 c 0
 115 192 115 132 147 95 c 0
 166.015625 73.013671875 196 60 235 60 c 0
 273 60 311 71 343 93 c 1
 379 37 l 1
 342.620856236 12.7472374908 299.489456855 -1.75226690457 255.45440371 -5.19882388536 c 1
 246 -37 l 1
 267 -37 283 -37 302 -50 c 0
 317 -61 325 -79 325 -99 c 0
 325 -127 310 -149 294 -163 c 0
 276 -178 247 -189 213 -189 c 0
 195 -189 175 -186 156 -178 c 1
 172 -128 l 1
EndSplineSet
Layer: 2
Layer: 3
EndChar
StartChar: eth
Encoding: 240 240 364
GlifName: eth
Width: 485
VWidth: 0
Flags: W
HStem: -6 66<169.401 310.599> 418 66<170.026 310.814>
VStem: 55 70<108.117 370.608> 355 70<108.117 370.313>
AnchorPoint: "DoubleTop" 0 0 basechar 0
AnchorPoint: "Center" 0 0 basechar 0
AnchorPoint: "Top" 0 0 basechar 0
AnchorPoint: "Apos" 488 667 basechar 0
AnchorPoint: "Bottom" 230 0 basechar 0
LayerCount: 4
Back
Fore
SplineSet
240 418 m 0
 217 418 181 412 157 385 c 0
 125 349 125 295 125 239 c 4
 125 183 125 129 157 93 c 4
 181 66 217 60 240 60 c 4
 263 60 299 66 323 93 c 4
 355 129 355 183 355 239 c 4
 355 295 355 349 323 385 c 0
 299 412 263 418 240 418 c 0
235 484 m 0
 277 484 314 469 344 439 c 1
 332 498 307 549 276 589 c 1
 189 541 l 1
 163 587 l 1
 238 628 l 1
 214 648 187 664 159 674 c 1
 177 723 l 1
 220 709 259 687 292 658 c 1
 381 707 l 1
 407 661 l 1
 331 620 l 1
 395 535 425 420 425 239 c 4
 425 184 425 120 390 68 c 4
 357 19 300 -6 240 -6 c 4
 180 -6 123 19 90 68 c 4
 55 120 55 184 55 239 c 4
 55 310 55 372 102 427 c 0
 131 461 178 484 235 484 c 0
EndSplineSet
Validated: 1
Layer: 2
Layer: 3
EndChar
StartChar: divide
Encoding: 247 247 89
GlifName: divide
Width: 520
Flags: W
HStem: 58 91<221.289 300.711> 222 58<80 440> 348 91<221.289 300.711>
VStem: 215 92<64.2479 142.711 354.289 432.752>
LayerCount: 4
Back
Fore
SplineSet
80 280 m 1
 440 280 l 1
 440 222 l 1
 80 222 l 1
 80 280 l 1
261 439 m 0
 288 439 307 420 307 394 c 0
 307 367 288 348 261 348 c 0
 234 348 215 367 215 394 c 0
 215 420 234 439 261 439 c 0
261 149 m 0
 288 149 307 130 307 103 c 0
 307 77 288 58 261 58 c 0
 234 58 215 77 215 103 c 0
 215 130 234 149 261 149 c 0
EndSplineSet
Validated: 1
Layer: 2
Layer: 3
EndChar
StartChar: oslash
Encoding: 248 248 124
GlifName: oslash
Width: 490
VWidth: 0
Flags: W
HStem: -20 21G<45 116.043> -6 66<172.144 317.681> 418 66<172.319 317.856>
VStem: 55 70<123.224 369.539> 365 70<108.461 354.864>
AnchorPoint: "DoubleTop" 0 0 basechar 0
AnchorPoint: "Apos" 0 0 basechar 0
AnchorPoint: "Bottom" 5 0 basechar 0
AnchorPoint: "Center" 5 0 basechar 0
AnchorPoint: "Top" 250 546 basechar 0
LayerCount: 4
Back
Fore
SplineSet
245 418 m 4x38
 205 418 170 403 150 375 c 4
 125 340 125 293 125 239 c 4
 125 194 125 155 139 122 c 5
 319 396 l 5
 300 410 274 418 245 418 c 4x38
245 484 m 4
 285 484 324 474 357 452 c 5
 387 498 l 5
 445 498 l 5
 393 419 l 5
 435 367 435 300 435 239 c 4
 435 181 435 120 400 69 c 4
 365 18 306 -6 245 -6 c 4x78
 205 -6 166 4 133 26 c 5
 103 -20 l 5
 45 -20 l 5xb8
 97 59 l 5
 55 112 55 177 55 239 c 4
 55 297 55 358 90 409 c 4
 125 460 184 484 245 484 c 4
245 60 m 4
 285 60 320 75 340 103 c 4
 365 138 365 185 365 239 c 4
 365 284 365 323 351 356 c 5
 171 82 l 5
 190 68 216 60 245 60 c 4
EndSplineSet
Validated: 1
Layer: 2
Layer: 3
EndChar
StartChar: thorn
Encoding: 254 254 365
GlifName: thorn
Width: 490
Flags: W
HStem: -6 66<179.071 320.854> 418 66<179.071 320.85> 646 20G<65 135>
VStem: 65 70<-183 51 107.312 370.688 427 666> 365 70<108.121 369.883>
LayerCount: 4
Back
Fore
SplineSet
255 484 m 0
 313 484 368.97305215 458.98239083 401 410 c 0
 435 358 435 294 435 239 c 0
 435 184 434.971392001 120.018694001 401 68 c 0
 369 19 313 -6 255 -6 c 0
 216 -6 168 6 135 51 c 1
 135 -183 l 1
 65 -183 l 1
 65 666 l 1
 135 666 l 1
 135 427 l 1
 168 472 216 484 255 484 c 0
250 418 m 0
 227 418 191 412 167 385 c 0
 135 349 135 295 135 239 c 0
 135 183 135 129 167 93 c 0
 191 66 227 60 250 60 c 0
 273 60 309 66 333 93 c 0
 365 129 365 183 365 239 c 0
 365 295 365 349 333 385 c 0
 309 412 273 418 250 418 c 0
EndSplineSet
Validated: 1
Layer: 2
Layer: 3
EndChar
StartChar: Aogonek
Encoding: 260 260 367
Width: 594
VWidth: 0
UnlinkRmOvrlpSave: 1
Flags: W
HStem: -193 56<452.449 534.546> 0 21G<35 116.333> 195 70<182 412> 602 70<272.595 321.405>
VStem: 393 56<-134.268 -46.9985>
LayerCount: 4
Back
Fore
SplineSet
182 265 m 1
 412 265 l 1
 344 518 l 2
 330 572 325 587 318 594 c 0
 313 599 305 602 297 602 c 0
 289 602 281 599 276 594 c 0
 269 587 264 572 250 518 c 2
 182 265 l 1
297 672 m 0
 323 672 350 663 370 644 c 0
 387 628 395 614 416 534 c 2
 559 0 l 1
 511 -13 449 -41 449 -100 c 0
 449 -121 464 -137 485 -137 c 0
 497 -137 510 -132 524 -123 c 1
 554 -171 l 1
 535 -182 512 -193 485 -193 c 0
 433 -193 393 -152 393 -100 c 0
 393 -50 437 -19 483 0 c 1
 431 195 l 1
 163 195 l 1
 111 0 l 1
 35 0 l 1
 178 534 l 2
 199 614 207 628 224 644 c 0
 244 663 271 672 297 672 c 0
EndSplineSet
Layer: 2
Layer: 3
EndChar
StartChar: aogonek
Encoding: 261 261 366
Width: 459
UnlinkRmOvrlpSave: 1
Flags: W
HStem: -189 56<297.713 377.546> -6 66<138.934 262.227> 229 62<142.342 333> 418 66<107.702 295.419>
VStem: 40 70<87.8092 198.679> 236 56<-129.16 -10.0674> 333 70<88.2772 229 291 379.767>
LayerCount: 4
Back
Fore
SplineSet
333 218 m 2
 333 229 l 1
 278 229 l 2
 204 229 170 229 140 206 c 0
 123 193 110 171 110 143 c 0
 110 118 122 95 137 83 c 0
 158 66 190 60 228 60 c 0
 270 60 299 68 315 93 c 0
 333 120 333 156 333 218 c 2
403 218 m 2
 403 148 403 100 374 57 c 0
 364 42 352 30 337 20 c 0
 301 -4 292 -46 292 -86 c 0
 292 -113 307 -133 328 -133 c 0
 340 -133 353 -128 367 -119 c 1
 397 -167 l 1
 378 -178 355 -189 328 -189 c 0
 276 -189 236 -144 236 -86 c 0
 236 -50 246 -23 263 -3 c 1
 252 -6 241 -6 228 -6 c 0
 170 -6 126 6 93 32 c 0
 64 55 40 96 40 143 c 0
 40 188 61 229 97 255 c 0
 147 291 197 291 278 291 c 2
 333 291 l 1
 333 317 333 352 311 381 c 0
 292 406 259 418 218 418 c 0
 175 418 131 408 90 389 c 1
 64 450 l 1
 112 471 165 484 218 484 c 0
 277 484 329 466 365 423 c 0
 403 378 403 318 403 274 c 2
 403 218 l 2
EndSplineSet
Layer: 2
Layer: 3
EndChar
StartChar: Dcroat
Encoding: 272 272 371
GlifName: D_croat
Width: 629
VWidth: 0
Flags: W
HStem: 0 70<206.215 414.355> 313 62<55 125 199 328> 596 70<206.215 414.355>
VStem: 125 74<76.7269 313 375 589.273> 491 74<152.375 513.625>
LayerCount: 4
Back
Fore
SplineSet
282 596 m 4
 245 596 228 596 216 587 c 4
 199 574 199 552 199 511 c 6
 199 375 l 5
 328 375 l 5
 328 313 l 5
 199 313 l 5
 199 155 l 6
 199 114 199 92 216 79 c 4
 228 70 245 70 282 70 c 4
 344 70 416 70 457 130 c 4
 491 179 491 242 491 333 c 4
 491 424 491 487 457 536 c 4
 416 596 344 596 282 596 c 4
282 666 m 4
 354 666 455 666 519 574 c 4
 565 508 565 435 565 333 c 4
 565 231 565 158 519 92 c 4
 455 0 354 0 282 0 c 4
 238 0 198 0 165 28 c 4
 125 63 125 107 125 155 c 6
 125 313 l 5
 55 313 l 5
 55 375 l 5
 125 375 l 5
 125 511 l 6
 125 559 125 603 165 638 c 4
 198 666 238 666 282 666 c 4
EndSplineSet
Validated: 1
Layer: 2
Layer: 3
EndChar
StartChar: dcroat
Encoding: 273 273 372
GlifName: dcroat
Width: 517
VWidth: 0
Flags: W
HStem: -6 66<168.911 326.993> 418 66<169.146 310.929> 546 62<239 355 425 487> 646 20G<355 425>
VStem: 55 70<104.469 369.883> 355 70<87.8678 370.688 427 546 608 666>
LayerCount: 4
Back
Fore
SplineSet
235 484 m 0
 274 484 322 472 355 427 c 1
 355 546 l 1
 239 546 l 1
 239 608 l 1
 355 608 l 1
 355 666 l 1
 425 666 l 1
 425 608 l 1
 487 608 l 1
 487 546 l 1
 425 546 l 1
 425 239 l 2
 425 130 425 103 402 65 c 0
 374 19 321 -6 250 -6 c 0
 191 -6 132 10 93 62 c 0
 55 113 55 174 55 239 c 0
 55 294 55 358 89 410 c 0
 121 459 177 484 235 484 c 0
240 418 m 0
 217 418 181 412 157 385 c 0
 125 349 125 295 125 239 c 0
 125 182 125 130 153 96 c 0
 176 68 214 60 250 60 c 0
 290 60 324 70 342 99 c 0
 355 120 355 145 355 239 c 0
 355 295 355 349 323 385 c 0
 299 412 263 418 240 418 c 0
EndSplineSet
Validated: 1
Layer: 2
Layer: 3
EndChar
StartChar: Eogonek
Encoding: 280 280 368
GlifName: E_ogonek
Width: 500
VWidth: 0
UnlinkRmOvrlpSave: 1
Flags: W
HStem: -193 56<332.449 414.546> 0 70<156.697 360 381.246 435> 308 70<149 385> 596 70<156.697 435>
VStem: 75 74<76.7269 308 378 589.696> 273 56<-134.268 -46.0987>
LayerCount: 4
Back
Fore
SplineSet
149 378 m 1
 385 379 l 1
 385 309 l 1
 149 308 l 1
 149 155 l 2
 149 114 149 92 166 79 c 0
 178 70 195 70 232 70 c 2
 435 70 l 1
 435 0 l 1
 389 -13 329 -41 329 -100 c 0
 329 -121 344 -137 365 -137 c 0
 377 -137 390 -132 404 -123 c 1
 434 -171 l 1
 415 -182 392 -193 365 -193 c 0
 313 -193 273 -152 273 -100 c 0
 273 -50 315 -19 360 0 c 1
 232 0 l 2
 188 0 148 -0 115 28 c 0
 75 63 75 107 75 155 c 2
 75 511 l 2
 75 559 75 604 115 638 c 0
 148 666 188 666 232 666 c 2
 435 666 l 1
 435 596 l 1
 232 596 l 2
 195 596 178 596 166 587 c 0
 149 574 149 552 149 511 c 2
 149 378 l 1
EndSplineSet
Layer: 2
Layer: 3
EndChar
StartChar: eogonek
Encoding: 281 281 369
Width: 469
VWidth: 0
UnlinkRmOvrlpSave: 1
Flags: W
HStem: -189 56<296.449 378.546> -6 66<168.029 292.947> 218 62<121 334.875> 418 66<171.776 329.281>
VStem: 50 70<109.84 218 280 366.052> 237 56<-130.268 -35.6815> 354 70<299.65 393.802>
LayerCount: 4
Back
Fore
SplineSet
254 418 m 0
 215 418 173 407 148 376 c 0
 123 345 121 296 121 280 c 1
 228 280 l 2
 276 280 309 280 331 298 c 0
 344 309 354 325 354 347 c 0
 354 368 344 385 330 396 c 0
 311 411 286 418 254 418 c 0
254 484 m 0
 301 484 346 472 378 444 c 0
 406 420 424 387 424 347 c 0
 424 307 404 273 380 254 c 0
 334 218 291 218 228 218 c 2
 120 218 l 1
 121 163 126 128 147 101 c 0
 168 74 201 60 250 60 c 0
 294 60 336 69 374 89 c 1
 403 29 l 1
 355 5 293 -29 293 -96 c 0
 293 -117 308 -133 329 -133 c 0
 341 -133 354 -128 368 -119 c 1
 398 -167 l 1
 379 -178 356 -189 329 -189 c 0
 277 -189 237 -148 237 -96 c 0
 237 -56 261 -26 294 -2 c 1
 279 -5 265 -6 250 -6 c 0
 178 -6 123 18 91 61 c 0
 53 111 50 165 50 249 c 0
 50 313 57 366 88 410 c 0
 121 456 181 484 254 484 c 0
EndSplineSet
Layer: 2
Layer: 3
EndChar
StartChar: hbar
Encoding: 295 295 375
GlifName: hbar
Width: 530
VWidth: 0
Flags: W
HStem: 0 21G<110 180 400 470> 418 66<221.816 358.543> 546 62<30 110 180 290> 646 20G<110 180>
VStem: 110 70<0 375.445 429 546 608 666> 400 70<0 373.066>
LayerCount: 4
Back
Fore
SplineSet
110 666 m 1
 180 666 l 1
 180 608 l 1
 290 608 l 1
 290 546 l 1
 180 546 l 1
 180 429 l 1
 212 472 258 484 295 484 c 0
 351 484 404 461 436 414 c 0
 470 364 470 310 470 239 c 2
 470 0 l 1
 400 0 l 1
 400 239 l 2
 400 300 400 344 377 377 c 0
 356 407 321 418 290 418 c 0
 259 418 224 407 203 377 c 0
 180 344 180 300 180 239 c 2
 180 0 l 1
 110 0 l 1
 110 546 l 1
 30 546 l 1
 30 608 l 1
 110 608 l 1
 110 666 l 1
EndSplineSet
Validated: 1
Layer: 2
Layer: 3
EndChar
StartChar: Iogonek
Encoding: 302 302 376
GlifName: I_ogonek
Width: 224
VWidth: 0
UnlinkRmOvrlpSave: 1
Flags: W
HStem: -189 56<53.4486 135.546> 646 20G<75 149>
VStem: -6 56<-130.268 -42.4377> 75 74<-6.34476 666>
LayerCount: 4
Back
Fore
SplineSet
75 0 m 1
 75 666 l 1
 149 666 l 1
 149 0 l 1
 106 -12 50 -39 50 -96 c 0
 50 -117 65 -133 86 -133 c 0
 98 -133 111 -128 125 -119 c 1
 155 -167 l 1
 136 -178 113 -189 86 -189 c 0
 34 -189 -6 -148 -6 -96 c 0
 -6 -48 33 -18 75 0 c 1
EndSplineSet
Layer: 2
Layer: 3
EndChar
StartChar: IJ
Encoding: 306 306 378
GlifName: I_J_
Width: 636
VWidth: 0
Flags: W
HStem: -6 70<287.257 445.412> 646 20G<85 159 492 566>
VStem: 85 74<0 666> 492 74<112.476 666>
AnchorPoint: "DoubleTop" 0 0 basechar 0
AnchorPoint: "Apos" 0 0 basechar 0
AnchorPoint: "Center" 0 0 basechar 0
AnchorPoint: "Bottom" 201 0 basechar 0
AnchorPoint: "Top" 359 667 basechar 0
LayerCount: 4
Back
Fore
SplineSet
492 666 m 1
 566 666 l 1
 566 251 l 2
 566 171 566 107 517 53 c 0
 479 11 423 -6 371 -6 c 0
 318 -6 268 9 225 42 c 1
 270 98 l 1
 296 76 333 64 371 64 c 0
 410 64 441 77 461 99 c 0
 492 133 492 179 492 251 c 2
 492 666 l 1
85 666 m 1
 159 666 l 1
 159 0 l 1
 85 0 l 1
 85 666 l 1
EndSplineSet
Validated: 1
Layer: 2
Layer: 3
EndChar
StartChar: ldot
Encoding: 320 320 254
GlifName: ldot
Width: 354
VWidth: 0
Flags: W
HStem: 0 21G<65 135> 283 102<210.227 295.773> 647 20G<65 135>
VStem: 65 70<0 667> 202 102<291.227 376.773>
LayerCount: 4
Back
Fore
SplineSet
65 667 m 1
 135 667 l 1
 135 0 l 1
 65 0 l 1
 65 667 l 1
253 385 m 0
 283 385 304 364 304 334 c 0
 304 304 283 283 253 283 c 0
 223 283 202 304 202 334 c 0
 202 364 223 385 253 385 c 0
EndSplineSet
Validated: 1
Layer: 2
Layer: 3
EndChar
StartChar: Lslash
Encoding: 321 321 380
GlifName: L_slash
Width: 550
VWidth: 0
Flags: W
HStem: 0 70<196.697 495> 646 20G<115 189>
VStem: 115 74<76.7269 234 362 666>
LayerCount: 4
Back
Fore
SplineSet
115 666 m 1
 189 666 l 1
 189 362 l 1
 266 416 l 1
 302 366 l 1
 189 286 l 1
 189 155 l 2
 189 114 189 92 206 79 c 0
 218 70 235 70 272 70 c 2
 495 70 l 1
 495 0 l 1
 272 0 l 2
 228 0 188 -0 155 28 c 0
 115 63 115 107 115 155 c 2
 115 234 l 1
 58 196 l 1
 22 246 l 1
 115 311 l 1
 115 666 l 1
EndSplineSet
Validated: 1
Layer: 2
Layer: 3
EndChar
StartChar: lslash
Encoding: 322 322 381
GlifName: lslash
Width: 320
VWidth: 0
Flags: W
HStem: 0 21G<115 185> 647 20G<115 185>
VStem: 115 70<0 236 362 667>
LayerCount: 4
Back
Fore
SplineSet
185 0 m 1
 115 0 l 1
 115 236 l 5
 58 196 l 5
 22 246 l 5
 115 312 l 5
 115 667 l 1
 185 667 l 1
 185 362 l 5
 262 416 l 5
 298 366 l 5
 185 286 l 5
 185 0 l 1
EndSplineSet
Validated: 1
Layer: 2
Layer: 3
EndChar
StartChar: Eng
Encoding: 330 330 383
GlifName: E_ng
Width: 570
VWidth: 0
Flags: W
HStem: -189 70<307.444 417.263> 0 21G<70 144> 602 70<202.374 367.626>
VStem: 70 74<0 544.178> 426 74<-95.4843 544.178>
LayerCount: 4
Back
Fore
SplineSet
426 -49 m 6
 426 397 l 6
 426 476 426 527 388 565 c 4
 365 588 329 602 285 602 c 4
 241 602 205 588 182 565 c 4
 144 527 144 476 144 397 c 6
 144 0 l 5
 70 0 l 5
 70 397 l 6
 70 480 70 555 128 613 c 4
 165 650 219 672 285 672 c 4
 351 672 405 650 442 613 c 4
 500 555 500 480 500 397 c 6
 500 -49 l 6
 500 -76 498 -103 482 -130 c 4
 459 -167 417 -189 367 -189 c 4
 337 -189 309 -182 283 -171 c 5
 315 -107 l 5
 332 -115 350 -119 367 -119 c 4
 395 -119 410 -109 418 -96 c 4
 424 -85 426 -74 426 -49 c 6
EndSplineSet
Validated: 1
Layer: 2
Layer: 3
EndChar
StartChar: eng
Encoding: 331 331 384
GlifName: eng
Width: 480
VWidth: 0
Flags: W
HStem: -189 66<229.716 338.609> 0 21G<60 130> 418 66<171.763 308.237>
VStem: 60 70<0 373.066> 350 70<-101.295 373.066>
LayerCount: 4
Back
Fore
SplineSet
350 -21 m 6
 350 239 l 6
 350 300 350 344 327 377 c 4
 306 407 271 418 240 418 c 4
 209 418 174 407 153 377 c 4
 130 344 130 300 130 239 c 6
 130 0 l 5
 60 0 l 5
 60 239 l 6
 60 310 60 364 95 414 c 4
 128 461 182 484 240 484 c 4
 298 484 352 461 385 414 c 4
 420 364 420 310 420 239 c 6
 420 -21 l 6
 420 -83 420 -116 387 -151 c 4
 366 -173 333 -189 289 -189 c 4
 263 -189 237 -183 210 -172 c 5
 236 -111 l 5
 254 -119 273 -123 289 -123 c 4
 309 -123 328 -117 339 -102 c 4
 350 -87 350 -69 350 -21 c 6
EndSplineSet
Validated: 1
Layer: 2
Layer: 3
EndChar
StartChar: OE
Encoding: 338 338 193
GlifName: O_E_
Width: 806
VWidth: 0
Flags: W
HStem: -6 70<203.797 356.414 506.278 741> 308 70<495 701> 602 70<203.797 356.414 506.278 741>
VStem: 65 74<136.334 529.666> 421 74<133.875 308 378 532.125>
LayerCount: 4
Back
Fore
SplineSet
436 64 m 1
 397 12 335 -6 280 -6 c 0
 228 -6 167 13 128 55 c 0
 65 122 65 201 65 309 c 2
 65 357 l 2
 65 465 65 544 128 611 c 0
 167 653 228 672 280 672 c 0
 335 672 397 654 436 602 c 1
 442 615 450 627 461 638 c 0
 494 666 534 666 578 666 c 2
 741 666 l 1
 741 596 l 1
 578 596 l 2
 541 596 524 596 512 587 c 0
 495 574 495 552 495 511 c 2
 495 378 l 1
 701 379 l 1
 701 309 l 1
 495 308 l 1
 495 155 l 2
 495 114 495 92 512 79 c 0
 524 70 541 70 578 70 c 2
 741 70 l 1
 741 0 l 1
 578 0 l 2
 534 0 494 -0 461 28 c 0
 450 39 442 51 436 64 c 1
280 602 m 0
 237 602 197 584 175 555 c 0
 139 508 139 455 139 357 c 2
 139 309 l 2
 139 211 139 158 175 111 c 0
 197 82 237 64 280 64 c 0
 323 64 363 82 385 111 c 0
 421 158 421 211 421 309 c 2
 421 357 l 2
 421 455 421 508 385 555 c 0
 363 584 323 602 280 602 c 0
EndSplineSet
Validated: 1
Layer: 2
Layer: 3
EndChar
StartChar: oe
Encoding: 339 339 102
GlifName: oe
Width: 700
VWidth: 0
Flags: W
HStem: -6 66<165.251 284.33 430.072 585.81> 224 62<395 556.015> 418 66<165.127 284.725 434.04 564.731>
VStem: 55 70<102.62 375.165> 325 70<102.973 224 286 375.736> 585 70<305.355 401.466>
LayerCount: 4
Back
Fore
SplineSet
357 66 m 1
 329 28 285 -6 225 -6 c 0
 165 -6 118 25 91 63 c 0
 57 111 55 167 55 239 c 0
 55 311 58 366 91 415 c 0
 117 453 165 484 225 484 c 0
 285 484 332 452 358 412 c 1
 389 456 442 484 509 484 c 0
 538 484 574 478 604 456 c 0
 632 436 655 399 655 356 c 0
 655 309 630 272 600 251 c 0
 561 224 517 224 489 224 c 2
 395 224 l 1
 395 139 395 111 430 82 c 0
 451 64 478 60 499 60 c 0
 533 60 571 72 602 90 c 1
 635 32 l 1
 593 9 547 -6 499 -6 c 0
 432 -6 387 21 357 66 c 1
509 418 m 0
 479 418 447 410 426 390 c 0
 395 359 395 333 395 286 c 1
 489 286 l 2
 514 286 536 286 557 300 c 0
 572 310 585 331 585 356 c 0
 585 368 581 389 562 403 c 0
 542 418 516 418 509 418 c 0
225 60 m 0
 259 60 285 77 301 99 c 0
 325 132 325 183 325 239 c 0
 325 295 325 346 301 379 c 0
 285 401 259 418 225 418 c 0
 191 418 165 401 149 379 c 0
 126 346 125 295 125 239 c 0
 125 183 125 132 149 99 c 0
 165 77 191 60 225 60 c 0
EndSplineSet
Validated: 1
Layer: 2
Layer: 3
EndChar
StartChar: scedilla
Encoding: 351 351 278
GlifName: scedilla
Width: 424
VWidth: 0
UnlinkRmOvrlpSave: 1
Flags: W
HStem: -189 52<141.462 230.453> -5 65<93.3445 185 229 287.659> 418 66<136.781 318.041>
VStem: 45 70<305.99 396.901> 243 56<-129.845 -73.0988> 313 70<85.2094 180.465>
LayerCount: 4
Back
Fore
SplineSet
146 -128 m 1
 160 -134 175 -137 187 -137 c 0
 196 -137 209 -137 223 -130 c 0
 235 -123 243 -113 243 -100 c 0
 243 -90 238 -80 227 -74 c 0
 219 -70 211 -70 202 -70 c 2
 165 -70 l 1
 185 -5 l 1
 138 -3 88 9 44 31 c 1
 73 91 l 1
 113 70 161 60 209 60 c 0
 299 60 313 109 313 132 c 0
 313 149 306 169 287 184 c 0
 270 197 253 204 206 212 c 0
 176 217 144 223 114 240 c 0
 71 265 45 305 45 352 c 0
 45 410 91 484 209 484 c 0
 258 484 311 473 360 451 c 1
 333 390 l 1
 294 408 251 418 209 418 c 0
 136 418 115 380 115 352 c 0
 115 333 125 312 146 299 c 0
 165 287 188 282 218 277 c 0
 264 269 293 262 325 240 c 0
 363 214 383 172 383 132 c 0
 383 71 338 2 229 -5 c 1
 220 -37 l 1
 241 -37 257 -37 276 -50 c 0
 291 -61 299 -79 299 -99 c 0
 299 -127 284 -149 268 -163 c 0
 250 -178 221 -189 187 -189 c 0
 169 -189 149 -186 130 -178 c 1
 146 -128 l 1
EndSplineSet
Layer: 2
Layer: 3
EndChar
StartChar: uni0163
Encoding: 355 355 282
GlifName: uni0163
Width: 298
VWidth: 0
UnlinkRmOvrlpSave: 1
Flags: W
HStem: -189 52<108.462 197.453> -6 66<196 243.156> 416 62<130 240>
VStem: 60 70<71.3266 416 478 591> 210 56<-129.845 -73.0988>
LayerCount: 4
Back
Fore
SplineSet
113 -128 m 1
 127 -134 142 -137 154 -137 c 0
 163 -137 176 -137 190 -130 c 0
 202 -123 210 -113 210 -100 c 0
 210 -90 205 -80 194 -74 c 0
 186 -70 178 -70 169 -70 c 2
 132 -70 l 1
 153 -2 l 1
 128 4 108 17 93 32 c 0
 60 67 60 100 60 182 c 2
 60 591 l 1
 130 591 l 1
 130 478 l 1
 240 478 l 1
 240 416 l 1
 130 416 l 1
 130 182 l 2
 130 114 130 96 141 81 c 0
 152 66 171 60 191 60 c 0
 207 60 226 64 244 72 c 1
 270 11 l 1
 245 1 220 -5 196 -6 c 1
 187 -37 l 1
 208 -37 224 -37 243 -50 c 0
 258 -61 266 -79 266 -99 c 0
 266 -127 251 -149 235 -163 c 0
 217 -178 188 -189 154 -189 c 0
 136 -189 116 -186 97 -178 c 1
 113 -128 l 1
EndSplineSet
Layer: 2
Layer: 3
EndChar
StartChar: Tbar
Encoding: 358 358 385
GlifName: T_bar
Width: 560
VWidth: 0
Flags: W
HStem: 0 21G<243 317> 272 62<148 243 317 412> 597 70<55 243 317 505>
VStem: 243 74<0 272 334 597>
LayerCount: 4
Back
Fore
SplineSet
55 667 m 1
 505 667 l 1
 505 597 l 1
 317 597 l 1
 317 334 l 1
 412 334 l 5
 412 272 l 5
 317 272 l 1
 317 0 l 1
 243 0 l 1
 243 272 l 1
 148 272 l 1
 148 334 l 1
 243 334 l 1
 243 597 l 1
 55 597 l 1
 55 667 l 1
EndSplineSet
Validated: 1
Layer: 2
Layer: 3
EndChar
StartChar: tbar
Encoding: 359 359 386
GlifName: tbar
Width: 415
VWidth: 0
Flags: W
HStem: -6 66<243.391 353.328> 272 62<82 162 232 342> 415 62<82 162 232 342>
VStem: 162 70<81.7053 272 334 415 477 591>
LayerCount: 4
Back
Fore
SplineSet
162 591 m 1
 232 591 l 1
 232 477 l 1
 342 477 l 1
 342 415 l 1
 232 415 l 1
 232 334 l 1
 342 334 l 1
 342 272 l 1
 232 272 l 1
 232 132 l 2
 232 114 232 96 243 81 c 0
 254 66 273 60 293 60 c 0
 309 60 328 64 346 72 c 1
 375 12 l 1
 349 1 322 -6 293 -6 c 0
 249 -6 216 10 195 32 c 0
 162 67 162 106 162 132 c 2
 162 272 l 1
 82 272 l 1
 82 334 l 1
 162 334 l 1
 162 415 l 1
 82 415 l 1
 82 477 l 1
 162 477 l 1
 162 591 l 1
EndSplineSet
Validated: 1
Layer: 2
Layer: 3
EndChar
StartChar: Uogonek
Encoding: 370 370 387
GlifName: U_ogonek
Width: 570
VWidth: 0
UnlinkRmOvrlpSave: 1
Flags: W
HStem: -189 56<250.449 332.546> 646 20G<70 144 426 500>
VStem: 70 74<121.822 666> 191 56<-130.268 -42.7778> 426 74<121.822 666>
LayerCount: 4
Back
Fore
SplineSet
144 666 m 1
 144 269 l 2
 144 190 144 139 182 101 c 0
 205 78 241 64 285 64 c 0
 329 64 365 78 388 101 c 0
 426 139 426 190 426 269 c 2
 426 666 l 1
 500 666 l 1
 500 269 l 2
 500 186 500 111 442 53 c 0
 418 29 386 11 348 1 c 0
 295 -13 247 -44 247 -96 c 0
 247 -117 262 -133 283 -133 c 0
 295 -133 308 -128 322 -119 c 1
 352 -167 l 1
 333 -178 310 -189 283 -189 c 0
 231 -189 191 -148 191 -96 c 0
 191 -53 219 -24 260 -4 c 1
 201 1 160 22 128 53 c 0
 70 111 70 186 70 269 c 2
 70 666 l 1
 144 666 l 1
EndSplineSet
Layer: 2
Layer: 3
EndChar
StartChar: uogonek
Encoding: 371 371 388
GlifName: uogonek
Width: 480
VWidth: 0
UnlinkRmOvrlpSave: 1
Flags: W
HStem: -189 56<207.449 289.546>
VStem: 60 70<104.934 478> 148 56<-130.268 -39.5702> 350 70<104.934 478>
LayerCount: 4
Back
Fore
SplineSet
60 478 m 1
 130 478 l 1
 130 239 l 2
 130 178 130 134 153 101 c 0
 174 71 209 60 240 60 c 0
 271 60 306 71 327 101 c 0
 350 134 350 178 350 239 c 2
 350 478 l 1
 420 478 l 1
 420 239 l 2
 420 168 420 114 385 64 c 0
 363 33 332 12 296 2 c 0
 250 -11 204 -42 204 -96 c 0
 204 -117 219 -133 240 -133 c 0
 252 -133 265 -128 279 -119 c 1
 309 -167 l 1
 290 -178 267 -189 240 -189 c 0
 188 -189 148 -148 148 -96 c 0
 148 -53 174 -23 213 -4 c 1
 160 4 123 26 95 64 c 0
 60 114 60 168 60 239 c 2
 60 478 l 1
EndSplineSet
Layer: 2
Layer: 3
EndChar
StartChar: longs
Encoding: 383 383 460
GlifName: longs
Width: 354
Flags: W
HStem: 0 21G<115 185> 416 62<35 115> 606 66<203.557 306.564>
VStem: 115 70<0 416 478 587.233>
LayerCount: 4
Back
Fore
SplineSet
256 672 m 4
 281 672 302 667 321 662 c 5
 303 598 l 5
 284 603 268 606 256 606 c 4
 235 606 215 599 202 583 c 4
 185 562 185 536 185 482 c 6
 185 0 l 5
 115 0 l 5
 115 416 l 5
 35 416 l 5
 35 478 l 5
 115 478 l 5
 115 482 l 6
 115 543 115 582 144 620 c 4
 170 654 211 672 256 672 c 4
EndSplineSet
Validated: 1
Layer: 2
Layer: 3
EndChar
StartChar: uni018F
Encoding: 399 399 395
GlifName: uni018F_
Width: 580
Flags: W
HStem: -6 70<203.358 376.642> 267 66<139 441> 602 70<193.239 377.691>
VStem: 65 74<130.248 267> 441 74<130.248 267 333 534.819>
AnchorPoint: "DoubleTop" 0 0 basechar 0
AnchorPoint: "Apos" 0 0 basechar 0
AnchorPoint: "Center" 0 0 basechar 0
AnchorPoint: "Bottom" 290 0 basechar 0
AnchorPoint: "Top" 290 667 basechar 0
LayerCount: 4
Back
Fore
SplineSet
441 267 m 1
 139 267 l 1
 139 190 141 137 187 97 c 0
 211 76 246 64 290 64 c 0
 334 64 369 76 393 97 c 0
 439 137 441 190 441 267 c 1
290 672 m 0
 350 672 405 654 444 620 c 0
 515 558 515 474 515 387 c 2
 515 279 l 2
 515 191 515 107 443 45 c 0
 401 9 345 -6 290 -6 c 0
 235 -6 179 9 137 45 c 0
 65 107 65 191 65 279 c 2
 65 333 l 1
 441 333 l 1
 441 387 l 2
 441 468 441 528 392 570 c 0
 364 594 324 602 290 602 c 0
 241 602 193 587 157 558 c 1
 113 614 l 1
 163 654 229 672 290 672 c 0
EndSplineSet
Validated: 1
Layer: 2
Layer: 3
EndChar
StartChar: uni01EA
Encoding: 490 490 406
GlifName: uni01E_A_
Width: 600
VWidth: 0
UnlinkRmOvrlpSave: 1
Flags: W
HStem: -189 56<267.449 349.546> 602 70<211.13 388.87>
VStem: 65 74<137.639 528.361> 208 56<-130.268 -41.6994> 461 74<137.639 528.361>
LayerCount: 4
Back
Fore
SplineSet
300 602 m 0
 257 602 216 590 186 562 c 0
 139 518 139 458 139 377 c 2
 139 289 l 2
 139 208 139 148 186 104 c 0
 216 76 257 64 300 64 c 0
 343 64 384 76 414 104 c 0
 461 148 461 208 461 289 c 2
 461 377 l 2
 461 458 461 518 414 562 c 0
 384 590 343 602 300 602 c 0
371 3 m 0
 324 -9 264 -37 264 -96 c 0
 264 -117 279 -133 300 -133 c 0
 312 -133 325 -128 339 -119 c 1
 369 -167 l 1
 350 -178 327 -189 300 -189 c 0
 248 -189 208 -148 208 -96 c 0
 208 -54 239 -19 277 -5 c 1
 216 0 169 22 134 54 c 0
 65 119 65 200 65 289 c 2
 65 377 l 2
 65 466 65 547 134 612 c 0
 173 649 233 672 300 672 c 0
 367 672 427 649 466 612 c 0
 535 547 535 466 535 377 c 2
 535 289 l 2
 535 202 535 119 466 54 c 0
 434 24 398 10 371 3 c 0
EndSplineSet
Layer: 2
Layer: 3
EndChar
StartChar: uni01EB
Encoding: 491 491 407
GlifName: uni01E_B_
Width: 490
VWidth: 0
UnlinkRmOvrlpSave: 1
Flags: W
HStem: -189 56<212.449 294.546> 418 66<172.319 317.681>
VStem: 55 70<108.461 369.539> 153 56<-130.268 -40.0195> 365 70<108.461 369.539>
LayerCount: 4
Back
Fore
SplineSet
245 484 m 0
 306 484 365 460 400 409 c 0
 435 358 435 297 435 239 c 0
 435 181 435 120 400 69 c 0
 376 34 340 11 300 1 c 0
 253 -11 209 -47 209 -96 c 0
 209 -117 224 -133 245 -133 c 0
 257 -133 270 -128 284 -119 c 1
 314 -167 l 1
 295 -178 272 -189 245 -189 c 0
 193 -189 153 -148 153 -96 c 0
 153 -53 179 -24 219 -4 c 1
 162 3 120 27 90 69 c 0
 55 120 55 181 55 239 c 0
 55 297 55 358 90 409 c 0
 125 460 184 484 245 484 c 0
245 418 m 0
 205 418 170 403 150 375 c 0
 125 340 125 293 125 239 c 0
 125 185 125 138 150 103 c 0
 170 75 205 60 245 60 c 0
 285 60 320 75 340 103 c 0
 365 138 365 185 365 239 c 0
 365 293 365 340 340 375 c 0
 320 403 285 418 245 418 c 0
EndSplineSet
Layer: 2
Layer: 3
EndChar
StartChar: uni0228
Encoding: 552 552 506
GlifName: uni0228
Width: 500
VWidth: 0
HStem: -189 52<187.462 276.453> 0 70<156.697 233 277 435> 308 70<149 385> 596 70<156.697 435>
VStem: 75 74<76.7269 308 378 589.273> 289 56<-129.845 -73.0988>
LayerCount: 4
Back
Fore
SplineSet
192 -128 m 1
 206 -134 221 -137 233 -137 c 0
 242 -137 255 -137 269 -130 c 0
 281 -123 289 -113 289 -100 c 0
 289 -90 284 -80 273 -74 c 0
 265 -70 257 -70 248 -70 c 2
 211 -70 l 1
 233 0 l 1
 232 0 l 2
 188 0 148 0 115 28 c 0
 75 63 75 107 75 155 c 2
 75 511 l 2
 75 559 75 603 115 638 c 0
 148 666 188 666 232 666 c 2
 435 666 l 1
 435 596 l 1
 232 596 l 2
 195 596 178 596 166 587 c 0
 149 574 149 552 149 511 c 2
 149 378 l 1
 385 379 l 1
 385 309 l 1
 149 308 l 1
 149 155 l 2
 149 114 149 92 166 79 c 0
 178 70 195 70 232 70 c 2
 435 70 l 1
 435 0 l 1
 277 0 l 1
 266 -37 l 1
 287 -37 303 -37 322 -50 c 0
 337 -61 345 -79 345 -99 c 0
 345 -127 330 -149 314 -163 c 0
 296 -178 267 -189 233 -189 c 0
 215 -189 195 -186 176 -178 c 1
 192 -128 l 1
EndSplineSet
Validated: 1
Layer: 2
Layer: 3
EndChar
StartChar: uni0229
Encoding: 553 553 507
GlifName: uni0229
Width: 469
VWidth: 0
HStem: -189 52<181.462 270.453> -4.98291 64.9829<168.917 225.434 269.368 357.737> 218 62<121 334.875> 418 66<171.776 329.281>
VStem: 50 70<109.84 218 280 366.495> 283 56<-129.845 -73.0988> 354 70<299.65 393.802>
LayerCount: 4
Back
Fore
SplineSet
186 -128 m 1
 200 -134 215 -137 227 -137 c 0
 236 -137 249 -137 263 -130 c 0
 275 -123 283 -113 283 -100 c 0
 283 -90 278 -80 267 -74 c 0
 259 -70 251 -70 242 -70 c 2
 205 -70 l 1
 225.433942718 -4.98290953236 l 1
 165.632160182 0.092824486077 120.132818605 23.9218672304 91 61 c 0
 53 111 50 165 50 249 c 0
 50 313 56 367 88 410 c 0
 121 456 181 484 254 484 c 0
 301 484 346 472 378 444 c 0
 406 420 424 387 424 347 c 0
 424 307 404 273 380 254 c 0
 334 218 291 218 228 218 c 2
 120 218 l 1
 121 163 126 128 147 101 c 0
 168 74 201 60 250 60 c 0
 294 60 336 69 374 89 c 1
 403 29 l 1
 360.948731373 7.97436568671 315.059986199 -3.07382960299 269.368033406 -5.48934217866 c 1
 260 -37 l 1
 281 -37 297 -37 316 -50 c 0
 331 -61 339 -79 339 -99 c 0
 339 -127 324 -149 308 -163 c 0
 290 -178 261 -189 227 -189 c 0
 209 -189 189 -186 170 -178 c 1
 186 -128 l 1
254 418 m 0
 215 418 173 407 148 376 c 0
 123 345 121 296 121 280 c 1
 228 280 l 2
 276 280 309 280 331 298 c 0
 344 309 354 325 354 347 c 0
 354 368 344 385 330 396 c 0
 311 411 286 418 254 418 c 0
EndSplineSet
Validated: 1
Layer: 2
Layer: 3
EndChar
StartChar: uni0237
Encoding: 567 567 412
GlifName: uni0237
Width: 210
Flags: W
HStem: -189 66<-50.2844 58.6088>
VStem: 70 70<-101.295 478>
LayerCount: 4
Back
Fore
SplineSet
70 478 m 1
 140 478 l 1
 140 -21 l 2
 140 -83 140 -116 107 -151 c 0
 86 -173 53 -189 9 -189 c 0
 -17 -189 -43 -183 -70 -172 c 1
 -44 -111 l 1
 -26 -119 -7 -123 9 -123 c 0
 29 -123 48 -117 59 -102 c 0
 70 -87 70 -69 70 -21 c 2
 70 478 l 1
EndSplineSet
Validated: 1
Layer: 2
Layer: 3
EndChar
StartChar: uni0259
Encoding: 601 601 396
GlifName: uni0259
Width: 469
Flags: W
HStem: -6 66<139.719 297.224> 198 62<134.125 348> 418 66<110.589 300.817>
VStem: 45 70<84.1975 178.35> 348 71<109.571 198 260 370.52>
LayerCount: 4
Back
Fore
SplineSet
215 -6 m 4
 168 -6 123 6 91 34 c 4
 63 58 45 91 45 131 c 4
 45 171 65 205 89 224 c 4
 135 260 178 260 241 260 c 6
 349 260 l 5
 348 315 343 350 322 377 c 4
 301 404 268 418 219 418 c 4
 175 418 133 409 95 389 c 5
 66 449 l 5
 114 473 167 484 219 484 c 4
 291 484 345 459 378 417 c 4
 416 367 419 313 419 229 c 4
 419 165 413 111 381 68 c 4
 348 22 288 -6 215 -6 c 4
215 60 m 4
 254 60 296 71 321 102 c 4
 346 133 348 182 348 198 c 5
 241 198 l 6
 193 198 160 198 138 180 c 4
 125 169 115 153 115 131 c 4
 115 110 125 93 139 82 c 4
 158 67 183 60 215 60 c 4
EndSplineSet
Validated: 1
Layer: 2
Layer: 3
EndChar
StartChar: uni02BC
Encoding: 700 700 435
GlifName: uni02B_C_
Width: 202
Flags: W
HStem: 456 216<82.7301 98>
VStem: 50 102<578 664.037>
AnchorPoint: "Apos" 22 666 mark 0
LayerCount: 4
Back
Fore
SplineSet
50 621 m 0
 50 652 71 672 101 672 c 0
 131 672 152 652 152 621 c 0
 152 608 148 596 144 584 c 2
 98 456 l 1
 53 456 l 1
 82 573 l 0
 63 579 50 598 50 621 c 0
EndSplineSet
Validated: 1
Layer: 2
Layer: 3
EndChar
StartChar: uni02C9
Encoding: 713 713 456
GlifName: uni02C_9
Width: 350
Flags: W
HStem: 556 56<50 300>
VStem: 50 250<556 612>
AnchorPoint: "Top" 176 478 mark 0
LayerCount: 4
Back
Fore
SplineSet
50 612 m 1
 300 612 l 1
 300 556 l 1
 50 556 l 1
 50 612 l 1
EndSplineSet
Validated: 1
Layer: 2
Layer: 3
EndChar
StartChar: uni02CA
Encoding: 714 714 487
GlifName: uni02C_A_
Width: 253
Flags: W
HStem: 546 120
VStem: 50 153
AnchorPoint: "Top" 96 478 mark 0
LayerCount: 4
Back
Fore
SplineSet
203 666 m 25
 116 546 l 1
 50 546 l 1
 125 666 l 25
 203 666 l 25
EndSplineSet
Validated: 1
Layer: 2
Layer: 3
EndChar
StartChar: breve
Encoding: 728 728 194
GlifName: breve
Width: 348
VWidth: 0
Flags: W
HStem: 540 52<120.652 227.348> 646 20G<50 106 242 298>
VStem: 50 56<605.434 666> 242 56<605.434 666>
AnchorPoint: "Top" 173.002 478 mark 0
LayerCount: 4
Back
Fore
SplineSet
50 666 m 5
 106 666 l 5
 106 617.52 126 592 174 592 c 4
 222 592 242 617.52 242 666 c 5
 298 666 l 5
 298 588.535433071 253 540 174 540 c 4
 95 540 50 588.535433071 50 666 c 5
EndSplineSet
Validated: 1
Layer: 2
Layer: 3
EndChar
StartChar: ogonek
Encoding: 731 731 389
GlifName: ogonek
Width: 266
VWidth: 0
Flags: W
HStem: -189 56<109.449 191.546> 0 20<181.963 191.5>
VStem: 50 56<-130.268 -43.9935>
AnchorPoint: "Bottom" 182 0 mark 0
LayerCount: 4
Back
Fore
SplineSet
50 -96 m 4
 50 -28 126 5 181 20 c 5
 211 0 l 5
 165 -12 106 -39 106 -96 c 4
 106 -117 121 -133 142 -133 c 4
 154 -133 167 -128 181 -119 c 5
 211 -167 l 5
 192 -178 169 -189 142 -189 c 4
 90 -189 50 -148 50 -96 c 4
EndSplineSet
Validated: 1
Layer: 2
Layer: 3
EndChar
StartChar: tilde
Encoding: 732 732 183
GlifName: tilde
Width: 396
Flags: W
HStem: 550 52<199.55 288.503> 588 52<107.497 196.555>
VStem: 50 56<556 585.526> 290 56<604.474 634>
AnchorPoint: "Top" 198 478 mark 0
LayerCount: 4
Back
Fore
SplineSet
258 550 m 0xb0
 229 550 204 562 185 572 c 0
 170 579 156 588 138 588 c 0
 120 588 106 575 106 556 c 1
 50 556 l 1
 50 604 89 640 138 640 c 0x70
 168 640 192 628 211 618 c 0
 226 611 240 602 258 602 c 0
 276 602 290 615 290 634 c 1
 346 634 l 1
 346 586 307 550 258 550 c 0xb0
EndSplineSet
Validated: 1
Layer: 2
Layer: 3
EndChar
StartChar: hungarumlaut
Encoding: 733 733 199
GlifName: hungarumlaut
Width: 387
Flags: W
HStem: 546 120
VStem: 50 287
AnchorPoint: "Top" 173 478 mark 0
LayerCount: 4
Back
Fore
SplineSet
195 666 m 1
 112 546 l 1
 50 546 l 1
 125 666 l 1
 195 666 l 1
337 666 m 1
 250 546 l 1
 188 546 l 1
 267 666 l 1
 337 666 l 1
EndSplineSet
Validated: 1
Layer: 2
Layer: 3
EndChar
StartChar: gravecomb
Encoding: 768 768 410
GlifName: gravecomb
Width: 253
Flags: W
HStem: 546 120
VStem: 50 153
AnchorPoint: "Top" 157 478 mark 0
LayerCount: 4
Back
Fore
SplineSet
50 666 m 25
 128 666 l 25
 203 546 l 1
 137 546 l 1
 50 666 l 25
EndSplineSet
Validated: 1
Layer: 2
Layer: 3
EndChar
StartChar: acutecomb
Encoding: 769 769 411
GlifName: acutecomb
Width: 253
Flags: W
HStem: 546 120
VStem: 50 153
AnchorPoint: "Top" 96 478 mark 0
LayerCount: 4
Back
Fore
SplineSet
203 666 m 25
 116 546 l 1
 50 546 l 1
 125 666 l 25
 203 666 l 25
EndSplineSet
Validated: 1
Layer: 2
Layer: 3
EndChar
StartChar: uni0311
Encoding: 785 785 409
GlifName: uni0311
Width: 348
VWidth: 0
Flags: W
HStem: 620 52<120.652 227.348>
VStem: 50 56<546 606.566> 242 56<546 606.566>
AnchorPoint: "Top" 173.002 478 mark 0
LayerCount: 4
Back
Fore
SplineSet
298 546 m 5
 242 546 l 5
 242 594.48046875 222 620 174 620 c 4
 126 620 106 594.48046875 106 546 c 5
 50 546 l 5
 50 623.46484375 95 672 174 672 c 4
 253 672 298 623.46484375 298 546 c 5
EndSplineSet
Validated: 1
Layer: 2
Layer: 3
EndChar
StartChar: uni0312
Encoding: 786 786 432
GlifName: uni0312
Width: 194
VWidth: 0
Flags: W
HStem: 552 166<97 115.312>
VStem: 50 94<558.851 636.943>
AnchorPoint: "Top" 97 478 mark 0
LayerCount: 4
Back
Fore
SplineSet
50 598 m 0
 50 612 56 625 61 637 c 2
 97 718 l 1
 142 718 l 1
 116 640 l 0
 132 634 144 619 144 598 c 0
 144 571 123 552 97 552 c 0
 71 552 50 571 50 598 c 0
EndSplineSet
Validated: 1
Layer: 2
Layer: 3
EndChar
StartChar: uni0315
Encoding: 789 789 431
GlifName: uni0315
Width: 202
Flags: W
HStem: 455 217<82.7301 98>
VStem: 50 102<577.953 664.037>
AnchorPoint: "Apos" 22 666 mark 0
LayerCount: 4
Back
Fore
SplineSet
50 621 m 0
 50 652 71 672 101 672 c 0
 131 672 152 652 152 621 c 0
 152 608 148 596 144 584 c 2
 98 455 l 1
 53 455 l 1
 82 573 l 0
 63 579 50 598 50 621 c 0
EndSplineSet
Validated: 1
Layer: 2
Layer: 3
EndChar
StartChar: dotbelowcomb
Encoding: 803 803 433
GlifName: dotbelowcomb
Width: 194
VWidth: 0
Flags: W
HStem: -167 94<56.5618 137.438>
VStem: 50 94<-160.103 -79.8974>
AnchorPoint: "Bottom" 97 0 mark 0
LayerCount: 4
Back
Fore
SplineSet
97 -73 m 4
 124 -73 144 -92 144 -120 c 4
 144 -148 124 -167 97 -167 c 4
 70 -167 50 -148 50 -120 c 4
 50 -92 70 -73 97 -73 c 4
EndSplineSet
Validated: 1
Layer: 2
Layer: 3
EndChar
StartChar: uni03A9
Encoding: 937 937 428
GlifName: uni03A_9
Width: 600
VWidth: 0
Flags: W
HStem: 0 70<65 156 444 535> 603 70<198.809 401.284>
VStem: 65 74<188.5 540.808> 461 74<188.5 540.024>
AnchorPoint: "DoubleTop" 0 0 basechar 0
AnchorPoint: "Apos" 0 0 basechar 0
AnchorPoint: "Center" 5 0 basechar 0
AnchorPoint: "Bottom" 270 0 basechar 0
AnchorPoint: "Top" 270 667 basechar 0
LayerCount: 4
Back
Fore
SplineSet
300 673 m 0
 431 673 506 619 528 517 c 0
 534 492 535 468 535 438 c 2
 535 309 l 2
 535 213 512 148 444 70 c 1
 535 70 l 1
 535 0 l 1
 350 0 l 1
 350 50 l 1
 443 157 461 226 461 309 c 2
 461 438 l 2
 461 470 459 494 451 518 c 0
 432 575 386 603 300 603 c 0
 214 603 168 575 149 518 c 0
 141 493 139 470 139 438 c 2
 139 309 l 2
 139 226 157 157 250 50 c 1
 250 0 l 1
 65 0 l 1
 65 70 l 1
 156 70 l 1
 88 148 65 213 65 309 c 2
 65 438 l 2
 65 468 66 493 72 518 c 0
 95 619 169 673 300 673 c 0
EndSplineSet
Validated: 1
Layer: 2
SplineSet
250 0 m 5
 65 0 l 5
 65 64 l 5
 142 64 l 5
 98 107 65 183 65 302 c 6
 65 446 l 6
 65 611 173 673 300 673 c 4
 427 673 535 611 535 446 c 6
 535 302 l 6
 535 183 502 107 458 64 c 5
 535 64 l 5
 535 0 l 5
 350 0 l 5
 350 64 l 5
 400 64 461 144 461 302 c 6
 461 446 l 6
 461 563 390 603 300 603 c 4
 210 603 139 563 139 446 c 6
 139 302 l 6
 139 144 200 64 250 64 c 5
 250 0 l 5
EndSplineSet
Layer: 3
EndChar
StartChar: beta
Encoding: 946 946 482
GlifName: beta
Width: 530
VWidth: 0
Flags: W
HStem: 0 66<135 343.979> 311 64<195 331.393> 601 66<185.437 332.488>
VStem: 65 70<-185 0 66 549.719> 376 70<418.338 558.72> 395 70<114.208 256.2>
LayerCount: 4
Back
Fore
SplineSet
270 66 m 2xf8
 351 66 395 118 395 189 c 0xf4
 395 252 344 311 260 311 c 2
 195 311 l 1
 195 375 l 1
 260 375 l 2
 339 375 376 429 376 488 c 0
 376 553 335 601 260 601 c 0
 179 601 135 546 135 474 c 2
 135 66 l 1
 270 66 l 2xf8
135 0 m 1
 135 -185 l 1
 65 -185 l 1
 65 474 l 2
 65 582 135 667 260 667 c 0
 380 667 446 590 446 487 c 0xf8
 446 425 413 371 369 344 c 1
 429 323 465 258 465 189 c 0
 465 82 395 0 270 0 c 2
 135 0 l 1
EndSplineSet
Validated: 1
Layer: 2
Layer: 3
EndChar
StartChar: uni03BC
Encoding: 956 956 484
GlifName: uni03B_C_
Width: 485
Flags: W
HStem: -6 66<176.859 312.952>
VStem: 65 70<-183 45 102.555 478> 355 70<104.568 478>
AnchorPoint: "DoubleTop" 5 0 basechar 0
AnchorPoint: "Apos" 5 0 basechar 0
AnchorPoint: "Center" -10 0 basechar 0
AnchorPoint: "Bottom" 245 0 basechar 0
AnchorPoint: "Top" 245 476 basechar 0
LayerCount: 4
Back
Fore
SplineSet
65 478 m 5
 135 478 l 5
 135 239 l 6
 135 178 135 134 158 101 c 4
 179 71 214 60 245 60 c 4
 276 60 311 71 332 101 c 4
 355 134 355 178 355 239 c 6
 355 478 l 5
 425 478 l 5
 425 239 l 6
 425 168 425 110 389 61 c 4
 359 20 309 -6 250 -6 c 4
 204 -6 165 14 135 45 c 5
 135 -183 l 5
 65 -183 l 5
 65 478 l 5
EndSplineSet
Validated: 1
Layer: 2
Layer: 3
EndChar
StartChar: pi
Encoding: 960 960 483
GlifName: pi
Width: 520
VWidth: 0
Flags: W
HStem: 0 21G<105 175 345 415> 411 66<45 105 175 345 415 475>
VStem: 105 70<0 411> 345 70<0 411>
LayerCount: 4
Back
Fore
SplineSet
45 477 m 1
 475 477 l 1
 475 411 l 1
 415 411 l 1
 415 0 l 17
 345 0 l 9
 345 411 l 1
 175 411 l 1
 175 0 l 1
 105 0 l 1
 105 411 l 1
 45 411 l 1
 45 477 l 1
EndSplineSet
Validated: 1
Layer: 2
Layer: 3
EndChar
StartChar: tau
Encoding: 964 964 458
Width: 1000
VWidth: 0
LayerCount: 4
Back
SplineSet
45 477 m 5
 375 477 l 5
 375 411 l 5
 245 411 l 5
 245 124 l 6
 245 79 270 60 295 60 c 6
 305 60 l 5
 305 -6 l 5
 295 -6 l 6
 236 -6 175 35 175 124 c 6
 175 411 l 5
 45 411 l 5
 45 477 l 5
EndSplineSet
Fore
Validated: 1
Layer: 2
Layer: 3
EndChar
StartChar: Eszett
Encoding: 7838 7838 481
GlifName: E_szett
Width: 632
VWidth: 0
Flags: W
HStem: -6 70<274.09 454.582> 597 70<200.531 433>
VStem: 70 74<0 541.257> 508 74<115.29 244.889>
LayerCount: 4
Back
Fore
SplineSet
324 667 m 2
 522 667 l 1
 522 608 l 1
 397 378 l 1
 438 366 479 350 516 319 c 0
 552 289 582 240 582 179 c 0
 582 127 558 77 516 42 c 0
 474 7 419 -6 369 -6 c 0
 316 -6 258 9 211 40 c 1
 249 100 l 1
 284 76 327 64 369 64 c 0
 406 64 441 74 465 93 c 0
 493 115 508 149 508 179 c 0
 508 217 490 248 464 269 c 0
 428 298 375 312 321 327 c 1
 321 391 l 1
 433 597 l 1
 324 597 l 2
 271 597 205 597 168 546 c 0
 144 513 144 473 144 438 c 2
 144 0 l 1
 70 0 l 1
 70 438 l 2
 70 480 70 539 112 592 c 0
 172 667 263 667 324 667 c 2
EndSplineSet
Validated: 1
Layer: 2
Layer: 3
EndChar
StartChar: endash
Encoding: 8211 8211 93
GlifName: endash
Width: 500
Flags: W
HStem: 221 58<80 420>
LayerCount: 4
Back
Fore
SplineSet
80 221 m 1
 80 279 l 1
 420 279 l 1
 420 221 l 1
 80 221 l 1
EndSplineSet
Validated: 1
Layer: 2
Layer: 3
EndChar
StartChar: quoteleft
Encoding: 8216 8216 87
GlifName: quoteleft
Width: 202
Flags: W
HStem: 450 217<104 119.27>
VStem: 50 102<457.963 544.047>
LayerCount: 4
Back
Fore
SplineSet
152 501 m 0
 152 470 131 450 101 450 c 0
 71 450 50 470 50 501 c 0
 50 514 54 526 58 538 c 2
 104 667 l 1
 149 667 l 1
 120 549 l 0
 139 543 152 524 152 501 c 0
EndSplineSet
Validated: 1
Layer: 2
Layer: 3
EndChar
StartChar: quotesinglbase
Encoding: 8218 8218 109
Width: 202
Flags: W
HStem: -121 217<82.7301 98>
VStem: 50 102<1.95312 88.0371>
LayerCount: 4
Back
Fore
SplineSet
50 45 m 0
 50 76 71 96 101 96 c 0
 131 96 152 76 152 45 c 0
 152 32 148 20 144 8 c 2
 98 -121 l 1
 53 -121 l 1
 82 -3 l 0
 63 3 50 22 50 45 c 0
EndSplineSet
Validated: 1
Layer: 2
Layer: 3
EndChar
StartChar: quotereversed
Encoding: 8219 8219 475
GlifName: quotereversed
Width: 202
Flags: W
HStem: 456 217<104 119.27>
VStem: 50 102<578.953 665.037>
LayerCount: 4
Back
Fore
SplineSet
152 622 m 0
 152 599 139 580 120 574 c 0
 149 456 l 1
 104 456 l 1
 58 585 l 2
 54 597 50 609 50 622 c 0
 50 653 71 673 101 673 c 0
 131 673 152 653 152 622 c 0
EndSplineSet
Validated: 1
Layer: 2
Layer: 3
EndChar
StartChar: quotedblleft
Encoding: 8220 8220 88
GlifName: quotedblleft
Width: 362
Flags: W
HStem: 450 217<104 119.27 264 279.27>
VStem: 50 102<457.963 544.047> 210 102<457.963 544.047>
LayerCount: 4
Back
Fore
SplineSet
152 501 m 0
 152 470 131 450 101 450 c 0
 71 450 50 470 50 501 c 0
 50 514 54 526 58 538 c 2
 104 667 l 1
 149 667 l 1
 120 549 l 0
 139 543 152 524 152 501 c 0
312 501 m 0
 312 470 291 450 261 450 c 0
 231 450 210 470 210 501 c 0
 210 514 214 526 218 538 c 2
 264 667 l 1
 309 667 l 1
 280 549 l 0
 299 543 312 524 312 501 c 0
EndSplineSet
Validated: 1
Layer: 2
Layer: 3
EndChar
StartChar: quotedblright
Encoding: 8221 8221 85
GlifName: quotedblright
Width: 362
Flags: W
HStem: 456 217<82.7301 98 242.73 258>
VStem: 50 102<578.953 665.037> 210 102<578.953 665.037>
LayerCount: 4
Back
Fore
SplineSet
210 622 m 0
 210 653 231 673 261 673 c 0
 291 673 312 653 312 622 c 0
 312 609 308 597 304 585 c 2
 258 456 l 1
 213 456 l 1
 242 574 l 0
 223 580 210 599 210 622 c 0
50 622 m 0
 50 653 71 673 101 673 c 0
 131 673 152 653 152 622 c 0
 152 609 148 597 144 585 c 2
 98 456 l 1
 53 456 l 1
 82 574 l 0
 63 580 50 599 50 622 c 0
EndSplineSet
Validated: 1
Layer: 2
Layer: 3
EndChar
StartChar: dagger
Encoding: 8224 8224 413
GlifName: dagger
Width: 394
VWidth: 0
Flags: W
HStem: 417 60<55 162 232 339> 647 20G<162 232>
VStem: 162 70<-185 417 477 667>
LayerCount: 4
Back
Fore
SplineSet
162 667 m 1
 232 667 l 1
 232 477 l 1
 339 477 l 1
 339 417 l 1
 232 417 l 1
 232 -185 l 1
 162 -185 l 1
 162 417 l 1
 55 417 l 1
 55 477 l 1
 162 477 l 1
 162 667 l 1
EndSplineSet
Validated: 1
Layer: 2
Layer: 3
EndChar
StartChar: daggerdbl
Encoding: 8225 8225 414
GlifName: daggerdbl
Width: 394
VWidth: 0
Flags: W
HStem: 0 60<55 162 232 339> 417 60<55 162 232 339> 647 20G<162 232>
VStem: 162 70<-185 0 60 417 477 667>
LayerCount: 4
Back
Fore
SplineSet
162 667 m 1
 232 667 l 1
 232 477 l 1
 339 477 l 1
 339 417 l 1
 232 417 l 1
 232 60 l 1
 339 60 l 1
 339 0 l 1
 232 0 l 1
 232 -185 l 1
 162 -185 l 1
 162 0 l 1
 55 0 l 1
 55 60 l 1
 162 60 l 1
 162 417 l 1
 55 417 l 1
 55 477 l 1
 162 477 l 1
 162 667 l 1
EndSplineSet
Validated: 1
Layer: 2
Layer: 3
EndChar
StartChar: perthousand
Encoding: 8240 8240 103
GlifName: perthousand
Width: 992
VWidth: 0
Flags: W
HStem: -6 58<464.946 559.054 764.946 859.054> 237 58<464.946 559.054 764.946 859.054> 372 58<132.946 227.054> 615 58<132.946 227.054>
VStem: 60 60<453.799 591.201> 240 60<453.799 591.201> 392 60<75.7991 213.201> 572 60<75.7991 213.201> 692 60<75.7991 213.201> 872 60<75.7991 213.201>
LayerCount: 4
Back
Fore
SplineSet
812 295 m 0
 851 295 884 278 904 254 c 0
 932 220 932 184 932 159 c 2
 932 130 l 2
 932 105 932 69 904 35 c 0
 884 11 851 -6 812 -6 c 0
 773 -6 740 11 720 35 c 0
 692 69 692 105 692 130 c 2
 692 159 l 2
 692 184 692 220 720 254 c 0
 740 278 773 295 812 295 c 0
812 237 m 0
 792 237 775 229 764 214 c 0
 752 197 752 177 752 159 c 2
 752 130 l 2
 752 112 752 92 764 75 c 0
 775 60 792 52 812 52 c 0
 832 52 849 60 860 75 c 0
 872 92 872 112 872 130 c 2
 872 159 l 2
 872 177 872 197 860 214 c 0
 849 229 832 237 812 237 c 0
180 673 m 0
 219 673 252 656 272 632 c 0
 300 598 300 562 300 537 c 2
 300 508 l 2
 300 483 300 447 272 413 c 0
 252 389 219 372 180 372 c 0
 141 372 108 389 88 413 c 0
 60 447 60 483 60 508 c 2
 60 537 l 2
 60 562 60 598 88 632 c 0
 108 656 141 673 180 673 c 0
180 615 m 0
 160 615 143 607 132 592 c 0
 120 575 120 555 120 537 c 2
 120 508 l 2
 120 490 120 470 132 453 c 0
 143 438 160 430 180 430 c 0
 200 430 217 438 228 453 c 0
 240 470 240 490 240 508 c 2
 240 537 l 2
 240 555 240 575 228 592 c 0
 217 607 200 615 180 615 c 0
486 667 m 1
 560 667 l 1
 200 0 l 1
 126 0 l 1
 486 667 l 1
512 295 m 0
 551 295 584 278 604 254 c 0
 632 220 632 184 632 159 c 2
 632 130 l 2
 632 105 632 69 604 35 c 0
 584 11 551 -6 512 -6 c 0
 473 -6 440 11 420 35 c 0
 392 69 392 105 392 130 c 2
 392 159 l 2
 392 184 392 220 420 254 c 0
 440 278 473 295 512 295 c 0
512 237 m 0
 492 237 475 229 464 214 c 0
 452 197 452 177 452 159 c 2
 452 130 l 2
 452 112 452 92 464 75 c 0
 475 60 492 52 512 52 c 0
 532 52 549 60 560 75 c 0
 572 92 572 112 572 130 c 2
 572 159 l 2
 572 177 572 197 560 214 c 0
 549 229 532 237 512 237 c 0
EndSplineSet
Validated: 1
Layer: 2
Layer: 3
EndChar
StartChar: uni2031
Encoding: 8241 8241 478
GlifName: uni2031
Width: 1292
VWidth: 0
Flags: W
HStem: -6 58<464.946 559.054 764.946 859.054 1064.95 1159.05> 237 58<464.946 559.054 764.946 859.054 1064.95 1159.05> 372 58<132.946 227.054> 615 58<132.946 227.054>
VStem: 60 60<453.799 591.201> 240 60<453.799 591.201> 392 60<75.7991 213.201> 572 60<75.7991 213.201> 692 60<75.7991 213.201> 872 60<75.7991 213.201> 992 60<75.7991 213.201> 1172 60<75.7991 213.201>
LayerCount: 4
Back
Fore
SplineSet
1112 295 m 0
 1151 295 1184 278 1204 254 c 0
 1232 220 1232 184 1232 159 c 2
 1232 130 l 2
 1232 105 1232 69 1204 35 c 0
 1184 11 1151 -6 1112 -6 c 0
 1073 -6 1040 11 1020 35 c 0
 992 69 992 105 992 130 c 2
 992 159 l 2
 992 184 992 220 1020 254 c 0
 1040 278 1073 295 1112 295 c 0
1112 237 m 0
 1092 237 1075 229 1064 214 c 0
 1052 197 1052 177 1052 159 c 2
 1052 130 l 2
 1052 112 1052 92 1064 75 c 0
 1075 60 1092 52 1112 52 c 0
 1132 52 1149 60 1160 75 c 0
 1172 92 1172 112 1172 130 c 2
 1172 159 l 2
 1172 177 1172 197 1160 214 c 0
 1149 229 1132 237 1112 237 c 0
812 295 m 0
 851 295 884 278 904 254 c 0
 932 220 932 184 932 159 c 2
 932 130 l 2
 932 105 932 69 904 35 c 0
 884 11 851 -6 812 -6 c 0
 773 -6 740 11 720 35 c 0
 692 69 692 105 692 130 c 2
 692 159 l 2
 692 184 692 220 720 254 c 0
 740 278 773 295 812 295 c 0
812 237 m 0
 792 237 775 229 764 214 c 0
 752 197 752 177 752 159 c 2
 752 130 l 2
 752 112 752 92 764 75 c 0
 775 60 792 52 812 52 c 0
 832 52 849 60 860 75 c 0
 872 92 872 112 872 130 c 2
 872 159 l 2
 872 177 872 197 860 214 c 0
 849 229 832 237 812 237 c 0
180 673 m 0
 219 673 252 656 272 632 c 0
 300 598 300 562 300 537 c 2
 300 508 l 2
 300 483 300 447 272 413 c 0
 252 389 219 372 180 372 c 0
 141 372 108 389 88 413 c 0
 60 447 60 483 60 508 c 2
 60 537 l 2
 60 562 60 598 88 632 c 0
 108 656 141 673 180 673 c 0
180 615 m 0
 160 615 143 607 132 592 c 0
 120 575 120 555 120 537 c 2
 120 508 l 2
 120 490 120 470 132 453 c 0
 143 438 160 430 180 430 c 0
 200 430 217 438 228 453 c 0
 240 470 240 490 240 508 c 2
 240 537 l 2
 240 555 240 575 228 592 c 0
 217 607 200 615 180 615 c 0
486 667 m 1
 560 667 l 1
 200 0 l 1
 126 0 l 1
 486 667 l 1
512 295 m 0
 551 295 584 278 604 254 c 0
 632 220 632 184 632 159 c 2
 632 130 l 2
 632 105 632 69 604 35 c 0
 584 11 551 -6 512 -6 c 0
 473 -6 440 11 420 35 c 0
 392 69 392 105 392 130 c 2
 392 159 l 2
 392 184 392 220 420 254 c 0
 440 278 473 295 512 295 c 0
512 237 m 0
 492 237 475 229 464 214 c 0
 452 197 452 177 452 159 c 2
 452 130 l 2
 452 112 452 92 464 75 c 0
 475 60 492 52 512 52 c 0
 532 52 549 60 560 75 c 0
 572 92 572 112 572 130 c 2
 572 159 l 2
 572 177 572 197 560 214 c 0
 549 229 532 237 512 237 c 0
EndSplineSet
Validated: 1
Layer: 2
Layer: 3
EndChar
StartChar: uni2034
Encoding: 8244 8244 426
GlifName: uni2034
Width: 600
Flags: W
HStem: 456 211
LayerCount: 4
Back
Fore
SplineSet
474 667 m 1
 550 667 l 1
 415 456 l 1
 350 456 l 1
 474 667 l 1
324 667 m 1
 400 667 l 1
 265 456 l 1
 200 456 l 1
 324 667 l 1
174 667 m 1
 250 667 l 1
 115 456 l 1
 50 456 l 1
 174 667 l 1
EndSplineSet
Validated: 1
Layer: 2
Layer: 3
EndChar
StartChar: guilsinglleft
Encoding: 8249 8249 188
GlifName: guilsinglleft
Width: 304
Flags: W
VStem: 50 204
LayerCount: 4
Back
Fore
SplineSet
206 449 m 1
 254 413 l 1
 125 250 l 1
 254 87 l 1
 206 51 l 1
 50 250 l 1
 206 449 l 1
EndSplineSet
Validated: 1
Layer: 2
Layer: 3
EndChar
StartChar: Euro
Encoding: 8364 8364 390
GlifName: E_uro
Width: 583
VWidth: 0
Flags: W
HStem: -6 70<241.18 429.064> 243 56<60 105 179 380> 368 56<60 105 179 420> 603 70<241.18 427.236>
VStem: 105 74<125.214 243 299 368 424 541.786>
AnchorPoint: "DoubleTop" 20 0 basechar 0
AnchorPoint: "Apos" 20 0 basechar 0
AnchorPoint: "Center" 20 0 basechar 0
AnchorPoint: "Bottom" 310 0 basechar 0
AnchorPoint: "Top" 310 667 basechar 0
LayerCount: 4
Back
Fore
SplineSet
330 673 m 0
 394 673 459 653 510 612 c 1
 463 559 l 1
 424 590 379 603 330 603 c 0
 282 603 240 588 214 560 c 0
 179 522 179 478 179 438 c 2
 179 424 l 1
 440 424 l 1
 420 368 l 1
 179 368 l 1
 179 299 l 1
 400 299 l 1
 380 243 l 1
 179 243 l 1
 179 229 l 2
 179 189 179 145 214 107 c 0
 240 79 282 64 330 64 c 0
 387 64 439 84 472 114 c 1
 521 63 l 1
 471 19 404 -6 330 -6 c 0
 262 -6 203 16 162 57 c 0
 105 115 105 183 105 229 c 2
 105 243 l 1
 40 243 l 1
 60 299 l 1
 105 299 l 1
 105 368 l 1
 40 368 l 1
 60 424 l 1
 105 424 l 1
 105 438 l 2
 105 484 105 552 162 610 c 0
 203 651 262 673 330 673 c 0
EndSplineSet
Validated: 1
Layer: 2
Layer: 3
EndChar
StartChar: uni20BA
Encoding: 8378 8378 429
GlifName: uni20B_A_
Width: 529
VWidth: 0
Flags: W
HStem: 0 70<224 313.804> 647 20G<150 224>
VStem: 150 74<70 267 365 407 505 667> 385 74<137.817 298>
LayerCount: 4
Back
Fore
SplineSet
459 245 m 2
 459 194 458 127 401 68 c 0
 361 26 298 0 224 0 c 2
 150 0 l 1
 150 267 l 1
 60 222 l 1
 60 283 l 1
 150 328 l 1
 150 407 l 1
 60 362 l 1
 60 423 l 1
 150 468 l 1
 150 667 l 1
 224 667 l 1
 224 505 l 1
 360 573 l 1
 360 512 l 1
 224 444 l 1
 224 365 l 1
 360 433 l 1
 360 372 l 1
 224 304 l 1
 224 70 l 1
 277 70 320 88 347 116 c 0
 383 154 385 196 385 245 c 2
 385 298 l 1
 459 298 l 1
 459 245 l 2
EndSplineSet
Validated: 1
Layer: 2
Layer: 3
EndChar
StartChar: Omega
Encoding: 8486 8486 418
GlifName: O_mega
Width: 600
VWidth: 0
Flags: W
HStem: 0 70<65 156 444 535> 603 70<198.809 401.284>
VStem: 65 74<188.5 540.808> 461 74<188.5 540.024>
AnchorPoint: "DoubleTop" 0 0 basechar 0
AnchorPoint: "Apos" 0 0 basechar 0
AnchorPoint: "Center" 5 0 basechar 0
AnchorPoint: "Bottom" 270 0 basechar 0
AnchorPoint: "Top" 270 667 basechar 0
LayerCount: 4
Back
Fore
SplineSet
300 673 m 0
 431 673 506 619 528 517 c 0
 534 492 535 468 535 438 c 2
 535 309 l 2
 535 213 512 148 444 70 c 1
 535 70 l 1
 535 0 l 1
 350 0 l 1
 350 50 l 1
 443 157 461 226 461 309 c 2
 461 438 l 2
 461 470 459 494 451 518 c 0
 432 575 386 603 300 603 c 0
 214 603 168 575 149 518 c 0
 141 493 139 470 139 438 c 2
 139 309 l 2
 139 226 157 157 250 50 c 1
 250 0 l 1
 65 0 l 1
 65 70 l 1
 156 70 l 1
 88 148 65 213 65 309 c 2
 65 438 l 2
 65 468 66 493 72 518 c 0
 95 619 169 673 300 673 c 0
EndSplineSet
Validated: 1
Layer: 2
Layer: 3
EndChar
StartChar: arrowleft
Encoding: 8592 8592 442
GlifName: arrowleft
Width: 560
Flags: W
HStem: 221 58<171 480>
LayerCount: 4
Back
Fore
SplineSet
480 279 m 1
 480 221 l 1
 171 221 l 1
 246 148 l 1
 202 108 l 1
 80 230 l 1
 80 270 l 1
 202 392 l 1
 246 352 l 1
 171 279 l 1
 480 279 l 1
EndSplineSet
Validated: 1
Layer: 2
Layer: 3
EndChar
StartChar: arrowup
Encoding: 8593 8593 443
GlifName: arrowup
Width: 414
Flags: W
VStem: 177 60<50 360>
LayerCount: 4
Back
Fore
SplineSet
185 450 m 1
 229 450 l 1
 351 328 l 1
 307 288 l 1
 237 360 l 1
 237 50 l 1
 177 50 l 1
 177 360 l 1
 107 288 l 1
 63 328 l 1
 185 450 l 1
EndSplineSet
Validated: 1
Layer: 2
Layer: 3
EndChar
StartChar: arrowright
Encoding: 8594 8594 444
GlifName: arrowright
Width: 560
Flags: W
HStem: 221 58<80 389>
LayerCount: 4
Back
Fore
SplineSet
80 279 m 1
 389 279 l 1
 314 352 l 1
 358 392 l 1
 480 270 l 1
 480 230 l 1
 358 108 l 1
 314 148 l 1
 389 221 l 1
 80 221 l 1
 80 279 l 1
EndSplineSet
Validated: 1
Layer: 2
Layer: 3
EndChar
StartChar: arrowdown
Encoding: 8595 8595 445
GlifName: arrowdown
Width: 414
Flags: W
VStem: 177 60<140 450>
LayerCount: 4
Back
Fore
SplineSet
177 450 m 1
 237 450 l 1
 237 140 l 1
 307 212 l 1
 351 172 l 1
 229 50 l 1
 185 50 l 1
 63 172 l 1
 107 212 l 1
 177 140 l 1
 177 450 l 1
EndSplineSet
Validated: 1
Layer: 2
Layer: 3
EndChar
StartChar: arrowboth
Encoding: 8596 8596 446
GlifName: arrowboth
Width: 640
Flags: W
HStem: 221 58<171 469>
LayerCount: 4
Back
Fore
SplineSet
171 221 m 1
 246 148 l 1
 202 108 l 1
 80 230 l 1
 80 270 l 1
 202 392 l 1
 246 352 l 1
 171 279 l 1
 469 279 l 1
 394 352 l 1
 438 392 l 1
 560 270 l 1
 560 230 l 1
 438 108 l 1
 394 148 l 1
 469 221 l 1
 171 221 l 1
EndSplineSet
Validated: 1
Layer: 2
Layer: 3
EndChar
StartChar: arrowupdn
Encoding: 8597 8597 447
GlifName: arrowupdn
Width: 414
Flags: W
VStem: 177 60<100 400>
LayerCount: 4
Back
Fore
SplineSet
185 490 m 1
 229 490 l 1
 351 368 l 1
 307 328 l 1
 237 400 l 1
 237 100 l 1
 307 172 l 1
 351 132 l 1
 229 10 l 1
 185 10 l 1
 63 132 l 1
 107 172 l 1
 177 100 l 1
 177 400 l 1
 107 328 l 1
 63 368 l 1
 185 490 l 1
EndSplineSet
Validated: 1
Layer: 2
Layer: 3
EndChar
StartChar: uni2196
Encoding: 8598 8598 448
GlifName: uni2196
Width: 469
Flags: W
HStem: 352 57<180 283>
VStem: 80 60<207 309>
LayerCount: 4
Back
Fore
SplineSet
399 133 m 1
 356 92 l 1
 139 309 l 1
 140 207 l 1
 80 207 l 1
 80 380 l 1
 110 409 l 1
 283 409 l 1
 283 351 l 1
 180 352 l 1
 399 133 l 1
EndSplineSet
Validated: 1
Layer: 2
Layer: 3
EndChar
StartChar: uni2197
Encoding: 8599 8599 449
GlifName: uni2197
Width: 469
Flags: W
HStem: 351 58<186 289>
VStem: 329 60<207 309>
LayerCount: 4
Back
Fore
SplineSet
70 133 m 1
 289 352 l 1
 186 351 l 1
 186 409 l 1
 359 409 l 1
 389 380 l 1
 389 207 l 1
 329 207 l 1
 330 309 l 1
 113 92 l 1
 70 133 l 1
EndSplineSet
Validated: 1
Layer: 2
Layer: 3
EndChar
StartChar: uni2198
Encoding: 8600 8600 450
GlifName: uni2198
Width: 469
Flags: W
HStem: 92 58<186 289>
VStem: 330 59<192 294>
LayerCount: 4
Back
Fore
SplineSet
70 368 m 1
 113 409 l 1
 330 192 l 1
 329 294 l 1
 389 294 l 1
 389 121 l 1
 359 92 l 1
 186 92 l 1
 186 150 l 1
 289 149 l 1
 70 368 l 1
EndSplineSet
Validated: 1
Layer: 2
Layer: 3
EndChar
StartChar: uni2199
Encoding: 8601 8601 451
GlifName: uni2199
Width: 469
Flags: W
HStem: 92 57<180 283>
VStem: 80 59<192 294>
LayerCount: 4
Back
Fore
SplineSet
399 368 m 1
 180 149 l 1
 283 150 l 1
 283 92 l 1
 110 92 l 1
 80 121 l 1
 80 294 l 1
 140 294 l 1
 139 192 l 1
 356 409 l 1
 399 368 l 1
EndSplineSet
Validated: 1
Layer: 2
Layer: 3
EndChar
StartChar: partialdiff
Encoding: 8706 8706 438
GlifName: partialdiff
Width: 485
VWidth: 0
Flags: W
HStem: -5 66<167.27 312.73> 418 66<167.654 312.353> 603 66<130.198 310.216>
VStem: 55 70<103.009 375.302> 355 70<103.009 376.173 434 557.972>
AnchorPoint: "DoubleTop" 0 0 basechar 0
AnchorPoint: "Apos" 0 0 basechar 0
AnchorPoint: "Center" 0 0 basechar 0
AnchorPoint: "Bottom" 235 -185 basechar 0
AnchorPoint: "Top" 230 477 basechar 0
LayerCount: 4
Back
Fore
SplineSet
230 669 m 0
 296 669 347 646 379 611 c 0
 425 561 425 504 425 465 c 2
 425 195 l 2
 425 159 425 99 378 50 c 0
 345 15 294 -5 240 -5 c 0
 186 -5 135 15 102 50 c 0
 55 99 55 159 55 195 c 2
 55 282 l 2
 55 321 55 376 96 424 c 0
 123 456 170 484 230 484 c 0
 282 484 328 464 355 434 c 1
 355 465 l 2
 355 496 355 532 331 562 c 0
 312 586 279 603 230 603 c 0
 191 603 153 594 114 574 c 1
 79 631 l 1
 124 655 176 669 230 669 c 0
355 195 m 2
 355 284 l 2
 355 314 355 349 331 379 c 0
 312 403 279 418 240 418 c 0
 201 418 168 403 149 379 c 0
 125 349 125 314 125 284 c 2
 125 195 l 2
 125 165 125 130 149 100 c 0
 168 76 201 61 240 61 c 0
 279 61 312 76 331 100 c 0
 355 130 355 165 355 195 c 2
EndSplineSet
Validated: 1
Layer: 2
Layer: 3
EndChar
StartChar: minus
Encoding: 8722 8722 427
GlifName: minus
Width: 520
Flags: W
HStem: 222 58<80 440>
LayerCount: 4
Back
Fore
SplineSet
80 280 m 5
 80 280 440 280 440 280 c 5
 440 222 l 1
 80 222 l 1
 80 280 l 5
EndSplineSet
Validated: 1
Layer: 2
Layer: 3
EndChar
StartChar: radical
Encoding: 8730 8730 420
GlifName: radical
Width: 505
Flags: W
HStem: 0 21G<209.148 285.847> 647 20G<406.194 475>
LayerCount: 4
Back
Fore
SplineSet
45 257 m 1
 95 289 l 1
 241 78 l 1
 412 667 l 1
 475 667 l 1
 280 0 l 1
 223 0 l 1
 45 257 l 1
EndSplineSet
Validated: 1
Layer: 2
Layer: 3
EndChar
StartChar: integral
Encoding: 8747 8747 125
GlifName: integral
Width: 359
Flags: W
HStem: -191 66<-6.32779 103.609> 607 66<203.775 306.55>
VStem: 115 70<-103.295 579.059>
LayerCount: 4
Back
Fore
SplineSet
256 673 m 0
 280 673 302 668 321 663 c 1
 303 599 l 1
 285 604 269 607 256 607 c 0
 229 607 210 596 199 580 c 0
 185 560 185 535 185 513 c 2
 185 -53 l 2
 185 -79 185 -118 152 -153 c 0
 131 -175 98 -191 54 -191 c 0
 25 -191 -2 -184 -28 -173 c 1
 1 -113 l 1
 19 -121 38 -125 54 -125 c 0
 74 -125 93 -119 104 -104 c 0
 115 -89 115 -71 115 -53 c 2
 115 513 l 2
 115 543 115 583 144 621 c 0
 167 651 206 673 256 673 c 0
EndSplineSet
Validated: 1
Layer: 2
Layer: 3
EndChar
StartChar: uni222C
Encoding: 8748 8748 479
GlifName: uni222C_
Width: 589
Flags: W
HStem: -191 66<-6.32779 103.609 223.672 333.609> 599 64<257.124 304.969 487.124 534.969> 607 66<203.775 306.55 433.775 536.55>
VStem: 115 70<-103.295 579.059> 345 70<-103.295 579.059>
LayerCount: 4
Back
Fore
SplineSet
486 673 m 0xb8
 510 673 532 668 551 663 c 1
 533 599 l 1xd8
 515 604 499 607 486 607 c 0
 459 607 440 596 429 580 c 0
 415 560 415 535 415 513 c 2
 415 -53 l 2
 415 -79 415 -118 382 -153 c 0
 361 -175 328 -191 284 -191 c 0
 255 -191 228 -184 202 -173 c 1
 231 -113 l 1
 249 -121 268 -125 284 -125 c 0
 304 -125 323 -119 334 -104 c 0
 345 -89 345 -71 345 -53 c 2
 345 513 l 2
 345 543 345 583 374 621 c 0
 397 651 436 673 486 673 c 0xb8
256 673 m 0xb8
 280 673 302 668 321 663 c 1
 303 599 l 1xd8
 285 604 269 607 256 607 c 0
 229 607 210 596 199 580 c 0
 185 560 185 535 185 513 c 2
 185 -53 l 2
 185 -79 185 -118 152 -153 c 0
 131 -175 98 -191 54 -191 c 0
 25 -191 -2 -184 -28 -173 c 1
 1 -113 l 1
 19 -121 38 -125 54 -125 c 0
 74 -125 93 -119 104 -104 c 0
 115 -89 115 -71 115 -53 c 2
 115 513 l 2
 115 543 115 583 144 621 c 0
 167 651 206 673 256 673 c 0xb8
EndSplineSet
Validated: 1
Layer: 2
Layer: 3
EndChar
StartChar: uni222D
Encoding: 8749 8749 480
GlifName: uni222D_
Width: 819
Flags: W
HStem: -191 66<-6.32779 103.609 223.672 333.609 453.672 563.609> 599 64<257.124 304.969 487.124 534.969 717.124 764.969> 607 66<203.775 306.55 433.775 536.55 663.775 766.55>
VStem: 115 70<-103.295 579.059> 345 70<-103.295 579.059> 575 70<-103.295 579.059>
CounterMasks: 1 1c
LayerCount: 4
Back
Fore
SplineSet
716 673 m 0xbc
 740 673 762 668 781 663 c 1
 763 599 l 1xdc
 745 604 729 607 716 607 c 0
 689 607 670 596 659 580 c 0
 645 560 645 535 645 513 c 2
 645 -53 l 2
 645 -79 645 -118 612 -153 c 0
 591 -175 558 -191 514 -191 c 0
 485 -191 458 -184 432 -173 c 1
 461 -113 l 1
 479 -121 498 -125 514 -125 c 0
 534 -125 553 -119 564 -104 c 0
 575 -89 575 -71 575 -53 c 2
 575 513 l 2
 575 543 575 583 604 621 c 0
 627 651 666 673 716 673 c 0xbc
486 673 m 0xbc
 510 673 532 668 551 663 c 1
 533 599 l 1xdc
 515 604 499 607 486 607 c 0
 459 607 440 596 429 580 c 0
 415 560 415 535 415 513 c 2
 415 -53 l 2
 415 -79 415 -118 382 -153 c 0
 361 -175 328 -191 284 -191 c 0
 255 -191 228 -184 202 -173 c 1
 231 -113 l 1
 249 -121 268 -125 284 -125 c 0
 304 -125 323 -119 334 -104 c 0
 345 -89 345 -71 345 -53 c 2
 345 513 l 2
 345 543 345 583 374 621 c 0
 397 651 436 673 486 673 c 0xbc
256 673 m 0xbc
 280 673 302 668 321 663 c 1
 303 599 l 1xdc
 285 604 269 607 256 607 c 0
 229 607 210 596 199 580 c 0
 185 560 185 535 185 513 c 2
 185 -53 l 2
 185 -79 185 -118 152 -153 c 0
 131 -175 98 -191 54 -191 c 0
 25 -191 -2 -184 -28 -173 c 1
 1 -113 l 1
 19 -121 38 -125 54 -125 c 0
 74 -125 93 -119 104 -104 c 0
 115 -89 115 -71 115 -53 c 2
 115 513 l 2
 115 543 115 583 144 621 c 0
 167 651 206 673 256 673 c 0xbc
EndSplineSet
Validated: 1
Layer: 2
Layer: 3
EndChar
StartChar: notequal
Encoding: 8800 8800 120
GlifName: notequal
Width: 520
Flags: W
HStem: 156 52<80 165 262 440> 294 52<80 258 355 440>
LayerCount: 4
Back
Fore
SplineSet
359 444 m 1
 421 444 l 1
 355 346 l 1
 440 346 l 1
 440 294 l 1
 320 294 l 1
 262 208 l 1
 440 208 l 1
 440 156 l 1
 227 156 l 1
 161 58 l 1
 99 58 l 1
 165 156 l 1
 80 156 l 1
 80 208 l 1
 200 208 l 1
 258 294 l 1
 80 294 l 1
 80 346 l 1
 293 346 l 1
 359 444 l 1
EndSplineSet
Validated: 1
Layer: 2
Layer: 3
EndChar
StartChar: greaterequal
Encoding: 8805 8805 119
GlifName: greaterequal
Width: 520
Flags: W
HStem: 95 56<80 440>
LayerCount: 4
Back
Fore
SplineSet
440 151 m 1
 440 95 l 1
 80 95 l 1
 80 151 l 1
 440 151 l 1
374 323 m 1
 80 400 l 1
 80 456 l 1
 440 356 l 1
 440 290 l 1
 80 190 l 1
 80 246 l 1
 374 323 l 1
EndSplineSet
Validated: 1
Layer: 2
Layer: 3
EndChar
StartChar: lozenge
Encoding: 9674 9674 437
GlifName: lozenge
Width: 550
VWidth: 0
Flags: W
HStem: 0 21G<262.126 287.874> 649 20G<262.164 287.836>
LayerCount: 4
Back
Fore
SplineSet
134 334 m 25
 275 110 l 25
 416 334 l 25
 275 559 l 25
 134 334 l 25
60 334 m 25
 275 669 l 25
 490 334 l 25
 275 0 l 25
 60 334 l 25
EndSplineSet
Validated: 1
Layer: 2
Layer: 3
EndChar
StartChar: uniFB02
Encoding: 64258 64258 416
GlifName: uniF_B_02
Width: 496
VWidth: 0
Flags: W
HStem: 0 21G<105 175 351 421> 416 61<45 105 175 275> 605 62<186.654 351>
VStem: 105 70<0 416 477 594.561> 351 70<0 605>
LayerCount: 4
Back
Fore
SplineSet
45 477 m 1
 105 477 l 1
 105 537 l 2
 105 626 166 667 225 667 c 0
 421 667 l 1
 421 0 l 1
 351 0 l 1
 351 605 l 1
 225 605 l 2
 200 605 175 585 175 537 c 2
 175 477 l 1
 275 477 l 1
 275 416 l 1
 175 416 l 1
 175 0 l 1
 105 0 l 1
 105 416 l 1
 45 416 l 1
 45 477 l 1
EndSplineSet
Validated: 1
Layer: 2
Layer: 3
EndChar
